<?xml version="1.0" encoding="UTF-8" standalone="no"?>
<!-- Created with Inkscape (http://www.inkscape.org/) -->

<svg
   xmlns:dc="http://purl.org/dc/elements/1.1/"
   xmlns:cc="http://creativecommons.org/ns#"
   xmlns:rdf="http://www.w3.org/1999/02/22-rdf-syntax-ns#"
   xmlns:svg="http://www.w3.org/2000/svg"
   xmlns="http://www.w3.org/2000/svg"
   xmlns:sodipodi="http://sodipodi.sourceforge.net/DTD/sodipodi-0.dtd"
   xmlns:inkscape="http://www.inkscape.org/namespaces/inkscape"
   width="2800"
   height="1120"
   viewBox="0 0 2800 1120"
   id="svg2"
   version="1.1"
   inkscape:version="0.91 r13725"
   sodipodi:docname="promo--1400x560.svg"
   inkscape:export-filename="/home/manu/Code/indeed-ad-block/app/images/promo--1400x560.png"
   inkscape:export-xdpi="45"
   inkscape:export-ydpi="45">
  <sodipodi:namedview
     id="base"
     pagecolor="#ffffff"
     bordercolor="#666666"
     borderopacity="1.0"
     inkscape:pageopacity="0.0"
     inkscape:pageshadow="2"
     inkscape:zoom="0.175"
     inkscape:cx="348.40663"
     inkscape:cy="368.73679"
     inkscape:document-units="px"
     inkscape:current-layer="layer1"
     showgrid="false"
     inkscape:window-width="1126"
     inkscape:window-height="718"
     inkscape:window-x="483"
     inkscape:window-y="120"
     inkscape:window-maximized="0"
     showguides="false"
     inkscape:guide-bbox="true"
     inkscape:snap-bbox="true"
     inkscape:snap-bbox-midpoints="true"
     inkscape:snap-midpoints="false"
     inkscape:snap-object-midpoints="true"
     inkscape:snap-bbox-edge-midpoints="false"
     inkscape:snap-page="true"
     units="px"
     inkscape:bbox-nodes="true"
     inkscape:snap-global="true"
     borderlayer="false"
     inkscape:snap-intersection-paths="true"
     inkscape:showpageshadow="false">
    <sodipodi:guide
       position="-1445.7143,1468.5714"
       orientation="-0.70710678,0.70710678"
       id="guide4281" />
  </sodipodi:namedview>
  <defs
     id="defs4">
    <clipPath
       clipPathUnits="userSpaceOnUse"
       id="clipPath4869">
      <path
         d="m 155.379,744.209 9.419,0 0,-9.418 -9.419,0 0,9.418 z"
         id="path4871"
         inkscape:connector-curvature="0" />
    </clipPath>
    <clipPath
       clipPathUnits="userSpaceOnUse"
       id="clipPath4885">
      <path
         d="m 170.791,744.209 9.418,0 0,-9.418 -9.418,0 0,9.418 z"
         id="path4887"
         inkscape:connector-curvature="0" />
    </clipPath>
    <clipPath
       clipPathUnits="userSpaceOnUse"
       id="clipPath4901">
      <path
         d="m 186.202,744.209 9.419,0 0,-9.418 -9.419,0 0,9.418 z"
         id="path4903"
         inkscape:connector-curvature="0" />
    </clipPath>
    <clipPath
       clipPathUnits="userSpaceOnUse"
       id="clipPath5200">
      <rect
         style="opacity:0.45899999;fill:#008000;fill-opacity:1;stroke:none;stroke-width:0.05;stroke-linejoin:round;stroke-miterlimit:4;stroke-dasharray:none;stroke-opacity:1"
         id="rect5202"
         width="1200"
         height="944.43903"
         x="1500"
         y="268.97574"
         rx="7.4908514"
         ry="7.4908514" />
    </clipPath>
  </defs>
  <metadata
     id="metadata7">
    <rdf:RDF>
      <cc:Work
         rdf:about="">
        <dc:format>image/svg+xml</dc:format>
        <dc:type
           rdf:resource="http://purl.org/dc/dcmitype/StillImage" />
        <dc:title />
        <dc:creator>
          <cc:Agent>
            <dc:title>Manu Phatak &lt;bionikspoon@gmail.com&gt;</dc:title>
          </cc:Agent>
        </dc:creator>
        <dc:subject>
          <rdf:Bag>
            <rdf:li>Manu Phatak</rdf:li>
          </rdf:Bag>
        </dc:subject>
        <cc:license
           rdf:resource="http://creativecommons.org/licenses/by/3.0/" />
      </cc:Work>
      <cc:License
         rdf:about="http://creativecommons.org/licenses/by/3.0/">
        <cc:permits
           rdf:resource="http://creativecommons.org/ns#Reproduction" />
        <cc:permits
           rdf:resource="http://creativecommons.org/ns#Distribution" />
        <cc:requires
           rdf:resource="http://creativecommons.org/ns#Notice" />
        <cc:requires
           rdf:resource="http://creativecommons.org/ns#Attribution" />
        <cc:permits
           rdf:resource="http://creativecommons.org/ns#DerivativeWorks" />
      </cc:License>
    </rdf:RDF>
  </metadata>
  <g
     transform="translate(0,67.637825)"
     id="layer1"
     inkscape:groupmode="layer"
     inkscape:label="Layer 1">
    <rect
       y="-67.637825"
       x="0"
       height="1120"
       width="2800"
       id="rect4413"
       style="opacity:1;fill:#d32f2f;fill-opacity:1;stroke:none;stroke-width:0.1;stroke-linejoin:miter;stroke-miterlimit:4;stroke-dasharray:none;stroke-opacity:1" />
    <g
       transform="matrix(0.39062499,0,0,0.39062499,11.21231,903.96134)"
       id="g4150" />
    <g
       id="g4258"
       transform="matrix(1.0556658,-0.36924689,0.60521286,1.1398113,1028.4612,11.722758)"
       mask="none">
      <g
         id="g4569"
         transform="matrix(1.9418101,2.6284429,0,0.97090509,-942.70542,-1474.699)"
         style="opacity:1;fill:#a62525;fill-opacity:1">
        <path
           d="m 577.70039,486.12904 c -52.80305,27.04255 -117.45287,5.93236 -144.04925,-46.90285 -27.06321,-52.81684 -5.95026,-117.47541 46.88495,-144.08601 52.81956,-27.01039 117.47677,-5.8956 144.08737,46.91664 27.02785,52.78926 5.89836,117.44324 -46.92307,144.07222 M 463.22011,140.07632 c 87.87335,-31.67448 188.01304,-29.96967 263.24509,35.06571 13.92335,13.10541 29.96967,29.58827 36.28802,49.00744 7.64176,24.5198 -26.59682,-2.50437 -31.23793,-5.8956 -24.5244,-16.0647 -49.04421,-29.55611 -76.46815,-38.86591 C 507.1646,133.77635 367.30842,216.12631 280.25533,344.166 c -36.33765,56.59406 -59.97426,116.18416 -79.41214,181.69284 -2.12168,7.17305 -3.82693,16.46448 -7.62331,22.80121 -3.81255,7.18684 -1.66937,-19.46052 -1.66937,-20.27387 2.94201,-27.04714 8.44003,-53.26256 15.21073,-79.43203 40.13227,-139.45868 128.8548,-255.62446 256.45887,-308.87783 m -0.85286,745.32161 0,-310.98197 c 8.87646,0.8501 17.31642,1.29124 26.21038,1.29124 42.23785,0 81.93592,-11.43737 115.73197,-31.67448 l 0,341.36521 c 0,29.15218 -6.73328,50.70306 -19.83825,65.05928 -13.08931,14.35989 -30.42136,21.54673 -51.55037,21.54673 -20.69067,0 -37.15423,-7.18684 -50.71548,-21.97041 -13.06909,-14.35118 -19.83825,-35.89607 -19.83825,-64.6356 M 329.05829,28.36219 21.338189,331.47042 l 0,428.63832 296.700011,292.25346 419.60007,0 307.69993,-303.10827 0,-428.63832 -296.71999,-292.25342 -419.55992,0 z"
           style="fill:#a62525;fill-opacity:1;fill-rule:evenodd;stroke:none"
           id="path4571"
           inkscape:connector-curvature="0" />
      </g>
      <g
         id="g4303"
         transform="matrix(1.9418101,2.6284429,0,0.97090509,-998.7055,-1474.699)"
         style="opacity:1;fill:#dc5a5a;fill-opacity:1">
        <path
           d="m 577.70039,486.12904 c -52.80305,27.04255 -117.45287,5.93236 -144.04925,-46.90285 -27.06321,-52.81684 -5.95026,-117.47541 46.88495,-144.08601 52.81956,-27.01039 117.47677,-5.8956 144.08737,46.91664 27.02785,52.78926 5.89836,117.44324 -46.92307,144.07222 M 463.22011,140.07632 c 87.87335,-31.67448 188.01304,-29.96967 263.24509,35.06571 13.92335,13.10541 29.96967,29.58827 36.28802,49.00744 7.64176,24.5198 -26.59682,-2.50437 -31.23793,-5.8956 -24.5244,-16.0647 -49.04421,-29.55611 -76.46815,-38.86591 C 507.1646,133.77635 367.30842,216.12631 280.25533,344.166 c -36.33765,56.59406 -59.97426,116.18416 -79.41214,181.69284 -2.12168,7.17305 -3.82693,16.46448 -7.62331,22.80121 -3.81255,7.18684 -1.66937,-19.46052 -1.66937,-20.27387 2.94201,-27.04714 8.44003,-53.26256 15.21073,-79.43203 40.13227,-139.45868 128.8548,-255.62446 256.45887,-308.87783 m -0.85286,745.32161 0,-310.98197 c 8.87646,0.8501 17.31642,1.29124 26.21038,1.29124 42.23785,0 81.93592,-11.43737 115.73197,-31.67448 l 0,341.36521 c 0,29.15218 -6.73328,50.70306 -19.83825,65.05928 -13.08931,14.35989 -30.42136,21.54673 -51.55037,21.54673 -20.69067,0 -37.15423,-7.18684 -50.71548,-21.97041 -13.06909,-14.35118 -19.83825,-35.89607 -19.83825,-64.6356 M 329.05829,28.36219 21.338189,331.47042 l 0,428.63832 296.700011,292.25346 419.60007,0 307.69993,-303.10827 0,-428.63832 -296.71999,-292.25342 -419.55992,0 z"
           style="fill:#dc5a5a;fill-opacity:1;fill-rule:evenodd;stroke:none"
           id="path4165"
           inkscape:connector-curvature="0" />
      </g>
    </g>
    <g
       style="opacity:1;fill:#008000;fill-opacity:1"
       id="g4519"
       transform="matrix(4.9710341,6.7288139,0,2.4855171,-2458.1121,-4507.9632)">
      <g
         style="opacity:0.24200003;fill:#008000;fill-opacity:1"
         transform="matrix(0.39062499,0,0,0.39062499,255.94959,581.54597)"
         id="g4521" />
    </g>
    <g
       id="g4913"
       transform="matrix(1.98714,0,0,-1.9870806,1887.1435,328.57228)"
       style="fill:#e6e6e6;fill-opacity:1;stroke:none;stroke-width:0.01100016;stroke-linejoin:round;stroke-miterlimit:4;stroke-dasharray:none;stroke-opacity:1" />
    <g
       id="g4942"
       transform="matrix(0.919355,0,0,0.919355,169.3545,-189.05939)"
       clip-path="url(#clipPath5200)">
      <rect
         y="472.0256"
         x="1516.4207"
         height="10.082444"
         width="56.166538"
         id="rect4322"
         style="opacity:0.43600003;fill:#130408;fill-opacity:1;stroke:none;stroke-width:2.5;stroke-linejoin:round;stroke-miterlimit:4;stroke-dasharray:none;stroke-opacity:1" />
      <path
         id="rect5267"
         d="m 1507.4909,268.97574 c -4.1498,0 -7.4909,3.34105 -7.4909,7.49085 l 0,41.51458 0,37.25373 0,7.49084 7.4909,0 1185.0182,0 7.4909,0 0,-7.49084 0,-37.25373 0,-41.51458 c 0,-4.1498 -3.341,-7.49085 -7.4909,-7.49085 l -1185.0182,0 z"
         style="opacity:1;fill:#cccccc;fill-opacity:1;stroke:none;stroke-width:0.1;stroke-linejoin:miter;stroke-miterlimit:4;stroke-dasharray:none;stroke-opacity:1"
         inkscape:connector-curvature="0" />
      <g
         transform="matrix(2.1306821,0,0,-2.1306821,1186.7908,1871.2493)"
         id="g4865">
        <g
           id="g4867" />
        <g
           id="g4873">
          <g
             style="opacity:0.71000701"
             id="g4875"
             clip-path="url(#clipPath4869)">
            <g
               id="g4877"
               transform="translate(164.7979,739.5)">
              <path
                 inkscape:connector-curvature="0"
                 id="path4879"
                 style="fill:#e74c3c;fill-opacity:1;fill-rule:nonzero;stroke:none"
                 d="m 0,0 c 0,-2.601 -2.108,-4.709 -4.709,-4.709 -2.601,0 -4.709,2.108 -4.709,4.709 0,2.601 2.108,4.709 4.709,4.709 C -2.108,4.709 0,2.601 0,0" />
            </g>
          </g>
        </g>
      </g>
      <g
         transform="matrix(2.1306821,0,0,-2.1306821,1186.7908,1871.2493)"
         id="g4881">
        <g
           id="g4883" />
        <g
           id="g4889">
          <g
             style="opacity:0.71000701"
             id="g4891"
             clip-path="url(#clipPath4885)">
            <g
               id="g4893"
               transform="translate(180.209,739.5)">
              <path
                 inkscape:connector-curvature="0"
                 id="path4895"
                 style="fill:#f1c40f;fill-opacity:1;fill-rule:nonzero;stroke:none"
                 d="m 0,0 c 0,-2.601 -2.108,-4.709 -4.709,-4.709 -2.601,0 -4.709,2.108 -4.709,4.709 0,2.601 2.108,4.709 4.709,4.709 C -2.108,4.709 0,2.601 0,0" />
            </g>
          </g>
        </g>
      </g>
      <g
         transform="matrix(2.1306821,0,0,-2.1306821,1186.7908,1871.2493)"
         id="g4897">
        <g
           id="g4899" />
        <g
           id="g4905">
          <g
             style="opacity:0.71000701"
             id="g4907"
             clip-path="url(#clipPath4901)">
            <g
               id="g4909"
               transform="translate(195.6206,739.5)">
              <path
                 inkscape:connector-curvature="0"
                 id="path4911"
                 style="fill:#2ecc71;fill-opacity:1;fill-rule:nonzero;stroke:none"
                 d="m 0,0 c 0,-2.601 -2.108,-4.709 -4.709,-4.709 -2.601,0 -4.709,2.108 -4.709,4.709 0,2.601 2.108,4.709 4.709,4.709 C -2.108,4.709 0,2.601 0,0" />
            </g>
          </g>
        </g>
      </g>
      <g
         transform="matrix(1.4981273,0,0,-1.7221776,2700,1237.4766)"
         id="g4917">
        <path
           inkscape:connector-curvature="0"
           id="path4919"
           style="fill:#f2f2f2;fill-opacity:1;fill-rule:nonzero;stroke:none"
           d="m 0,0 c 0,-3.351 -2.508,-6.067 -5.603,-6.067 l -789.794,0 c -3.095,0 -5.603,2.716 -5.603,6.067 l 0,507.933 801,0 L 0,0 Z" />
      </g>
      <path
         d="m 2700,362.72576 -1199.999,0 0,-44.74433 1199.999,0 0,44.74433 z M 1855.8249,288.2444 c -0.8437,-2.53331 -2.8615,-4.35286 -6.392,-4.35286 l -193.8921,0 c -3.5306,0 -5.5483,1.90904 -6.3921,4.35286 l -8.5227,26.47719 c -0.7329,2.12635 -4.2613,3.25984 -4.2613,3.25984 l 232.2443,0 c 0,0 -3.5284,-0.93321 -4.2614,-3.25984 l -8.5227,-26.47719 z"
         style="fill:#e6e6e6;fill-opacity:1;fill-rule:nonzero;stroke:none"
         id="path4921"
         inkscape:connector-curvature="0" />
      <rect
         ry="5.4385958"
         rx="5.4385958"
         y="323.60672"
         x="1505.625"
         height="33.493656"
         width="1188.75"
         id="rect5312"
         style="opacity:1;fill:#ffffff;fill-opacity:1;stroke:none;stroke-width:0.05;stroke-linejoin:round;stroke-miterlimit:4;stroke-dasharray:none;stroke-opacity:1" />
      <text
         sodipodi:linespacing="125%"
         id="text5044"
         y="347.3262"
         x="1513.1466"
         style="font-style:normal;font-variant:normal;font-weight:normal;font-stretch:normal;font-size:23.167696px;line-height:125%;font-family:Ubuntu;-inkscape-font-specification:Ubuntu;letter-spacing:0px;word-spacing:0px;fill:#66a00f;fill-opacity:1;stroke:none;stroke-width:1px;stroke-linecap:butt;stroke-linejoin:miter;stroke-opacity:1"
         xml:space="preserve"><tspan
           style="font-size:23.4375px"
           y="347.3262"
           x="1513.1466"
           id="tspan5046"
           sodipodi:role="line">https<tspan
   id="tspan5048"
   style="font-size:23.4375px;fill:#a29ea7;fill-opacity:1">://</tspan><tspan
   id="tspan5128"
   style="font-size:23.4375px;fill:#3d3d3d;fill-opacity:1">www.indeed.com</tspan><tspan
   id="tspan5130"
   style="font-size:23.4375px;fill:#a29ea7;fill-opacity:1">/q?rap+superstar&amp;l=straight+outta+compton</tspan></tspan></text>
      <g
         style="fill:#ffffff"
         id="g4168"
         transform="matrix(1.4981273,0,0,-1.7221776,2700,1237.4766)">
        <path
           d="m 0,0 c 0,-3.351 -2.508,-6.067 -5.603,-6.067 l -789.794,0 c -3.095,0 -5.603,2.716 -5.603,6.067 l 0,507.933 801,0 L 0,0 Z"
           style="fill:#ffffff;fill-opacity:1;fill-rule:nonzero;stroke:none"
           id="path4170"
           inkscape:connector-curvature="0" />
      </g>
      <path
         d="m 1669.9091,380.63944 0.6926,0 c 0.3321,0 0.5585,-0.05 0.6793,-0.14939 0.1221,-0.0992 0.182,-0.22849 0.182,-0.38978 0,-0.10422 -0.03,-0.19854 -0.088,-0.28028 -0.059,-0.0827 -0.1384,-0.14433 -0.241,-0.18355 -0.103,-0.0425 -0.2949,-0.0619 -0.5758,-0.0619 l -0.6494,0 0,1.06492 z m -0.5724,1.99366 0,-3.5398 1.2167,0 c 0.4154,0 0.7171,0.0315 0.9036,0.0976 0.1873,0.0656 0.3339,0.17936 0.4467,0.34285 0.1101,0.1635 0.1646,0.33558 0.1646,0.51649 0,0.26044 -0.094,0.48497 -0.2774,0.67688 -0.1852,0.19192 -0.4315,0.30033 -0.736,0.32303 0.1252,0.0516 0.2248,0.11435 0.3014,0.18597 0.141,0.13925 0.3145,0.37458 0.523,0.70532 l 0.4298,0.69165 -0.7034,0 -0.3131,-0.55813 c -0.2469,-0.43672 -0.4439,-0.71038 -0.5915,-0.8221 -0.104,-0.0827 -0.2563,-0.12537 -0.4568,-0.12537 l -0.3352,0 0,1.5056 -0.5724,0 z m 1.4413,-4.57298 c -0.4641,0 -0.9156,0.12074 -1.3534,0.35629 -0.4378,0.23863 -0.7831,0.57818 -1.0295,1.01886 -0.2491,0.44245 -0.3712,0.90143 -0.3712,1.37869 0,0.47726 0.1221,0.93116 0.3633,1.36766 0.2435,0.43649 0.5842,0.77539 1.022,1.01819 0.4365,0.24438 0.893,0.36556 1.3688,0.36556 0.4755,0 0.9302,-0.12118 1.3685,-0.36556 0.4356,-0.2428 0.7761,-0.5817 1.018,-1.01819 0.2413,-0.4365 0.3642,-0.8904 0.3642,-1.36766 0,-0.47726 -0.1247,-0.93624 -0.3699,-1.37869 -0.2446,-0.44068 -0.589,-0.78023 -1.0297,-1.01886 -0.4418,-0.23555 -0.8904,-0.35629 -1.3511,-0.35629 m 0,-0.54425 c 0.5522,0 1.0931,0.14168 1.6197,0.42658 0.5273,0.28358 0.9388,0.69078 1.2335,1.21915 0.2928,0.52993 0.4413,1.08057 0.4413,1.65236 0,0.56913 -0.1458,1.11559 -0.4365,1.63978 -0.2901,0.52397 -0.6955,0.92962 -1.2174,1.22091 -0.5232,0.2902 -1.0717,0.43386 -1.6406,0.43386 -0.5718,0 -1.1174,-0.14366 -1.6418,-0.43386 -0.5222,-0.29129 -0.9278,-0.69694 -1.2207,-1.22091 -0.2911,-0.52419 -0.4383,-1.07065 -0.4383,-1.63978 0,-0.57179 0.1503,-1.12243 0.4458,-1.65236 0.2952,-0.52837 0.7077,-0.93557 1.2334,-1.21915 0.5282,-0.2849 1.0674,-0.42658 1.6216,-0.42658"
         style="fill:#918f90;fill-opacity:1;fill-rule:nonzero;stroke:none"
         id="path4197"
         inkscape:connector-curvature="0" />
      <path
         d="m 1658.4714,405.98807 c -0.5487,1.17487 -1.2771,2.04541 -2.1675,2.61262 -0.9136,0.56755 -1.9061,0.85072 -2.9993,0.85072 l -0.02,0 c -1.0937,0 -2.0871,-0.30324 -2.9991,-0.89041 -0.9119,-0.60765 -1.6398,-1.49987 -2.1672,-2.67407 -0.5267,-1.19492 -0.7905,-2.63354 -0.7905,-4.33612 0,-1.60145 0.2431,-3.01824 0.7486,-4.21427 0.4868,-1.21496 1.1969,-2.1479 2.0875,-2.79658 0.9118,-0.66676 1.924,-0.97126 3.0792,-0.97126 l 0.061,0 c 1.0748,0 2.0661,0.32456 2.9785,0.95298 0.9111,0.62775 1.6396,1.53887 2.1882,2.73488 0.5462,1.19491 0.8092,2.63288 0.8092,4.29425 0,1.78257 -0.263,3.26239 -0.8092,4.43726 m 6.2994,-25.48722 c -0.5261,-0.60814 -1.2356,-0.91111 -2.1869,-0.91111 -0.9525,0 -1.6826,0.32367 -2.1882,0.99307 -0.5074,0.64737 -0.771,1.62063 -0.771,2.89729 l 0,9.23719 c -1.1742,-1.2965 -2.3903,-2.22788 -3.627,-2.8563 -0.7686,-0.38561 -1.6797,-0.66852 -2.693,-0.81042 -0.5875,-0.0811 -1.1957,-0.12185 -1.8649,-0.12185 -3.0997,0 -5.6108,1.09489 -7.5359,3.28222 -1.9035,2.18822 -2.8567,5.22675 -2.8567,9.13826 0,1.84316 0.2448,3.5647 0.7302,5.1461 0.4847,1.57983 1.1735,2.95611 2.1065,4.13097 0.9329,1.17602 2.0452,2.06684 3.3223,2.71729 1.2769,0.62658 2.6544,0.95055 4.1542,0.95055 0.6882,0 1.3359,-0.0608 1.9443,-0.18202 0.4047,-0.0608 0.7903,-0.16259 1.1757,-0.28447 0.9517,-0.3239 1.8421,-0.7897 2.6529,-1.37517 0.8307,-0.60947 1.6625,-1.39891 2.4914,-2.3513 l 0,0.60776 c 0,1.15482 0.2845,2.0256 0.8318,2.6523 0.5668,0.60893 1.276,0.9329 2.1274,0.9329 0.8703,0 1.5806,-0.30321 2.1272,-0.89152 0.5462,-0.60835 0.8311,-1.49919 0.8311,-2.69368 l 0,-27.55338 c 0,-1.15481 -0.2646,-2.04698 -0.7714,-2.65468"
         style="fill:#2164f3;fill-opacity:1;fill-rule:evenodd;stroke:none"
         id="path4199"
         inkscape:connector-curvature="0" />
      <path
         d="m 1624.5347,394.80481 c 0.994,-1.07351 2.2709,-1.60101 3.8305,-1.60101 l 0.02,0 c 1.6211,0 2.9366,0.5275 3.9287,1.58096 0.9945,1.05302 1.5832,2.65293 1.7222,4.80082 l -11.3249,0 c 0.2036,-2.10779 0.8118,-3.70704 1.8233,-4.78077 m 14.588,11.44613 c -0.3854,-0.34286 -0.9111,-0.52662 -1.5613,-0.52662 -0.5883,0 -1.033,0.14256 -1.3575,0.40543 -0.7887,0.72955 -1.4161,1.31611 -1.9038,1.742 -0.4848,0.40521 -1.033,0.81 -1.6206,1.19578 -0.5674,0.36554 -1.174,0.64761 -1.7815,0.81114 -0.6293,0.18179 -1.2978,0.2626 -2.046,0.2626 -0.1631,0 -0.3249,0 -0.4666,-0.0197 -0.9317,-0.061 -1.8028,-0.32543 -2.5921,-0.81018 -0.9328,-0.54845 -1.6636,-1.35795 -2.23,-2.41123 -0.5464,-1.09465 -0.8311,-2.34995 -0.8519,-3.76851 l 12.2189,0 c 1.6399,0 2.916,-0.24304 3.807,-0.68857 0.9123,-0.48718 1.3569,-1.49943 1.3569,-3.06011 0,-1.69995 -0.4446,-3.36243 -1.3149,-5.00375 -0.8737,-1.61997 -2.1692,-2.95832 -3.9316,-3.99085 -1.7423,-1.03296 -3.829,-1.53953 -6.2807,-1.53953 l -0.1816,0 c -1.8028,0.0201 -3.4653,0.32346 -4.944,0.89106 -1.5388,0.60837 -2.8356,1.47807 -3.9104,2.59387 -1.0332,1.13322 -1.8434,2.49185 -2.3903,4.07237 -0.5473,1.57897 -0.83,3.30139 -0.83,5.14477 0,3.93047 1.1145,7.0102 3.3421,9.30003 2.1078,2.16813 5.0239,3.30162 8.7326,3.42322 0.2028,0.0201 0.4244,0.0201 0.6475,0.0201 1.7433,0 3.3029,-0.2223 4.6599,-0.68952 1.3575,-0.46553 2.4725,-1.03206 3.364,-1.72148 0.8902,-0.70839 1.5587,-1.43792 2.0045,-2.18734 0.4457,-0.75029 0.6685,-1.41881 0.6685,-1.96612 0,-0.62819 -0.2003,-1.13389 -0.6071,-1.47872"
         style="fill:#2164f3;fill-opacity:1;fill-rule:evenodd;stroke:none"
         id="path4201"
         inkscape:connector-curvature="0" />
      <path
         d="m 1599.514,394.80481 c 0.9942,-1.07351 2.2708,-1.60101 3.8286,-1.60101 l 0.023,0 c 1.6189,0 2.9365,0.5275 3.9287,1.58096 1.0155,1.05302 1.5807,2.65293 1.7434,4.80082 l -11.3461,0 c 0.222,-2.10779 0.8311,-3.70704 1.8233,-4.78077 m 13.0478,10.91951 c -0.6066,0 -1.0541,0.14256 -1.3778,0.40543 -0.7692,0.72955 -1.4177,1.31611 -1.9042,1.742 -0.4849,0.40521 -1.0123,0.81 -1.6,1.19578 -0.5882,0.36554 -1.1757,0.64761 -1.8025,0.81114 -0.6088,0.18179 -1.2976,0.2626 -2.0464,0.2626 -0.1624,0 -0.3245,0 -0.4662,-0.0197 -0.9321,-0.061 -1.8046,-0.32543 -2.5927,-0.81018 -0.9117,-0.54845 -1.6625,-1.35795 -2.2083,-2.41123 -0.5681,-1.09465 -0.853,-2.34995 -0.873,-3.76851 l 12.2375,0 c 1.6207,0 2.8983,-0.24304 3.8087,-0.68857 0.8912,-0.48718 1.337,-1.49943 1.337,-3.06011 0,-1.69995 -0.4251,-3.36243 -1.2954,-5.00375 -0.8718,-1.61997 -2.1889,-2.95832 -3.9311,-3.99085 -1.7427,-1.03296 -3.8483,-1.53953 -6.28,-1.53953 l -0.2027,0 c -1.8046,0.0201 -3.4442,0.32346 -4.9436,0.89106 -1.54,0.60837 -2.8367,1.47807 -3.8906,2.59387 -1.0533,1.13322 -1.8643,2.49185 -2.4109,4.07237 -0.5476,1.57897 -0.8315,3.30139 -0.8315,5.14477 0,3.93047 1.136,7.0102 3.3633,9.30003 2.1078,2.16813 5.0045,3.30162 8.7133,3.42322 0.2227,0.0201 0.4251,0.0201 0.6473,0.0201 1.7634,0 3.3025,-0.2223 4.6601,-0.68952 1.3569,-0.46553 2.4729,-1.03206 3.3639,-1.72148 0.9112,-0.70839 1.5591,-1.43792 2.0046,-2.18734 0.4465,-0.75029 0.6684,-1.41881 0.6684,-1.96612 0,-0.62819 -0.2027,-1.13389 -0.5865,-1.47872 -0.4057,-0.34285 -0.9312,-0.52662 -1.5607,-0.52662"
         style="fill:#2164f3;fill-opacity:1;fill-rule:evenodd;stroke:none"
         id="path4203"
         inkscape:connector-curvature="0" />
      <path
         d="m 1529.4354,410.14127 0,-14.91186 c 0.4256,0.0407 0.8303,0.0619 1.2568,0.0619 2.0254,0 3.9289,-0.54843 5.5495,-1.51882 l 0,16.36877 c 0,1.39787 -0.3229,2.43126 -0.9513,3.11965 -0.6277,0.68858 -1.4588,1.03318 -2.4719,1.03318 -0.9922,0 -1.7815,-0.3446 -2.4319,-1.05349 -0.6266,-0.68815 -0.9512,-1.72125 -0.9512,-3.09934"
         style="fill:#2164f3;fill-opacity:1;fill-rule:evenodd;stroke:none"
         id="path4205"
         inkscape:connector-curvature="0" />
      <path
         d="m 1582.0093,405.98807 c -0.5466,1.17487 -1.2759,2.04541 -2.1882,2.61262 -0.8904,0.56755 -1.9042,0.85072 -2.9784,0.85072 l -0.019,0 c -1.0942,0 -2.0879,-0.30324 -2.9986,-0.89041 -0.9318,-0.60765 -1.6405,-1.49987 -2.1679,-2.67407 -0.5264,-1.19492 -0.7899,-2.63354 -0.7899,-4.33612 0,-1.60145 0.2423,-3.01824 0.7291,-4.21427 0.5065,-1.21496 1.1951,-2.1479 2.1064,-2.79658 0.8922,-0.66676 1.9252,-0.97126 3.0602,-0.97126 l 0.08,0 c 1.0741,0 2.0672,0.32456 2.9593,0.95298 0.9313,0.62775 1.6606,1.53887 2.2072,2.73488 0.5268,1.19491 0.8111,2.63288 0.8111,4.29425 0,1.78257 -0.2843,3.26239 -0.8111,4.43726 m 6.2807,-25.48722 c -0.5258,-0.60814 -1.2551,-0.91111 -2.1676,-0.91111 -0.9518,0 -1.6832,0.32367 -2.188,0.99219 -0.5274,0.64825 -0.7684,1.62151 -0.7684,2.89817 l 0,9.23719 c -1.1767,-1.2965 -2.3912,-2.22788 -3.6276,-2.8563 -0.7904,-0.38561 -1.6818,-0.66852 -2.6956,-0.81042 -0.5867,-0.0811 -1.1941,-0.12185 -1.8637,-0.12185 -3.0994,0 -5.632,1.09489 -7.5364,3.28222 -1.9033,2.18822 -2.8556,5.22675 -2.8556,9.13826 0,1.84316 0.2428,3.5647 0.7077,5.1461 0.4872,1.57983 1.1959,2.95611 2.1278,4.13097 0.9324,1.17602 2.0462,2.06684 3.3224,2.71729 1.2767,0.62658 2.6537,0.95055 4.1541,0.95055 0.6676,0 1.3161,-0.0608 1.9437,-0.18202 0.4056,-0.0608 0.7903,-0.16259 1.175,-0.28447 0.953,-0.3239 1.8443,-0.7897 2.6547,-1.37517 0.8303,-0.60947 1.6414,-1.39891 2.4935,-2.3513 l 0,0.60776 c 0,1.15482 0.282,2.0256 0.8293,2.6523 0.5469,0.60893 1.276,0.9329 2.1271,0.9329 0.8308,0 1.5599,-0.30321 2.1068,-0.89152 0.5473,-0.60835 0.8117,-1.49919 0.8117,-2.69368 l 0,-27.55338 c 0,-1.15481 -0.2455,-2.04698 -0.7509,-2.65468"
         style="fill:#2164f3;fill-opacity:1;fill-rule:evenodd;stroke:none"
         id="path4207"
         inkscape:connector-curvature="0" />
      <path
         d="m 1546.2319,392.33279 0,0.76944 c 1.1131,-1.45867 2.3098,-2.51103 3.605,-3.19938 1.3162,-0.66962 2.8173,-1.01401 4.5188,-1.01401 1.64,0 3.1187,0.36379 4.4154,1.07395 1.2978,0.70928 2.2491,1.72154 2.8987,3.0383 0.4252,0.77208 0.6876,1.5999 0.8093,2.49206 0.1209,0.87124 0.1828,2.00601 0.1828,3.38293 l 0,11.61008 c 0,1.25568 -0.3045,2.20695 -0.8703,2.83664 -0.5688,0.64734 -1.3179,0.97131 -2.2301,0.97131 -0.9314,0 -1.6808,-0.32397 -2.268,-0.99249 -0.5883,-0.6493 -0.8721,-1.60048 -0.8721,-2.81546 l 0,-10.39335 c 0,-2.06769 -0.2831,-3.64667 -0.8505,-4.74156 -0.5683,-1.09223 -1.7231,-1.64132 -3.4239,-1.64132 -1.114,0 -2.1274,0.34462 -3.0397,0.99374 -0.9119,0.6683 -1.6003,1.57986 -2.0251,2.75473 -0.3039,0.93116 -0.4465,2.65379 -0.4465,5.2274 l 0,7.80036 c 0,1.27505 -0.3029,2.20695 -0.8904,2.8574 -0.5885,0.62658 -1.3369,0.95055 -2.2699,0.95055 -0.9116,0 -1.6416,-0.32397 -2.2281,-0.99249 -0.5885,-0.6493 -0.8721,-1.60048 -0.8721,-2.81546 l 0,-18.05223 c 0,-1.19536 0.2646,-2.08576 0.7901,-2.65314 0.5068,-0.58832 1.2168,-0.89195 2.129,-0.89195 0.5449,0 1.0331,0.12185 1.4778,0.3845 0.4458,0.26375 0.8095,0.64847 1.0739,1.17596 0.2638,0.52552 0.3859,1.15393 0.3859,1.88349"
         style="fill:#2164f3;fill-opacity:1;fill-rule:evenodd;stroke:none"
         id="path4209"
         inkscape:connector-curvature="0" />
      <path
         d="m 1529.4763,374.40243 c 4.2136,-1.51882 9.0154,-1.43707 12.6228,1.68143 0.6677,0.62841 1.4371,1.41879 1.7401,2.34995 0.3664,1.17575 -1.2754,-0.12008 -1.4979,-0.28269 -1.176,-0.77032 -2.3517,-1.41724 -3.6667,-1.86367 -7.0911,-2.18711 -13.7973,1.76164 -17.9716,7.90126 -1.7424,2.71375 -2.8759,5.57115 -3.8079,8.71235 -0.1018,0.34395 -0.1835,0.78948 -0.3656,1.09333 -0.1828,0.34462 -0.08,-0.93315 -0.08,-0.97215 0.1411,-1.29693 0.4046,-2.55399 0.7293,-3.80884 1.9245,-6.68716 6.1788,-12.25742 12.2975,-14.81097"
         style="fill:#2164f3;fill-opacity:1;fill-rule:evenodd;stroke:none"
         id="path4211"
         inkscape:connector-curvature="0" />
      <path
         d="m 1534.9657,390.99597 c -2.5319,1.29672 -5.6319,0.28447 -6.9072,-2.24903 -1.2977,-2.53261 -0.2853,-5.63306 2.2482,-6.90906 2.5327,-1.29516 5.6331,-0.28269 6.909,2.2497 1.296,2.53129 0.2829,5.63151 -2.25,6.90839"
         style="fill:#2164f3;fill-opacity:1;fill-rule:evenodd;stroke:none"
         id="path4213"
         inkscape:connector-curvature="0" />
      <path
         d="m 1551.7647,423.54144 c 0,0.89103 0.1954,1.55892 0.5839,2.00271 0.3883,0.44309 0.8783,0.66497 1.4681,0.66497 0.5859,0 1.0722,-0.22283 1.4622,-0.66808 0.3878,-0.44575 0.5815,-1.12528 0.5815,-2.03884 0,-0.86159 -0.1943,-1.51246 -0.5857,-1.95622 -0.3904,-0.44311 -0.8772,-0.665 -1.458,-0.665 -0.5898,0 -1.0798,0.22017 -1.4681,0.66086 -0.3885,0.44222 -0.5839,1.10807 -0.5839,1.9996 m -1.2119,0 c 0,-1.28942 0.3583,-2.24335 1.0759,-2.86427 0.5976,-0.51471 1.3269,-0.77274 2.188,-0.77274 0.9572,0 1.74,0.3138 2.3469,0.9398 0.6066,0.62658 0.9102,1.49368 0.9102,2.59959 0,0.89541 -0.1335,1.60033 -0.403,2.11263 -0.2688,0.51428 -0.6601,0.91314 -1.1735,1.19693 -0.5129,0.28288 -1.0731,0.42655 -1.6806,0.42655 -0.9741,0 -1.7616,-0.31398 -2.3625,-0.938 -0.6008,-0.62513 -0.9014,-1.52562 -0.9014,-2.70049"
         style="fill:#100f0d;fill-opacity:1;fill-rule:nonzero;stroke:none"
         id="path4215"
         inkscape:connector-curvature="0" />
      <path
         d="m 1558.3222,427.02216 0,-6.96083 1.0617,0 0,0.99068 c 0.5114,-0.76612 1.2509,-1.14758 2.2147,-1.14758 0.4215,0 0.807,0.076 1.1568,0.22609 0.3512,0.1503 0.6149,0.34877 0.7901,0.59364 0.1751,0.2441 0.297,0.53476 0.3682,0.87036 0.043,0.21939 0.064,0.60129 0.064,1.14723 l 0,4.28041 -1.18,0 0,-4.23342 c 0,-0.48078 -0.046,-0.84064 -0.1366,-1.07949 -0.092,-0.23844 -0.2545,-0.42674 -0.489,-0.5698 -0.2337,-0.14252 -0.5082,-0.21353 -0.8221,-0.21353 -0.5032,0 -0.9363,0.16025 -1.3011,0.47975 -0.3646,0.31812 -0.5475,0.92293 -0.5475,1.81515 l 0,3.80134 -1.18,0"
         style="fill:#100f0d;fill-opacity:1;fill-rule:nonzero;stroke:none"
         id="path4217"
         inkscape:connector-curvature="0" />
      <path
         d="m 1566.5439,422.87378 3.8865,0 c -0.054,-0.58658 -0.201,-1.02416 -0.4458,-1.31782 -0.374,-0.45481 -0.8629,-0.68203 -1.4603,-0.68203 -0.5424,0 -0.999,0.18135 -1.3672,0.54534 -0.3695,0.36201 -0.5733,0.84617 -0.6132,1.45451 m 3.8739,1.90596 1.2191,0.1503 c -0.1919,0.71344 -0.5488,1.26671 -1.068,1.65893 -0.5199,0.39395 -1.1852,0.5901 -1.9928,0.5901 -1.0175,0 -1.8252,-0.31312 -2.4209,-0.94066 -0.5975,-0.62688 -0.8957,-1.50626 -0.8957,-2.63792 0,-1.17066 0.3022,-2.07957 0.9039,-2.72656 0.6036,-0.64648 1.3855,-0.9695 2.3478,-0.9695 0.9294,0 1.6913,0.31647 2.2805,0.94969 0.59,0.63434 0.8847,1.52546 0.8847,2.6745 0,0.0703 0,0.17456 -0.011,0.31484 l -5.1908,0 c 0.044,0.76423 0.2606,1.34942 0.6495,1.75508 0.388,0.40721 0.8727,0.61058 1.4545,0.61058 0.432,0 0.8009,-0.11411 1.1072,-0.34023 0.3062,-0.2281 0.5485,-0.59095 0.7277,-1.08915"
         style="fill:#100f0d;fill-opacity:1;fill-rule:nonzero;stroke:none"
         id="path4219"
         inkscape:connector-curvature="0" />
      <path
         d="m 1576.1076,424.94301 1.1659,-0.18332 c 0.066,0.46823 0.2477,0.82697 0.5473,1.07547 0.2977,0.24987 0.717,0.37396 1.2536,0.37396 0.5439,0 0.9445,-0.11016 1.2066,-0.33146 0.2628,-0.22008 0.3939,-0.47939 0.3939,-0.77671 0,-0.26595 -0.1161,-0.47568 -0.3481,-0.62898 -0.1609,-0.10519 -0.563,-0.2374 -1.2048,-0.39913 -0.8644,-0.21853 -1.4664,-0.40806 -1.7993,-0.56755 -0.3348,-0.15863 -0.5875,-0.37939 -0.7594,-0.66257 -0.1734,-0.28008 -0.2606,-0.59226 -0.2606,-0.93336 0,-0.30916 0.071,-0.59803 0.2137,-0.86157 0.1419,-0.26398 0.3347,-0.48408 0.5791,-0.65861 0.1838,-0.13505 0.434,-0.24945 0.7519,-0.34464 0.3164,-0.0932 0.6554,-0.14011 1.0174,-0.14011 0.5473,0 1.0273,0.0785 1.4388,0.23601 0.4139,0.1569 0.7176,0.36992 0.9147,0.6394 0.197,0.26795 0.3327,0.62739 0.4061,1.07642 l -1.1529,0.15776 c -0.053,-0.35693 -0.204,-0.63727 -0.4549,-0.83841 -0.2521,-0.20056 -0.6067,-0.30168 -1.065,-0.30168 -0.5424,0 -0.929,0.0904 -1.1608,0.26975 -0.2313,0.17799 -0.348,0.38885 -0.348,0.62839 0,0.15338 0.048,0.29067 0.1443,0.41246 0.098,0.12755 0.248,0.23248 0.452,0.31443 0.1189,0.0445 0.4661,0.14518 1.0434,0.3021 0.834,0.22275 1.417,0.40652 1.7469,0.54844 0.3296,0.14082 0.588,0.34704 0.7766,0.61764 0.1874,0.27277 0.2803,0.60698 0.2803,1.01023 0,0.39249 -0.1141,0.76353 -0.3428,1.11015 -0.2293,0.34808 -0.5607,0.61557 -0.9929,0.80709 -0.4329,0.19013 -0.9223,0.28446 -1.4681,0.28446 -0.9043,0 -1.5937,-0.18797 -2.0685,-0.56427 -0.4734,-0.37571 -0.7763,-0.93234 -0.9064,-1.67179"
         style="fill:#100f0d;fill-opacity:1;fill-rule:nonzero;stroke:none"
         id="path4221"
         inkscape:connector-curvature="0" />
      <path
         d="m 1584.047,422.87378 3.8864,0 c -0.052,-0.58658 -0.2007,-1.02416 -0.4466,-1.31782 -0.3753,-0.45481 -0.8617,-0.68203 -1.462,-0.68203 -0.5411,0 -0.9962,0.18135 -1.3661,0.54534 -0.3678,0.36201 -0.5723,0.84617 -0.6117,1.45451 m 3.873,1.90596 1.2196,0.1503 c -0.193,0.71344 -0.5493,1.26671 -1.0692,1.65893 -0.5192,0.39395 -1.1834,0.5901 -1.9927,0.5901 -1.0173,0 -1.8251,-0.31312 -2.4203,-0.94066 -0.5969,-0.62688 -0.8954,-1.50626 -0.8954,-2.63792 0,-1.17066 0.3021,-2.07957 0.9045,-2.72656 0.6033,-0.64648 1.3846,-0.9695 2.3458,-0.9695 0.9315,0 1.6918,0.31647 2.2816,0.94969 0.5901,0.63434 0.8841,1.52546 0.8841,2.6745 0,0.0703 0,0.17456 0,0.31484 l -5.1909,0 c 0.042,0.76423 0.2595,1.34942 0.6484,1.75508 0.3881,0.40721 0.8739,0.61058 1.4554,0.61058 0.4315,0 0.8012,-0.11411 1.1067,-0.34023 0.3064,-0.2281 0.5474,-0.59095 0.7275,-1.08915"
         style="fill:#100f0d;fill-opacity:1;fill-rule:nonzero;stroke:none"
         id="path4223"
         inkscape:connector-curvature="0" />
      <path
         d="m 1594.9293,423.52862 c -0.429,0.17456 -1.0706,0.32413 -1.9269,0.44489 -0.485,0.0709 -0.8269,0.14873 -1.029,0.23645 -0.201,0.0883 -0.3563,0.21501 -0.4647,0.38379 -0.1093,0.16837 -0.1644,0.35565 -0.1644,0.55877 0,0.31555 0.119,0.57866 0.357,0.78731 0.2388,0.21026 0.5868,0.31467 1.0467,0.31467 0.453,0 0.858,-0.0994 1.2114,-0.29815 0.3532,-0.19875 0.6136,-0.46979 0.7807,-0.81612 0.1257,-0.26528 0.1892,-0.65905 0.1892,-1.17902 l 0,-0.43259 z m 0.099,2.63549 c -0.4372,0.37064 -0.8571,0.63263 -1.2618,0.78713 -0.4039,0.15113 -0.8378,0.22783 -1.3008,0.22783 -0.7639,0 -1.3522,-0.18686 -1.7636,-0.56075 -0.4108,-0.37416 -0.6159,-0.85142 -0.6159,-1.43119 0,-0.34057 0.077,-0.65261 0.2339,-0.93396 0.1542,-0.28206 0.3589,-0.50661 0.6083,-0.6785 0.251,-0.1712 0.5348,-0.29963 0.8485,-0.38672 0.2314,-0.0621 0.5819,-0.12007 1.0491,-0.17732 0.9524,-0.11256 1.6539,-0.24882 2.1038,-0.40632 0,-0.16201 0.011,-0.26468 0.011,-0.30736 0,-0.48123 -0.1108,-0.82018 -0.3353,-1.01737 -0.2999,-0.26527 -0.7486,-0.3986 -1.3428,-0.3986 -0.5549,0 -0.9649,0.0976 -1.2284,0.29024 -0.2647,0.19537 -0.4599,0.53915 -0.5868,1.0338 l -1.1533,-0.15735 c 0.1051,-0.49422 0.2772,-0.89212 0.5174,-1.19595 0.2406,-0.30383 0.5877,-0.5377 1.0433,-0.70097 0.453,-0.16369 0.9795,-0.24632 1.5797,-0.24632 0.5934,0 1.0765,0.07 1.446,0.21027 0.3734,0.13943 0.6461,0.31656 0.8197,0.52684 0.1759,0.21189 0.2989,0.47966 0.3672,0.80354 0.04,0.201 0.06,0.56403 0.06,1.08734 l 0,1.57288 c 0,1.09679 0.025,1.79001 0.075,2.08155 0.049,0.28929 0.1486,0.56919 0.2973,0.83531 l -1.232,0 c -0.1231,-0.2448 -0.2009,-0.5308 -0.236,-0.85805"
         style="fill:#100f0d;fill-opacity:1;fill-rule:nonzero;stroke:none"
         id="path4225"
         inkscape:connector-curvature="0" />
      <path
         d="m 1597.8026,427.02216 0,-6.96083 1.064,0 0,1.05737 c 0.2695,-0.49577 0.5198,-0.82136 0.75,-0.97897 0.2287,-0.15681 0.4818,-0.2353 0.7562,-0.2353 0.3975,0 0.8019,0.12694 1.2133,0.3799 l -0.4054,1.09465 c -0.2914,-0.17006 -0.5794,-0.25621 -0.8653,-0.25621 -0.2588,0 -0.4908,0.0788 -0.6959,0.2329 -0.2045,0.15441 -0.3507,0.37052 -0.4382,0.64621 -0.1312,0.41753 -0.197,0.87758 -0.197,1.37584 l 0,3.64444 -1.1817,0"
         style="fill:#100f0d;fill-opacity:1;fill-rule:nonzero;stroke:none"
         id="path4227"
         inkscape:connector-curvature="0" />
      <path
         d="m 1606.6952,424.47197 1.1583,0.15173 c -0.1251,0.79944 -0.4488,1.42457 -0.9715,1.87756 -0.5216,0.45058 -1.1638,0.67781 -1.9245,0.67781 -0.953,0 -1.718,-0.3114 -2.2973,-0.93491 -0.5772,-0.62091 -0.8679,-1.51441 -0.8679,-2.67517 0,-0.75139 0.1227,-1.41132 0.3738,-1.97447 0.248,-0.56368 0.6279,-0.98586 1.1368,-1.26612 0.509,-0.28386 1.0631,-0.42397 1.6606,-0.42397 0.7562,0 1.3762,0.19019 1.8541,0.5733 0.482,0.3832 0.7907,0.92545 0.9248,1.62814 l -1.1464,0.17782 c -0.1086,-0.46797 -0.3014,-0.81966 -0.581,-1.05567 -0.277,-0.23593 -0.6118,-0.35409 -1.0046,-0.35409 -0.5951,0 -1.0766,0.2131 -1.4489,0.63968 -0.3716,0.42543 -0.5566,1.09999 -0.5566,2.02206 0,0.93473 0.1786,1.61386 0.5378,2.03774 0.3578,0.42485 0.825,0.63571 1.4016,0.63571 0.4625,0 0.8503,-0.14236 1.1607,-0.42723 0.3099,-0.28206 0.505,-0.72008 0.5902,-1.30992"
         style="fill:#100f0d;fill-opacity:1;fill-rule:nonzero;stroke:none"
         id="path4229"
         inkscape:connector-curvature="0" />
      <path
         d="m 1608.73,427.02216 0,-9.60863 1.1789,0 0,3.44808 c 0.5491,-0.63854 1.2444,-0.95718 2.0853,-0.95718 0.5151,0 0.9633,0.10111 1.3421,0.30451 0.3805,0.20269 0.6518,0.48416 0.8161,0.84307 0.1637,0.35694 0.2453,0.87853 0.2453,1.55978 l 0,4.41037 -1.179,0 0,-4.41037 c 0,-0.59098 -0.1276,-1.01908 -0.3841,-1.28858 -0.2546,-0.26853 -0.6157,-0.40325 -1.0831,-0.40325 -0.3505,0 -0.6784,0.0904 -0.9873,0.27303 -0.3085,0.18092 -0.5275,0.42614 -0.6581,0.73755 -0.1322,0.30907 -0.1972,0.73702 -0.1972,1.28391 l 0,3.80771 -1.1789,0"
         style="fill:#100f0d;fill-opacity:1;fill-rule:nonzero;stroke:none"
         id="path4231"
         inkscape:connector-curvature="0" />
      <path
         d="m 1616.394,427.02149 1.3436,0 0,-1.34469 -1.3436,0 0,1.34469 z"
         style="fill:#100f0d;fill-opacity:1;fill-rule:nonzero;stroke:none"
         id="path4233"
         inkscape:connector-curvature="0" />
      <path
         d="m 1627.6933,423.52862 c -0.427,0.17456 -1.0715,0.32413 -1.9269,0.44489 -0.4847,0.0709 -0.8271,0.14873 -1.0289,0.23645 -0.2003,0.0883 -0.3561,0.21501 -0.4641,0.38379 -0.1115,0.16837 -0.166,0.35565 -0.166,0.55877 0,0.31555 0.1201,0.57866 0.3579,0.78731 0.238,0.21026 0.5859,0.31467 1.0449,0.31467 0.4548,0 0.8587,-0.0994 1.2127,-0.29815 0.3544,-0.19875 0.6141,-0.46979 0.7803,-0.81612 0.1274,-0.26528 0.1901,-0.65905 0.1901,-1.17902 l 0,-0.43259 z m 0.099,2.63549 c -0.4371,0.37064 -0.858,0.63263 -1.2608,0.78713 -0.405,0.15113 -0.8388,0.22783 -1.302,0.22783 -0.7655,0 -1.3509,-0.18686 -1.7632,-0.56075 -0.4098,-0.37416 -0.6158,-0.85142 -0.6158,-1.43119 0,-0.34057 0.078,-0.65261 0.2318,-0.93396 0.1551,-0.28206 0.3596,-0.50661 0.6108,-0.6785 0.2506,-0.1712 0.5336,-0.29963 0.8479,-0.38672 0.2319,-0.0621 0.5826,-0.12007 1.0499,-0.17732 0.9514,-0.11256 1.653,-0.24882 2.1029,-0.40632 0,-0.16201 0.011,-0.26468 0.011,-0.30736 0,-0.48123 -0.1119,-0.82018 -0.3347,-1.01737 -0.3016,-0.26527 -0.7487,-0.3986 -1.3418,-0.3986 -0.5564,0 -0.9665,0.0976 -1.23,0.29024 -0.2637,0.19537 -0.4607,0.53915 -0.5866,1.0338 l -1.1552,-0.15735 c 0.1072,-0.49422 0.2796,-0.89212 0.5192,-1.19595 0.2421,-0.30383 0.5875,-0.5377 1.0426,-0.70097 0.4554,-0.16369 0.9812,-0.24632 1.5792,-0.24632 0.5936,0 1.0765,0.07 1.4472,0.21027 0.3732,0.13943 0.646,0.31656 0.8196,0.52684 0.1752,0.21189 0.2982,0.47966 0.368,0.80354 0.04,0.201 0.058,0.56403 0.058,1.08734 l 0,1.57288 c 0,1.09679 0.025,1.79001 0.076,2.08155 0.05,0.28929 0.1505,0.56919 0.2981,0.83531 l -1.2317,0 c -0.1219,-0.2448 -0.2021,-0.5308 -0.2362,-0.85805"
         style="fill:#100f0d;fill-opacity:1;fill-rule:nonzero;stroke:none"
         id="path4235"
         inkscape:connector-curvature="0" />
      <path
         d="m 1630.5549,427.02216 1.1791,0 0,-9.60863 -1.1791,0 0,9.60863 z"
         style="fill:#100f0d;fill-opacity:1;fill-rule:nonzero;stroke:none"
         id="path4237"
         inkscape:connector-curvature="0" />
      <path
         d="m 1633.4022,427.02216 1.1795,0 0,-9.60863 -1.1795,0 0,9.60863 z"
         style="fill:#100f0d;fill-opacity:1;fill-rule:nonzero;stroke:none"
         id="path4239"
         inkscape:connector-curvature="0" />
      <path
         d="m 1639.8637,417.41353 1.1802,0 0,1.37006 -1.1802,0 0,-1.37006 z m -1.4935,12.30911 0.2237,-1.00298 c 0.2353,0.0608 0.4206,0.0908 0.5546,0.0908 0.2424,0 0.4226,-0.08 0.5379,-0.23858 0.1201,-0.15958 0.1773,-0.55843 0.1773,-1.19675 l 0,-7.3138 1.1802,0 0,7.34025 c 0,0.85716 -0.11,1.45226 -0.3339,1.78966 -0.2844,0.43604 -0.7559,0.65484 -1.4167,0.65484 -0.3189,0 -0.626,-0.0408 -0.9231,-0.12344"
         style="fill:#100f0d;fill-opacity:1;fill-rule:nonzero;stroke:none"
         id="path4241"
         inkscape:connector-curvature="0" />
      <path
         d="m 1643.4914,423.54144 c 0,0.89103 0.1955,1.55892 0.5827,2.00271 0.3897,0.44309 0.8795,0.66497 1.4696,0.66497 0.5841,0 1.0724,-0.22283 1.4607,-0.66808 0.3878,-0.44575 0.5836,-1.12528 0.5836,-2.03884 0,-0.86159 -0.1958,-1.51246 -0.5865,-1.95622 -0.3906,-0.44311 -0.8772,-0.665 -1.4578,-0.665 -0.5901,0 -1.0799,0.22017 -1.4696,0.66086 -0.3872,0.44222 -0.5827,1.10807 -0.5827,1.9996 m -1.2125,0 c 0,-1.28942 0.3601,-2.24335 1.075,-2.86427 0.5982,-0.51471 1.3287,-0.77274 2.1898,-0.77274 0.9571,0 1.7391,0.3138 2.3458,0.9398 0.6086,0.62658 0.9113,1.49368 0.9113,2.59959 0,0.89541 -0.1344,1.60033 -0.4039,2.11263 -0.2676,0.51428 -0.659,0.91314 -1.1713,1.19693 -0.5151,0.28288 -1.0753,0.42655 -1.6819,0.42655 -0.9757,0 -1.7632,-0.31398 -2.3625,-0.938 -0.6007,-0.62513 -0.9023,-1.52562 -0.9023,-2.70049"
         style="fill:#100f0d;fill-opacity:1;fill-rule:nonzero;stroke:none"
         id="path4243"
         inkscape:connector-curvature="0" />
      <path
         d="m 1651.1241,423.48964 c 0,0.83461 0.112,1.43798 0.3404,1.80749 0.3715,0.60808 0.875,0.91199 1.5074,0.91199 0.5149,0 0.9622,-0.22342 1.3368,-0.67245 0.3763,-0.44733 0.5634,-1.11342 0.5634,-2.001 0,-0.90977 -0.1796,-1.57984 -0.5394,-2.01235 -0.3612,-0.43301 -0.7979,-0.64939 -1.3084,-0.64939 -0.515,0 -0.9605,0.22369 -1.3368,0.67205 -0.3763,0.44815 -0.5634,1.09463 -0.5634,1.94366 m 0.013,3.53252 -1.094,0 0,-9.60863 1.1792,0 0,3.42803 c 0.4971,-0.62401 1.1341,-0.93713 1.9075,-0.93713 0.429,0 0.8323,0.0861 1.2162,0.25803 0.3818,0.17344 0.6955,0.4165 0.9436,0.72936 0.2471,0.31106 0.4397,0.68831 0.5809,1.12899 0.138,0.44406 0.2093,0.91288 0.2093,1.41528 0,1.19338 -0.2962,2.11556 -0.886,2.76659 -0.5894,0.65095 -1.2971,0.97639 -2.1221,0.97639 -0.8214,0 -1.4655,-0.34196 -1.9346,-1.02898 l 0,0.87207"
         style="fill:#100f0d;fill-opacity:1;fill-rule:nonzero;stroke:none"
         id="path4245"
         inkscape:connector-curvature="0" />
      <path
         d="m 1656.9081,424.94301 1.1667,-0.18332 c 0.065,0.46823 0.247,0.82697 0.5465,1.07547 0.2991,0.24987 0.7187,0.37396 1.2561,0.37396 0.5407,0 0.944,-0.11016 1.206,-0.33146 0.2619,-0.22008 0.3928,-0.47939 0.3928,-0.77671 0,-0.26595 -0.1159,-0.47568 -0.3481,-0.62898 -0.1613,-0.10519 -0.5627,-0.2374 -1.2055,-0.39913 -0.8646,-0.21853 -1.4646,-0.40806 -1.7984,-0.56755 -0.3354,-0.15863 -0.5885,-0.37939 -0.7604,-0.66257 -0.1725,-0.28008 -0.2596,-0.59226 -0.2596,-0.93336 0,-0.30916 0.072,-0.59803 0.2118,-0.86157 0.143,-0.26398 0.3373,-0.48408 0.581,-0.65861 0.1838,-0.13505 0.4347,-0.24945 0.7505,-0.34464 0.3162,-0.0932 0.6574,-0.14011 1.0186,-0.14011 0.5469,0 1.0257,0.0785 1.4398,0.23601 0.4131,0.1569 0.7169,0.36992 0.9121,0.6394 0.1976,0.26795 0.3338,0.62739 0.409,1.07642 l -1.155,0.15776 c -0.053,-0.35693 -0.2045,-0.63727 -0.4541,-0.83841 -0.251,-0.20056 -0.6067,-0.30168 -1.0656,-0.30168 -0.5434,0 -0.929,0.0904 -1.1593,0.26975 -0.2319,0.17799 -0.3488,0.38885 -0.3488,0.62839 0,0.15338 0.047,0.29067 0.1455,0.41246 0.095,0.12755 0.2469,0.23248 0.4503,0.31443 0.1201,0.0445 0.4668,0.14518 1.0433,0.3021 0.8354,0.22275 1.4162,0.40652 1.7465,0.54844 0.3289,0.14082 0.5892,0.34704 0.7771,0.61764 0.1869,0.27277 0.2821,0.60698 0.2821,1.01023 0,0.39249 -0.1161,0.76353 -0.3446,1.11015 -0.2299,0.34808 -0.5619,0.61557 -0.9939,0.80709 -0.4315,0.19013 -0.9215,0.28446 -1.4672,0.28446 -0.9048,0 -1.593,-0.18797 -2.0663,-0.56427 -0.4766,-0.37571 -0.7778,-0.93234 -0.9089,-1.67179"
         style="fill:#100f0d;fill-opacity:1;fill-rule:nonzero;stroke:none"
         id="path4247"
         inkscape:connector-curvature="0" />
      <path
         d="m 1664.2922,427.02149 1.3416,0 0,-1.34469 -1.3416,0 0,1.34469 z"
         style="fill:#100f0d;fill-opacity:1;fill-rule:nonzero;stroke:none"
         id="path4249"
         inkscape:connector-curvature="0" />
      <rect
         y="389.65646"
         x="2306.7146"
         height="29.672691"
         width="85.61087"
         id="rect4284"
         style="opacity:1;fill:#2c59db;fill-opacity:1;stroke:#2c59db;stroke-width:2.71929789;stroke-linejoin:round;stroke-miterlimit:4;stroke-dasharray:none;stroke-opacity:1" />
      <rect
         y="389.65646"
         x="1776.2292"
         height="29.672691"
         width="271.19458"
         id="rect4280"
         style="opacity:1;fill:#ffffff;fill-opacity:1;stroke:#ababab;stroke-width:2.71929789;stroke-linejoin:round;stroke-miterlimit:4;stroke-dasharray:none;stroke-opacity:1" />
      <rect
         y="373.44"
         x="1779.2482"
         height="10.264675"
         width="31.915407"
         id="rect4286"
         style="opacity:1;fill:#ff6600;fill-opacity:1;stroke:none;stroke-width:2.5;stroke-linejoin:round;stroke-miterlimit:4;stroke-dasharray:none;stroke-opacity:1" />
      <rect
         style="opacity:1;fill:#bcbace;fill-opacity:1;stroke:none;stroke-width:2.5;stroke-linejoin:round;stroke-miterlimit:4;stroke-dasharray:none;stroke-opacity:1"
         id="rect4290"
         width="159.23195"
         height="10.264675"
         x="1779.2482"
         y="423.3327" />
      <rect
         style="opacity:1;fill:#ffffff;fill-opacity:1;stroke:#ababab;stroke-width:2.71929789;stroke-linejoin:round;stroke-miterlimit:4;stroke-dasharray:none;stroke-opacity:1"
         id="rect4282"
         width="250.49272"
         height="29.672691"
         x="2051.3916"
         y="389.65646" />
      <rect
         style="opacity:1;fill:#ff6600;fill-opacity:1;stroke:none;stroke-width:2.5;stroke-linejoin:round;stroke-miterlimit:4;stroke-dasharray:none;stroke-opacity:1"
         id="rect4288"
         width="39.419842"
         height="10.264675"
         x="2053.8069"
         y="373.44" />
      <rect
         y="423.3327"
         x="2053.8069"
         height="10.264675"
         width="84.7052"
         id="rect4294"
         style="opacity:1;fill:#bcbace;fill-opacity:1;stroke:none;stroke-width:2.5;stroke-linejoin:round;stroke-miterlimit:4;stroke-dasharray:none;stroke-opacity:1" />
      <rect
         y="448.74387"
         x="1775.6254"
         height="110.7642"
         width="617.30408"
         id="rect4304"
         style="opacity:1;fill:#b71c1f;fill-opacity:1;stroke:none;stroke-width:2.5;stroke-linejoin:round;stroke-miterlimit:4;stroke-dasharray:none;stroke-opacity:1" />
      <rect
         style="opacity:1;fill:#b71c1f;fill-opacity:1;stroke:none;stroke-width:2.5;stroke-linejoin:round;stroke-miterlimit:4;stroke-dasharray:none;stroke-opacity:1"
         id="rect4306"
         width="617.30408"
         height="130.08595"
         x="1775.6254"
         y="583.30609" />
      <rect
         y="737.19006"
         x="1775.6254"
         height="130.08595"
         width="617.30408"
         id="rect4308"
         style="opacity:1;fill:#b71c1f;fill-opacity:1;stroke:none;stroke-width:2.5;stroke-linejoin:round;stroke-miterlimit:4;stroke-dasharray:none;stroke-opacity:1" />
      <rect
         style="opacity:1;fill:#388e3c;fill-opacity:1;stroke:none;stroke-width:2.5;stroke-linejoin:round;stroke-miterlimit:4;stroke-dasharray:none;stroke-opacity:1"
         id="rect4310"
         width="617.30408"
         height="102.62445"
         x="1775.6254"
         y="896.26105" />
      <rect
         y="488.52145"
         x="1520.4663"
         height="22.531862"
         width="111.95444"
         id="rect4328"
         style="opacity:1;fill:#f7f7f6;fill-opacity:1;stroke:#bcbcbc;stroke-width:2.71929789;stroke-linejoin:round;stroke-miterlimit:4;stroke-dasharray:none;stroke-opacity:1" />
      <rect
         y="470.78839"
         x="1515.9327"
         height="14.491315"
         width="87.883163"
         id="rect4332"
         style="opacity:0.5;fill:#130408;fill-opacity:1;stroke:none;stroke-width:2.5;stroke-linejoin:round;stroke-miterlimit:4;stroke-dasharray:none;stroke-opacity:1" />
      <rect
         style="opacity:0.5;fill:#130408;fill-opacity:1;stroke:none;stroke-width:2.5;stroke-linejoin:round;stroke-miterlimit:4;stroke-dasharray:none;stroke-opacity:1"
         id="rect4330"
         width="92.637772"
         height="14.491315"
         x="1515.9327"
         y="523.79358" />
      <rect
         y="540.50079"
         x="1515.9327"
         height="14.491315"
         width="92.637772"
         id="rect4334"
         style="opacity:0.5;fill:#676767;fill-opacity:1;stroke:none;stroke-width:2.5;stroke-linejoin:round;stroke-miterlimit:4;stroke-dasharray:none;stroke-opacity:1" />
      <rect
         style="opacity:0.5;fill:#676767;fill-opacity:1;stroke:none;stroke-width:2.5;stroke-linejoin:round;stroke-miterlimit:4;stroke-dasharray:none;stroke-opacity:1"
         id="rect4338"
         width="92.637772"
         height="14.491315"
         x="1515.9327"
         y="557.20795" />
      <rect
         y="607.32959"
         x="1515.9327"
         height="14.491315"
         width="92.637772"
         id="rect4340"
         style="opacity:0.5;fill:#676767;fill-opacity:1;stroke:none;stroke-width:2.5;stroke-linejoin:round;stroke-miterlimit:4;stroke-dasharray:none;stroke-opacity:1" />
      <rect
         style="opacity:0.5;fill:#676767;fill-opacity:1;stroke:none;stroke-width:2.5;stroke-linejoin:round;stroke-miterlimit:4;stroke-dasharray:none;stroke-opacity:1"
         id="rect4342"
         width="92.637772"
         height="14.491315"
         x="1515.9327"
         y="590.62238" />
      <rect
         style="opacity:0.5;fill:#676767;fill-opacity:1;stroke:none;stroke-width:2.5;stroke-linejoin:round;stroke-miterlimit:4;stroke-dasharray:none;stroke-opacity:1"
         id="rect4344"
         width="92.637772"
         height="14.491315"
         x="1515.9327"
         y="573.91516" />
      <rect
         y="634.10767"
         x="1515.9327"
         height="14.491315"
         width="92.637772"
         id="rect4346"
         style="opacity:0.5;fill:#130408;fill-opacity:1;stroke:none;stroke-width:2.5;stroke-linejoin:round;stroke-miterlimit:4;stroke-dasharray:none;stroke-opacity:1" />
      <rect
         style="opacity:0.5;fill:#676767;fill-opacity:1;stroke:none;stroke-width:2.5;stroke-linejoin:round;stroke-miterlimit:4;stroke-dasharray:none;stroke-opacity:1"
         id="rect4348"
         width="92.637772"
         height="14.491315"
         x="1515.9327"
         y="651.24261" />
      <rect
         y="668.37762"
         x="1515.9327"
         height="14.491315"
         width="92.637772"
         id="rect4350"
         style="opacity:0.5;fill:#676767;fill-opacity:1;stroke:none;stroke-width:2.5;stroke-linejoin:round;stroke-miterlimit:4;stroke-dasharray:none;stroke-opacity:1" />
      <rect
         style="opacity:0.5;fill:#676767;fill-opacity:1;stroke:none;stroke-width:2.5;stroke-linejoin:round;stroke-miterlimit:4;stroke-dasharray:none;stroke-opacity:1"
         id="rect4352"
         width="92.637772"
         height="14.491315"
         x="1515.9327"
         y="719.78259" />
      <rect
         y="702.64764"
         x="1515.9327"
         height="14.491315"
         width="92.637772"
         id="rect4354"
         style="opacity:0.5;fill:#676767;fill-opacity:1;stroke:none;stroke-width:2.5;stroke-linejoin:round;stroke-miterlimit:4;stroke-dasharray:none;stroke-opacity:1" />
      <rect
         y="685.5127"
         x="1515.9327"
         height="14.491315"
         width="92.637772"
         id="rect4356"
         style="opacity:0.5;fill:#676767;fill-opacity:1;stroke:none;stroke-width:2.5;stroke-linejoin:round;stroke-miterlimit:4;stroke-dasharray:none;stroke-opacity:1" />
      <rect
         y="736.9176"
         x="1515.9327"
         height="14.491315"
         width="92.637772"
         id="rect4358"
         style="opacity:0.5;fill:#676767;fill-opacity:1;stroke:none;stroke-width:2.5;stroke-linejoin:round;stroke-miterlimit:4;stroke-dasharray:none;stroke-opacity:1" />
      <rect
         style="opacity:0.5;fill:#130408;fill-opacity:1;stroke:none;stroke-width:2.5;stroke-linejoin:round;stroke-miterlimit:4;stroke-dasharray:none;stroke-opacity:1"
         id="rect4360"
         width="92.637772"
         height="14.491315"
         x="1515.9327"
         y="763.69568" />
      <rect
         y="780.83063"
         x="1515.9327"
         height="14.491315"
         width="92.637772"
         id="rect4362"
         style="opacity:0.5;fill:#676767;fill-opacity:1;stroke:none;stroke-width:2.5;stroke-linejoin:round;stroke-miterlimit:4;stroke-dasharray:none;stroke-opacity:1" />
      <rect
         style="opacity:0.5;fill:#676767;fill-opacity:1;stroke:none;stroke-width:2.5;stroke-linejoin:round;stroke-miterlimit:4;stroke-dasharray:none;stroke-opacity:1"
         id="rect4364"
         width="92.637772"
         height="14.491315"
         x="1515.9327"
         y="797.96564" />
      <rect
         y="849.37067"
         x="1515.9327"
         height="14.491315"
         width="92.637772"
         id="rect4366"
         style="opacity:0.5;fill:#676767;fill-opacity:1;stroke:none;stroke-width:2.5;stroke-linejoin:round;stroke-miterlimit:4;stroke-dasharray:none;stroke-opacity:1" />
      <rect
         style="opacity:0.5;fill:#676767;fill-opacity:1;stroke:none;stroke-width:2.5;stroke-linejoin:round;stroke-miterlimit:4;stroke-dasharray:none;stroke-opacity:1"
         id="rect4368"
         width="92.637772"
         height="14.491315"
         x="1515.9327"
         y="832.23566" />
      <rect
         style="opacity:0.5;fill:#676767;fill-opacity:1;stroke:none;stroke-width:2.5;stroke-linejoin:round;stroke-miterlimit:4;stroke-dasharray:none;stroke-opacity:1"
         id="rect4370"
         width="92.637772"
         height="14.491315"
         x="1515.9327"
         y="815.10071" />
      <rect
         style="opacity:0.5;fill:#ff7d20;fill-opacity:1;stroke:none;stroke-width:2.5;stroke-linejoin:round;stroke-miterlimit:4;stroke-dasharray:none;stroke-opacity:1"
         id="rect4372"
         width="92.637772"
         height="14.491315"
         x="1515.9327"
         y="866.50562" />
      <rect
         y="893.28369"
         x="1515.9327"
         height="14.491315"
         width="92.637772"
         id="rect4374"
         style="opacity:0.5;fill:#130408;fill-opacity:1;stroke:none;stroke-width:2.5;stroke-linejoin:round;stroke-miterlimit:4;stroke-dasharray:none;stroke-opacity:1" />
      <rect
         style="opacity:0.5;fill:#676767;fill-opacity:1;stroke:none;stroke-width:2.5;stroke-linejoin:round;stroke-miterlimit:4;stroke-dasharray:none;stroke-opacity:1"
         id="rect4376"
         width="92.637772"
         height="14.491315"
         x="1515.9327"
         y="910.4187" />
      <rect
         y="927.55371"
         x="1515.9327"
         height="14.491315"
         width="92.637772"
         id="rect4378"
         style="opacity:0.5;fill:#676767;fill-opacity:1;stroke:none;stroke-width:2.5;stroke-linejoin:round;stroke-miterlimit:4;stroke-dasharray:none;stroke-opacity:1" />
      <rect
         style="opacity:0.5;fill:#676767;fill-opacity:1;stroke:none;stroke-width:2.5;stroke-linejoin:round;stroke-miterlimit:4;stroke-dasharray:none;stroke-opacity:1"
         id="rect4380"
         width="92.637772"
         height="14.491315"
         x="1515.9327"
         y="978.95874" />
      <rect
         y="961.82373"
         x="1515.9327"
         height="14.491315"
         width="92.637772"
         id="rect4382"
         style="opacity:0.5;fill:#676767;fill-opacity:1;stroke:none;stroke-width:2.5;stroke-linejoin:round;stroke-miterlimit:4;stroke-dasharray:none;stroke-opacity:1" />
      <rect
         y="944.68878"
         x="1515.9327"
         height="14.491315"
         width="92.637772"
         id="rect4384"
         style="opacity:0.5;fill:#676767;fill-opacity:1;stroke:none;stroke-width:2.5;stroke-linejoin:round;stroke-miterlimit:4;stroke-dasharray:none;stroke-opacity:1" />
      <rect
         y="996.09357"
         x="1515.9327"
         height="14.491315"
         width="92.637772"
         id="rect4386"
         style="opacity:0.5;fill:#ff7d20;fill-opacity:1;stroke:none;stroke-width:2.5;stroke-linejoin:round;stroke-miterlimit:4;stroke-dasharray:none;stroke-opacity:1" />
      <text
         sodipodi:linespacing="125%"
         id="text4767"
         y="533.31976"
         x="2086.4106"
         style="font-style:normal;font-variant:normal;font-weight:500;font-stretch:normal;font-size:84.375px;line-height:125%;font-family:Ubuntu;-inkscape-font-specification:'Ubuntu Medium';text-align:center;letter-spacing:0px;word-spacing:0px;text-anchor:middle;opacity:0.98999999;fill:#ffffff;fill-opacity:1;stroke:none;stroke-width:1px;stroke-linecap:butt;stroke-linejoin:miter;stroke-opacity:1"
         xml:space="preserve"><tspan
           y="533.31976"
           x="2086.4106"
           id="tspan4769"
           sodipodi:role="line">AD</tspan></text>
      <text
         xml:space="preserve"
         style="font-style:normal;font-variant:normal;font-weight:500;font-stretch:normal;font-size:84.375px;line-height:125%;font-family:Ubuntu;-inkscape-font-specification:'Ubuntu Medium';text-align:center;letter-spacing:0px;word-spacing:0px;text-anchor:middle;opacity:0.98999999;fill:#ffffff;fill-opacity:1;stroke:none;stroke-width:1px;stroke-linecap:butt;stroke-linejoin:miter;stroke-opacity:1"
         x="2086.4106"
         y="677.54279"
         id="text4777"
         sodipodi:linespacing="125%"><tspan
           sodipodi:role="line"
           id="tspan4779"
           x="2086.4106"
           y="677.54279">AD</tspan></text>
      <text
         xml:space="preserve"
         style="font-style:normal;font-variant:normal;font-weight:500;font-stretch:normal;font-size:84.375px;line-height:125%;font-family:Ubuntu;-inkscape-font-specification:'Ubuntu Medium';text-align:center;letter-spacing:0px;word-spacing:0px;text-anchor:middle;opacity:0.98999999;fill:#ffffff;fill-opacity:1;stroke:none;stroke-width:1px;stroke-linecap:butt;stroke-linejoin:miter;stroke-opacity:1"
         x="2086.4106"
         y="831.42676"
         id="text4781"
         sodipodi:linespacing="125%"><tspan
           sodipodi:role="line"
           id="tspan4783"
           x="2086.4106"
           y="831.42676">AD</tspan></text>
      <text
         xml:space="preserve"
         style="font-style:normal;font-variant:normal;font-weight:500;font-stretch:normal;font-size:84.375px;line-height:125%;font-family:Ubuntu;-inkscape-font-specification:'Ubuntu Medium';text-align:center;letter-spacing:0px;word-spacing:0px;text-anchor:middle;opacity:0.98999999;fill:#ffffff;fill-opacity:1;stroke:none;stroke-width:1px;stroke-linecap:butt;stroke-linejoin:miter;stroke-opacity:1"
         x="2084.4192"
         y="975.7124"
         id="text4785"
         sodipodi:linespacing="125%"><tspan
           sodipodi:role="line"
           id="tspan4787"
           x="2084.4192"
           y="975.7124">$$$</tspan></text>
    </g>
    <g
       id="g4478"
       transform="matrix(0.96774194,0,0,0.96774194,-432.25809,269.43145)">
      <g
         transform="translate(-44.28516,189.29109)"
         id="g4427">
        <path
           inkscape:connector-curvature="0"
           style="color:#000000;font-style:normal;font-variant:normal;font-weight:normal;font-stretch:normal;font-size:medium;line-height:normal;font-family:sans-serif;text-indent:0;text-align:start;text-decoration:none;text-decoration-line:none;text-decoration-style:solid;text-decoration-color:#000000;letter-spacing:normal;word-spacing:normal;text-transform:none;direction:ltr;block-progression:tb;writing-mode:lr-tb;baseline-shift:baseline;text-anchor:start;white-space:normal;clip-rule:nonzero;display:inline;overflow:visible;visibility:visible;opacity:0.5;isolation:auto;mix-blend-mode:normal;color-interpolation:sRGB;color-interpolation-filters:linearRGB;solid-color:#000000;solid-opacity:1;fill:#000000;fill-opacity:1;fill-rule:nonzero;stroke:none;stroke-width:60;stroke-linecap:butt;stroke-linejoin:miter;stroke-miterlimit:4;stroke-dasharray:none;stroke-dashoffset:0;stroke-opacity:1;color-rendering:auto;image-rendering:auto;shape-rendering:auto;text-rendering:auto;enable-background:accumulate"
           d="m 644.28516,446.75586 0,30 0,309.87305 1140.00004,0 0,-339.87305 -1140.00004,0 z"
           id="path4418"
           transform="translate(0,-307.63817)" />
        <g
           id="g4223"
           transform="matrix(1.2104277,0,0,1.2104277,-19.669571,-314.90387)"
           style="fill:#ffffff">
          <path
             inkscape:connector-curvature="0"
             id="path8133"
             style="fill:#ffffff;fill-opacity:1;fill-rule:nonzero;stroke:none"
             d="m 1441.9976,440.62239 3.9193,0 c 1.8793,0 3.1615,-0.2832 3.8446,-0.84547 0.6908,-0.56108 1.0303,-1.29321 1.0303,-2.20605 0,-0.59012 -0.1718,-1.12359 -0.4976,-1.5862 -0.3318,-0.46747 -0.7833,-0.81686 -1.3645,-1.0388 -0.5866,-0.24055 -1.6685,-0.35075 -3.2587,-0.35075 l -3.6746,0 0,6.02698 z m -3.2403,11.28332 0,-20.03382 6.8864,0 c 2.351,0 4.058,0.17834 5.1144,0.55219 1.0599,0.37149 1.8894,1.0151 2.5275,1.94039 0.6239,0.92534 0.9314,1.89926 0.9314,2.92307 0,1.47404 -0.5392,2.7448 -1.5695,3.83094 -1.0475,1.0862 -2.4422,1.69978 -4.1652,1.82823 0.7081,0.29209 1.2715,0.64717 1.7058,1.05248 0.7981,0.78812 1.7792,2.11997 2.9595,3.9918 l 2.4327,3.91448 -3.9803,0 -1.7721,-3.15877 c -1.3983,-2.47166 -2.5133,-4.02047 -3.3487,-4.65271 -0.5866,-0.46747 -1.4504,-0.70962 -2.5851,-0.70962 l -1.8965,0 0,8.5211 -3.2403,0 z m 8.1573,-25.88128 c -2.6265,0 -5.1818,0.68343 -7.6596,2.01652 -2.4778,1.35057 -4.4318,3.27223 -5.8259,5.76634 -1.4107,2.50408 -2.1015,5.1017 -2.1015,7.80277 0,2.70113 0.6908,5.27002 2.0565,7.74044 1.3781,2.47042 3.306,4.38841 5.7838,5.76262 2.4707,1.38297 5.0545,2.06889 7.7467,2.06889 2.6911,0 5.2648,-0.68592 7.7456,-2.06889 2.4653,-1.37421 4.392,-3.2922 5.7613,-5.76262 1.3656,-2.47042 2.0612,-5.03931 2.0612,-7.74044 0,-2.70107 -0.7056,-5.29869 -2.0938,-7.80277 -1.3841,-2.49411 -3.3333,-4.41577 -5.8277,-5.76634 -2.5003,-1.33309 -5.0391,-2.01652 -7.6466,-2.01652 m 0,-3.0802 c 3.1248,0 6.1867,0.80187 9.1669,2.41431 2.9844,1.60492 5.314,3.9095 6.9813,6.89994 1.6571,2.99915 2.4979,6.1155 2.4979,9.35158 0,3.22116 -0.826,6.31386 -2.4707,9.28054 -1.6423,2.9655 -3.937,5.26132 -6.89,6.9099 -2.9618,1.64237 -6.0658,2.45549 -9.2854,2.45549 -3.2361,0 -6.3241,-0.81312 -9.2919,-2.45549 -2.9553,-1.64858 -5.2512,-3.9444 -6.9083,-6.9099 -1.6477,-2.96668 -2.4808,-6.05938 -2.4808,-9.28054 0,-3.23608 0.8508,-6.35243 2.5228,-9.35158 1.6714,-2.99044 4.0058,-5.29502 6.9813,-6.89994 2.989,-1.61244 6.0403,-2.41431 9.1769,-2.41431" />
          <path
             inkscape:connector-curvature="0"
             id="path8135"
             style="fill:#ffffff;fill-opacity:1;fill-rule:evenodd;stroke:none"
             d="m 1377.2641,584.08549 c -3.1047,6.64927 -7.2277,11.57624 -12.2668,14.78637 -5.1706,3.21215 -10.7886,4.81476 -16.9753,4.81476 l -0.1125,0 c -6.1903,0 -11.8124,-1.71619 -16.9735,-5.03931 -5.1617,-3.43913 -9.2807,-8.48869 -12.2662,-15.13422 -2.9802,-6.76272 -4.4732,-14.90475 -4.4732,-24.54066 0,-9.06357 1.3757,-17.08212 4.2362,-23.85107 2.7551,-6.87624 6.7739,-12.15628 11.8147,-15.8276 5.16,-3.77353 10.8893,-5.49694 17.4273,-5.49694 l 0.3496,0 c 6.0836,0 11.6939,1.83687 16.8579,5.39343 5.1564,3.55289 9.2795,8.70945 12.3841,15.47839 3.0916,6.76279 4.5793,14.90102 4.5793,24.30379 0,10.08863 -1.4877,18.4638 -4.5793,25.11306 M 1412.9185,439.838 c -2.9778,-3.44185 -6.9937,-5.1565 -12.377,-5.1565 -5.391,0 -9.5223,1.8319 -12.384,5.62042 -2.8724,3.66386 -4.3637,9.17206 -4.3637,16.39745 l 0,52.27884 c -6.6453,-7.33767 -13.5282,-12.60894 -20.5278,-16.1655 -4.3494,-2.18235 -9.5064,-3.78359 -15.2416,-4.58665 -3.3244,-0.45917 -6.7662,-0.68965 -10.5533,-0.68965 -17.544,0 -31.7553,6.19661 -42.6505,18.57608 -10.7731,12.38444 -16.1683,29.58127 -16.1683,51.71888 0,10.43156 1.3858,20.17477 4.1332,29.12482 2.7432,8.94123 6.6417,16.73043 11.9213,23.37969 5.2802,6.65578 11.5754,11.69746 18.8031,15.37874 7.2265,3.54625 15.0236,5.37981 23.5109,5.37981 3.8956,0 7.5607,-0.34424 11.0036,-1.03021 2.2911,-0.34364 4.4733,-0.92019 6.6548,-1.60996 5.3857,-1.83314 10.4253,-4.4694 15.0141,-7.78298 4.7014,-3.44932 9.4092,-7.91724 14.1005,-13.30735 l 0,3.4396 c 0,6.53592 1.6098,11.46414 4.7073,15.01098 3.2077,3.44636 7.2218,5.27992 12.0404,5.27992 4.926,0 8.9454,-1.71607 12.0393,-5.04571 3.091,-3.44298 4.7037,-8.48484 4.7037,-15.24519 l 0,-155.94104 c 0,-6.5358 -1.4978,-11.58512 -4.366,-15.02449" />
          <path
             inkscape:connector-curvature="0"
             id="path8137"
             style="fill:#ffffff;fill-opacity:1;fill-rule:evenodd;stroke:none"
             d="m 1185.1963,520.79274 c 5.6257,-6.07562 12.8522,-9.06108 21.6784,-9.06108 l 0.1126,0 c 9.1746,0 16.6192,2.98546 22.2347,8.94762 5.628,5.95961 8.9601,15.01448 9.747,27.1707 l -64.0943,0 c 1.1524,-11.9293 4.5941,-20.98037 10.3193,-27.05724 m 82.5619,64.78048 c -2.1809,-1.94039 -5.1563,-2.98043 -8.8363,-2.98043 -3.3297,0 -5.8466,0.80684 -7.6833,2.29457 -4.4632,4.12896 -8.0145,7.44864 -10.7743,9.85904 -2.7438,2.29333 -5.846,4.58428 -9.1722,6.76758 -3.2113,2.0689 -6.6441,3.66522 -10.0823,4.5908 -3.5614,1.02879 -7.345,1.48625 -11.5801,1.48625 -0.9231,0 -1.8385,0 -2.6401,-0.11198 -5.2737,-0.34542 -10.2032,-1.84174 -14.6705,-4.58523 -5.2796,-3.10408 -9.4151,-7.68546 -12.6211,-13.64661 -3.0927,-6.19536 -4.7037,-13.29977 -4.821,-21.32828 l 69.1535,0 c 9.2818,0 16.5036,-1.37551 21.5468,-3.89706 5.1629,-2.75718 7.6792,-8.48614 7.6792,-17.319 0,-9.62098 -2.5163,-19.02997 -7.4422,-28.31922 -4.9449,-9.16833 -12.2763,-16.74293 -22.2513,-22.5866 -9.8601,-5.84615 -21.6701,-8.71312 -35.546,-8.71312 l -1.0274,0 c -10.2032,0.11317 -19.6124,1.83066 -27.9812,5.04304 -8.7095,3.4431 -16.0486,8.36522 -22.1316,14.68026 -5.8473,6.41358 -10.4325,14.10288 -13.5276,23.04802 -3.0981,8.93631 -4.6978,18.6845 -4.6978,29.11736 0,22.24485 6.3076,39.67488 18.915,52.63445 11.9297,12.27074 28.4327,18.6858 49.4232,19.37403 1.147,0.11375 2.4019,0.11375 3.6639,0.11375 9.8666,0 18.6935,-1.2582 26.3738,-3.90239 7.6833,-2.63477 13.9933,-5.84106 19.0389,-9.74297 5.0379,-4.00916 8.8215,-8.138 11.3443,-12.37947 2.5228,-4.24633 3.7836,-8.02987 3.7836,-11.12743 0,-3.55532 -1.1335,-6.41731 -3.4359,-8.36895" />
          <path
             inkscape:connector-curvature="0"
             id="path8139"
             style="fill:#ffffff;fill-opacity:1;fill-rule:evenodd;stroke:none"
             d="m 1043.5887,520.79274 c 5.6268,-6.07562 12.8521,-9.06108 21.6689,-9.06108 l 0.1244,0 c 9.1621,0 16.6197,2.98546 22.2353,8.94762 5.7477,5.95961 8.9459,15.01448 9.8666,27.1707 l -64.2145,0 c 1.2572,-11.9293 4.7037,-20.98037 10.3193,-27.05724 m 73.8453,61.80005 c -3.4328,0 -5.9657,0.80684 -7.7977,2.29457 -4.3535,4.12896 -8.0234,7.44864 -10.7772,9.85904 -2.7444,2.29333 -5.7287,4.58428 -9.055,6.76758 -3.3291,2.0689 -6.6541,3.66522 -10.2019,4.5908 -3.4453,1.02879 -7.3439,1.48625 -11.5813,1.48625 -0.9189,0 -1.8367,0 -2.6389,-0.11198 -5.2749,-0.34542 -10.2132,-1.84174 -14.6741,-4.58523 -5.1587,-3.10408 -9.4086,-7.68546 -12.4978,-13.64661 -3.2148,-6.19536 -4.827,-13.29977 -4.9407,-21.32828 l 69.2601,0 c 9.1717,0 16.4023,-1.37551 21.5551,-3.89706 5.0444,-2.75718 7.5672,-8.48614 7.5672,-17.319 0,-9.62098 -2.4054,-19.02997 -7.3313,-28.31922 -4.9348,-9.16833 -12.3883,-16.74293 -22.249,-22.5866 -9.8625,-5.84615 -21.7797,-8.71312 -35.5419,-8.71312 l -1.1476,0 c -10.2132,0.11317 -19.4921,1.83066 -27.9789,5.04304 -8.7154,3.4431 -16.0545,8.36522 -22.019,14.68026 -5.961,6.41358 -10.551,14.10288 -13.6449,23.04802 -3.09928,8.93631 -4.70551,18.6845 -4.70551,29.11736 0,22.24485 6.42901,39.67488 19.03531,52.63445 11.9291,12.27074 28.3231,18.6858 49.313,19.37403 1.2608,0.11375 2.4061,0.11375 3.6639,0.11375 9.9804,0 18.6911,-1.2582 26.3738,-3.90239 7.6798,-2.63477 13.9957,-5.84106 19.0389,-9.74297 5.1564,-4.00916 8.8244,-8.138 11.3442,-12.37947 2.5282,-4.24633 3.7836,-8.02987 3.7836,-11.12743 0,-3.55532 -1.147,-6.41731 -3.3196,-8.36895 -2.2959,-1.94038 -5.2702,-2.98043 -8.8328,-2.98043" />
          <path
             inkscape:connector-curvature="0"
             id="path8141"
             style="fill:#ffffff;fill-opacity:1;fill-rule:evenodd;stroke:none"
             d="m 646.97217,607.59103 0,-84.39523 c 2.40892,0.23047 4.69934,0.35075 7.113,0.35075 11.46266,0 22.23602,-3.10391 31.40772,-8.59593 l 0,92.6407 c 0,7.91137 -1.82728,13.75996 -5.38378,17.65595 -3.55223,3.89706 -8.25584,5.84745 -13.98989,5.84745 -5.61509,0 -10.083,-1.95039 -13.76333,-5.96239 -3.54673,-3.89469 -5.38372,-9.74162 -5.38372,-17.54101" />
          <path
             inkscape:connector-curvature="0"
             id="path8143"
             style="fill:#ffffff;fill-opacity:1;fill-rule:evenodd;stroke:none"
             d="m 944.51952,584.08549 c -3.09395,6.64927 -7.22178,11.57624 -12.38468,14.78637 -5.03907,3.21215 -10.77668,4.81476 -16.85615,4.81476 l -0.10665,0 c -6.19323,0 -11.8172,-1.71619 -16.97127,-5.03931 -5.27376,-3.43913 -9.28428,-8.48869 -12.26968,-15.13422 -2.97924,-6.76272 -4.4707,-14.90475 -4.4707,-24.54066 0,-9.06357 1.37177,-17.08212 4.12653,-23.85107 2.86696,-6.87624 6.76396,-12.15628 11.92177,-15.8276 5.04932,-3.77353 10.89541,-5.49694 17.31912,-5.49694 l 0.45029,0 c 6.07947,0 11.69976,1.83687 16.74891,5.39343 5.27014,3.55289 9.39797,8.70945 12.49192,15.47839 2.98137,6.76279 4.59056,14.90102 4.59056,24.30379 0,10.08863 -1.60919,18.4638 -4.59056,25.11306 M 980.06497,439.838 c -2.97545,-3.44185 -7.10328,-5.1565 -12.26737,-5.1565 -5.38745,0 -9.52654,1.8319 -12.3835,5.61544 -2.98552,3.66884 -4.34942,9.17704 -4.34942,16.40243 l 0,52.27884 c -6.65951,-7.33767 -13.53291,-12.60894 -20.53014,-16.1655 -4.47325,-2.18235 -9.51884,-3.78359 -15.25644,-4.58665 -3.31969,-0.45917 -6.75787,-0.68965 -10.54763,-0.68965 -17.54101,0 -31.8746,6.19661 -42.65282,18.57608 -10.77206,12.38444 -16.16176,29.58127 -16.16176,51.71888 0,10.43156 1.3742,20.17477 4.00548,29.12482 2.75724,8.94123 6.76776,16.73043 12.04276,23.37969 5.2763,6.65578 11.58015,11.69746 18.80305,15.37874 7.2254,3.54625 15.01946,5.37981 23.51063,5.37981 3.77851,0 7.44835,-0.34424 11.00029,-1.03021 2.29587,-0.34364 4.47324,-0.92019 6.65062,-1.60996 5.39338,-1.83314 10.43778,-4.4694 15.0242,-7.78298 4.69898,-3.44932 9.28954,-7.91724 14.11176,-13.30735 l 0,3.4396 c 0,6.53592 1.59615,11.46414 4.69366,15.01098 3.09513,3.44636 7.22178,5.27992 12.03926,5.27992 4.70136,0 8.828,-1.71607 11.92314,-5.04571 3.0975,-3.44298 4.59411,-8.48484 4.59411,-15.24519 l 0,-155.94104 c 0,-6.5358 -1.38937,-11.58512 -4.24988,-15.02449" />
          <path
             inkscape:connector-curvature="0"
             id="path8145"
             style="fill:#ffffff;fill-opacity:1;fill-rule:evenodd;stroke:none"
             d="m 742.03352,506.80208 0,4.35469 c 6.30006,-8.25543 13.07279,-14.21137 20.40294,-18.10712 7.44864,-3.78982 15.94479,-5.73891 25.57448,-5.73891 9.28179,0 17.65074,2.05882 24.98965,6.07811 7.34514,4.01425 12.72862,9.74315 16.40492,17.19552 2.40684,4.36969 3.89208,9.05487 4.58043,14.10413 0.68461,4.93088 1.03507,11.35317 1.03507,19.14598 l 0,65.70842 c 0,7.10666 -1.72342,12.49044 -4.92585,16.05423 -3.21867,3.66374 -7.4586,5.4973 -12.62138,5.4973 -5.27132,0 -9.5125,-1.83356 -12.83591,-5.6171 -3.32964,-3.67482 -4.93581,-9.05806 -4.93581,-15.93443 l 0,-58.82222 c 0,-11.70232 -1.60249,-20.63869 -4.81363,-26.83523 -3.21612,-6.18168 -9.75192,-9.28931 -19.37788,-9.28931 -6.30509,0 -12.04027,1.95039 -17.20305,5.6242 -5.16154,3.7823 -9.05735,8.94135 -11.46165,15.59061 -1.71968,5.27002 -2.52653,15.01946 -2.52653,29.58501 l 0,44.14694 c 0,7.21627 -1.7147,12.49044 -5.0393,16.17172 -3.33089,3.54625 -7.56708,5.37981 -12.84712,5.37981 -5.15905,0 -9.29049,-1.83356 -12.61018,-5.6171 -3.33088,-3.67482 -4.9358,-9.05806 -4.9358,-15.93443 l 0,-102.16842 c 0,-6.76522 1.49768,-11.80458 4.47189,-15.01573 2.86827,-3.32963 6.88625,-5.04801 12.04904,-5.04801 3.08393,0 5.84739,0.68959 8.36397,2.17607 2.52273,1.4927 4.58161,3.67008 6.07811,6.65548 1.4927,2.97421 2.18359,6.53083 2.18359,10.65979" />
          <path
             inkscape:connector-curvature="0"
             id="path8147"
             style="fill:#ffffff;fill-opacity:1;fill-rule:evenodd;stroke:none"
             d="m 647.20359,405.32342 c 23.84734,-8.59593 51.02355,-8.13326 71.44023,9.51623 3.77856,3.55662 8.13326,8.02975 9.84796,13.29983 2.07387,6.65424 -7.21793,-0.6797 -8.47743,-1.6 -6.65554,-4.35967 -13.30978,-8.02104 -20.75214,-10.54751 -40.13281,-12.37822 -78.08742,9.97013 -101.7121,44.71792 -9.86147,15.35865 -16.27599,31.53043 -21.55111,49.30836 -0.57589,1.94661 -1.03856,4.46816 -2.06883,6.18784 -1.03472,1.9504 -0.45325,-5.28128 -0.45325,-5.50198 0.79843,-7.34015 2.29048,-14.45458 4.12795,-21.5565 10.8912,-37.84671 34.96902,-69.3721 69.59855,-83.82419" />
          <path
             inkscape:connector-curvature="0"
             id="path8149"
             style="fill:#ffffff;fill-opacity:1;fill-rule:evenodd;stroke:none"
             d="m 678.27159,499.23624 c -14.32981,7.33892 -31.87472,1.60996 -39.09247,-12.72862 -7.34455,-14.33359 -1.61482,-31.88082 12.72376,-39.10248 14.3343,-7.3302 31.88117,-1.6 39.10283,12.73235 7.33489,14.32613 1.60072,31.87211 -12.73412,39.09875" />
        </g>
      </g>
      <g
         id="g4468">
        <path
           style="color:#000000;font-style:normal;font-variant:normal;font-weight:normal;font-stretch:normal;font-size:medium;line-height:normal;font-family:sans-serif;text-indent:0;text-align:start;text-decoration:none;text-decoration-line:none;text-decoration-style:solid;text-decoration-color:#000000;letter-spacing:normal;word-spacing:normal;text-transform:none;direction:ltr;block-progression:tb;writing-mode:lr-tb;baseline-shift:baseline;text-anchor:start;white-space:normal;clip-rule:nonzero;display:inline;overflow:visible;visibility:visible;opacity:0.5;isolation:auto;mix-blend-mode:normal;color-interpolation:sRGB;color-interpolation-filters:linearRGB;solid-color:#000000;solid-opacity:1;fill:#000000;fill-opacity:1;fill-rule:nonzero;stroke:none;stroke-width:60;stroke-linecap:butt;stroke-linejoin:miter;stroke-miterlimit:4;stroke-dasharray:none;stroke-dashoffset:0;stroke-opacity:1;color-rendering:auto;image-rendering:auto;shape-rendering:auto;text-rendering:auto;enable-background:accumulate"
           d="m 600,135.43813 0,30 0,112.9707 1140,0 0,-142.9707 -1140,0 z"
           id="path4422"
           inkscape:connector-curvature="0" />
        <text
           xml:space="preserve"
           style="font-style:normal;font-variant:normal;font-weight:normal;font-stretch:condensed;font-size:118.49668884px;line-height:125%;font-family:Norwester;-inkscape-font-specification:'Norwester, Condensed';text-align:center;letter-spacing:0px;word-spacing:0px;writing-mode:lr-tb;text-anchor:middle;opacity:0.89899998;fill:#ffffff;fill-opacity:1;stroke:none;stroke-width:1px;stroke-linecap:butt;stroke-linejoin:miter;stroke-opacity:1"
           x="1170.0006"
           y="248.408"
           id="text4176"
           sodipodi:linespacing="125%"><tspan
             y="248.408"
             x="1170.0006"
             id="tspan4180"
             sodipodi:role="line">for</tspan></text>
      </g>
      <g
         id="g4473">
        <path
           inkscape:connector-curvature="0"
           style="color:#000000;font-style:normal;font-variant:normal;font-weight:normal;font-stretch:normal;font-size:medium;line-height:normal;font-family:sans-serif;text-indent:0;text-align:start;text-decoration:none;text-decoration-line:none;text-decoration-style:solid;text-decoration-color:#000000;letter-spacing:normal;word-spacing:normal;text-transform:none;direction:ltr;block-progression:tb;writing-mode:lr-tb;baseline-shift:baseline;text-anchor:start;white-space:normal;clip-rule:nonzero;display:inline;overflow:visible;visibility:visible;opacity:0.5;isolation:auto;mix-blend-mode:normal;color-interpolation:sRGB;color-interpolation-filters:linearRGB;solid-color:#000000;solid-opacity:1;fill:#000000;fill-opacity:1;fill-rule:nonzero;stroke:none;stroke-width:60;stroke-linecap:butt;stroke-linejoin:miter;stroke-miterlimit:4;stroke-dasharray:none;stroke-dashoffset:0;stroke-opacity:1;color-rendering:auto;image-rendering:auto;shape-rendering:auto;text-rendering:auto;enable-background:accumulate"
           d="m 600,-207.63834 0,30 0,263.07617 1140,0 0,-293.07617 -1140,0 z"
           id="path4414" />
        <text
           sodipodi:linespacing="125%"
           id="text4516"
           y="55.436695"
           x="1169.8583"
           style="font-style:normal;font-variant:normal;font-weight:normal;font-stretch:condensed;font-size:291.41503906px;line-height:125%;font-family:Norwester;-inkscape-font-specification:'Norwester, Condensed';text-align:center;letter-spacing:0px;word-spacing:0px;writing-mode:lr-tb;text-anchor:middle;opacity:0.89899998;fill:#ffffff;fill-opacity:1;stroke:none;stroke-width:1px;stroke-linecap:butt;stroke-linejoin:miter;stroke-opacity:1"
           xml:space="preserve"><tspan
             y="55.436695"
             x="1169.8583"
             id="tspan4172"
             sodipodi:role="line">Ad Block</tspan></text>
      </g>
    </g>
  </g>
</svg>
