<?xml version="1.0" encoding="UTF-8" standalone="no"?>
<!-- Created with Inkscape (http://www.inkscape.org/) -->

<svg
   xmlns:dc="http://purl.org/dc/elements/1.1/"
   xmlns:cc="http://creativecommons.org/ns#"
   xmlns:rdf="http://www.w3.org/1999/02/22-rdf-syntax-ns#"
   xmlns:svg="http://www.w3.org/2000/svg"
   xmlns="http://www.w3.org/2000/svg"
   xmlns:sodipodi="http://sodipodi.sourceforge.net/DTD/sodipodi-0.dtd"
   xmlns:inkscape="http://www.inkscape.org/namespaces/inkscape"
   width="2560"
   height="1600"
   viewBox="0 0 2560 1600"
   id="svg2"
   version="1.1"
   inkscape:version="0.91 r13725"
   sodipodi:docname="promo--1280x800.svg"
   inkscape:export-filename="/home/manu/Code/indeed-ad-block/app/images/promo--1280x800.png"
   inkscape:export-xdpi="45"
   inkscape:export-ydpi="45">
  <sodipodi:namedview
     id="base"
     pagecolor="#ffffff"
     bordercolor="#666666"
     borderopacity="1.0"
     inkscape:pageopacity="0.0"
     inkscape:pageshadow="2"
     inkscape:zoom="0.24748737"
     inkscape:cx="1435.0598"
     inkscape:cy="655.88971"
     inkscape:document-units="px"
     inkscape:current-layer="layer1"
     showgrid="false"
     units="px"
     inkscape:window-width="1400"
     inkscape:window-height="723"
     inkscape:window-x="369"
     inkscape:window-y="181"
     inkscape:window-maximized="0"
     inkscape:snap-page="true"
     inkscape:snap-bbox="true"
     inkscape:bbox-nodes="true" />
  <defs
     id="defs4" />
  <metadata
     id="metadata7">
    <rdf:RDF>
      <cc:Work
         rdf:about="">
        <dc:format>image/svg+xml</dc:format>
        <dc:type
           rdf:resource="http://purl.org/dc/dcmitype/StillImage" />
        <dc:title></dc:title>
        <dc:creator>
          <cc:Agent>
            <dc:title>Manu Phatak &lt;bionikspoon@gmail.com&gt;</dc:title>
          </cc:Agent>
        </dc:creator>
        <dc:subject>
          <rdf:Bag>
            <rdf:li>Manu Phatak</rdf:li>
          </rdf:Bag>
        </dc:subject>
        <cc:license
           rdf:resource="http://creativecommons.org/licenses/by/3.0/" />
      </cc:Work>
      <cc:License
         rdf:about="http://creativecommons.org/licenses/by/3.0/">
        <cc:permits
           rdf:resource="http://creativecommons.org/ns#Reproduction" />
        <cc:permits
           rdf:resource="http://creativecommons.org/ns#Distribution" />
        <cc:requires
           rdf:resource="http://creativecommons.org/ns#Notice" />
        <cc:requires
           rdf:resource="http://creativecommons.org/ns#Attribution" />
        <cc:permits
           rdf:resource="http://creativecommons.org/ns#DerivativeWorks" />
      </cc:License>
    </rdf:RDF>
  </metadata>
  <g
     transform="translate(0,547.63788)"
     id="layer1"
     inkscape:groupmode="layer"
     inkscape:label="Layer 1">
    <rect
       y="-547.63788"
       x="0"
       height="1600"
       width="2560"
       id="rect4413"
       style="opacity:1;fill:#d32f2f;fill-opacity:1;stroke:none;stroke-width:0.1;stroke-linejoin:miter;stroke-miterlimit:4;stroke-dasharray:none;stroke-opacity:1" />
    <g
       transform="matrix(0.39062499,0,0,0.39062499,273.63449,342.87038)"
       id="g4150" />
    <g
       id="g4258"
       transform="matrix(0.93298717,0,0,1.2411509,288.27963,-449.84009)">
      <g
         id="g4569"
         transform="matrix(1.9418101,2.6284429,0,0.97090509,-942.70542,-1474.699)"
         style="opacity:1;fill:#a62525;fill-opacity:1">
        <path
           d="m 577.70039,486.12904 c -52.80305,27.04255 -117.45287,5.93236 -144.04925,-46.90285 -27.06321,-52.81684 -5.95026,-117.47541 46.88495,-144.08601 52.81956,-27.01039 117.47677,-5.8956 144.08737,46.91664 27.02785,52.78926 5.89836,117.44324 -46.92307,144.07222 M 463.22011,140.07632 c 87.87335,-31.67448 188.01304,-29.96967 263.24509,35.06571 13.92335,13.10541 29.96967,29.58827 36.28802,49.00744 7.64176,24.5198 -26.59682,-2.50437 -31.23793,-5.8956 -24.5244,-16.0647 -49.04421,-29.55611 -76.46815,-38.86591 C 507.1646,133.77635 367.30842,216.12631 280.25533,344.166 c -36.33765,56.59406 -59.97426,116.18416 -79.41214,181.69284 -2.12168,7.17305 -3.82693,16.46448 -7.62331,22.80121 -3.81255,7.18684 -1.66937,-19.46052 -1.66937,-20.27387 2.94201,-27.04714 8.44003,-53.26256 15.21073,-79.43203 40.13227,-139.45868 128.8548,-255.62446 256.45887,-308.87783 m -0.85286,745.32161 0,-310.98197 c 8.87646,0.8501 17.31642,1.29124 26.21038,1.29124 42.23785,0 81.93592,-11.43737 115.73197,-31.67448 l 0,341.36521 c 0,29.15218 -6.73328,50.70306 -19.83825,65.05928 -13.08931,14.35989 -30.42136,21.54673 -51.55037,21.54673 -20.69067,0 -37.15423,-7.18684 -50.71548,-21.97041 -13.06909,-14.35118 -19.83825,-35.89607 -19.83825,-64.6356 M 329.05829,28.36219 21.338189,331.47042 l 0,428.63832 296.700011,292.25346 419.60007,0 307.69993,-303.10827 0,-428.63832 -296.71999,-292.25342 -419.55992,0 z"
           style="fill:#a62525;fill-opacity:1;fill-rule:evenodd;stroke:none"
           id="path4571"
           inkscape:connector-curvature="0" />
      </g>
      <g
         id="g4303"
         transform="matrix(1.9418101,2.6284429,0,0.97090509,-998.7055,-1474.699)"
         style="opacity:1;fill:#dc5a5a;fill-opacity:1">
        <path
           d="m 577.70039,486.12904 c -52.80305,27.04255 -117.45287,5.93236 -144.04925,-46.90285 -27.06321,-52.81684 -5.95026,-117.47541 46.88495,-144.08601 52.81956,-27.01039 117.47677,-5.8956 144.08737,46.91664 27.02785,52.78926 5.89836,117.44324 -46.92307,144.07222 M 463.22011,140.07632 c 87.87335,-31.67448 188.01304,-29.96967 263.24509,35.06571 13.92335,13.10541 29.96967,29.58827 36.28802,49.00744 7.64176,24.5198 -26.59682,-2.50437 -31.23793,-5.8956 -24.5244,-16.0647 -49.04421,-29.55611 -76.46815,-38.86591 C 507.1646,133.77635 367.30842,216.12631 280.25533,344.166 c -36.33765,56.59406 -59.97426,116.18416 -79.41214,181.69284 -2.12168,7.17305 -3.82693,16.46448 -7.62331,22.80121 -3.81255,7.18684 -1.66937,-19.46052 -1.66937,-20.27387 2.94201,-27.04714 8.44003,-53.26256 15.21073,-79.43203 40.13227,-139.45868 128.8548,-255.62446 256.45887,-308.87783 m -0.85286,745.32161 0,-310.98197 c 8.87646,0.8501 17.31642,1.29124 26.21038,1.29124 42.23785,0 81.93592,-11.43737 115.73197,-31.67448 l 0,341.36521 c 0,29.15218 -6.73328,50.70306 -19.83825,65.05928 -13.08931,14.35989 -30.42136,21.54673 -51.55037,21.54673 -20.69067,0 -37.15423,-7.18684 -50.71548,-21.97041 -13.06909,-14.35118 -19.83825,-35.89607 -19.83825,-64.6356 M 329.05829,28.36219 21.338189,331.47042 l 0,428.63832 296.700011,292.25346 419.60007,0 307.69993,-303.10827 0,-428.63832 -296.71999,-292.25342 -419.55992,0 z"
           style="fill:#dc5a5a;fill-opacity:1;fill-rule:evenodd;stroke:none"
           id="path4165"
           inkscape:connector-curvature="0" />
      </g>
    </g>
    <g
       style="opacity:1;fill:#008000;fill-opacity:1"
       id="g4519"
       transform="matrix(4.9710341,6.7288139,0,2.4855171,-2195.6899,-5069.0542)">
      <g
         style="opacity:0.24200003;fill:#008000;fill-opacity:1"
         transform="matrix(0.39062499,0,0,0.39062499,255.94959,581.54597)"
         id="g4521" />
    </g>
    <g
       id="g4478"
       transform="matrix(1.2759411,0,0,1.2759411,276.06536,-41.565901)">
      <g
         transform="translate(-44.28516,189.29109)"
         id="g4427">
        <path
           inkscape:connector-curvature="0"
           style="color:#000000;font-style:normal;font-variant:normal;font-weight:normal;font-stretch:normal;font-size:medium;line-height:normal;font-family:sans-serif;text-indent:0;text-align:start;text-decoration:none;text-decoration-line:none;text-decoration-style:solid;text-decoration-color:#000000;letter-spacing:normal;word-spacing:normal;text-transform:none;direction:ltr;block-progression:tb;writing-mode:lr-tb;baseline-shift:baseline;text-anchor:start;white-space:normal;clip-rule:nonzero;display:inline;overflow:visible;visibility:visible;opacity:0.5;isolation:auto;mix-blend-mode:normal;color-interpolation:sRGB;color-interpolation-filters:linearRGB;solid-color:#000000;solid-opacity:1;fill:#000000;fill-opacity:1;fill-rule:nonzero;stroke:none;stroke-width:60;stroke-linecap:butt;stroke-linejoin:miter;stroke-miterlimit:4;stroke-dasharray:none;stroke-dashoffset:0;stroke-opacity:1;color-rendering:auto;image-rendering:auto;shape-rendering:auto;text-rendering:auto;enable-background:accumulate"
           d="m 644.28516,446.75586 0,30 0,309.87305 1140.00004,0 0,-339.87305 -1140.00004,0 z"
           id="path4418"
           transform="translate(0,-307.63817)" />
        <g
           id="g4223"
           transform="matrix(1.2104277,0,0,1.2104277,-19.669571,-314.90387)"
           style="fill:#ffffff">
          <path
             inkscape:connector-curvature="0"
             id="path8133"
             style="fill:#ffffff;fill-opacity:1;fill-rule:nonzero;stroke:none"
             d="m 1441.9976,440.62239 3.9193,0 c 1.8793,0 3.1615,-0.2832 3.8446,-0.84547 0.6908,-0.56108 1.0303,-1.29321 1.0303,-2.20605 0,-0.59012 -0.1718,-1.12359 -0.4976,-1.5862 -0.3318,-0.46747 -0.7833,-0.81686 -1.3645,-1.0388 -0.5866,-0.24055 -1.6685,-0.35075 -3.2587,-0.35075 l -3.6746,0 0,6.02698 z m -3.2403,11.28332 0,-20.03382 6.8864,0 c 2.351,0 4.058,0.17834 5.1144,0.55219 1.0599,0.37149 1.8894,1.0151 2.5275,1.94039 0.6239,0.92534 0.9314,1.89926 0.9314,2.92307 0,1.47404 -0.5392,2.7448 -1.5695,3.83094 -1.0475,1.0862 -2.4422,1.69978 -4.1652,1.82823 0.7081,0.29209 1.2715,0.64717 1.7058,1.05248 0.7981,0.78812 1.7792,2.11997 2.9595,3.9918 l 2.4327,3.91448 -3.9803,0 -1.7721,-3.15877 c -1.3983,-2.47166 -2.5133,-4.02047 -3.3487,-4.65271 -0.5866,-0.46747 -1.4504,-0.70962 -2.5851,-0.70962 l -1.8965,0 0,8.5211 -3.2403,0 z m 8.1573,-25.88128 c -2.6265,0 -5.1818,0.68343 -7.6596,2.01652 -2.4778,1.35057 -4.4318,3.27223 -5.8259,5.76634 -1.4107,2.50408 -2.1015,5.1017 -2.1015,7.80277 0,2.70113 0.6908,5.27002 2.0565,7.74044 1.3781,2.47042 3.306,4.38841 5.7838,5.76262 2.4707,1.38297 5.0545,2.06889 7.7467,2.06889 2.6911,0 5.2648,-0.68592 7.7456,-2.06889 2.4653,-1.37421 4.392,-3.2922 5.7613,-5.76262 1.3656,-2.47042 2.0612,-5.03931 2.0612,-7.74044 0,-2.70107 -0.7056,-5.29869 -2.0938,-7.80277 -1.3841,-2.49411 -3.3333,-4.41577 -5.8277,-5.76634 -2.5003,-1.33309 -5.0391,-2.01652 -7.6466,-2.01652 m 0,-3.0802 c 3.1248,0 6.1867,0.80187 9.1669,2.41431 2.9844,1.60492 5.314,3.9095 6.9813,6.89994 1.6571,2.99915 2.4979,6.1155 2.4979,9.35158 0,3.22116 -0.826,6.31386 -2.4707,9.28054 -1.6423,2.9655 -3.937,5.26132 -6.89,6.9099 -2.9618,1.64237 -6.0658,2.45549 -9.2854,2.45549 -3.2361,0 -6.3241,-0.81312 -9.2919,-2.45549 -2.9553,-1.64858 -5.2512,-3.9444 -6.9083,-6.9099 -1.6477,-2.96668 -2.4808,-6.05938 -2.4808,-9.28054 0,-3.23608 0.8508,-6.35243 2.5228,-9.35158 1.6714,-2.99044 4.0058,-5.29502 6.9813,-6.89994 2.989,-1.61244 6.0403,-2.41431 9.1769,-2.41431" />
          <path
             inkscape:connector-curvature="0"
             id="path8135"
             style="fill:#ffffff;fill-opacity:1;fill-rule:evenodd;stroke:none"
             d="m 1377.2641,584.08549 c -3.1047,6.64927 -7.2277,11.57624 -12.2668,14.78637 -5.1706,3.21215 -10.7886,4.81476 -16.9753,4.81476 l -0.1125,0 c -6.1903,0 -11.8124,-1.71619 -16.9735,-5.03931 -5.1617,-3.43913 -9.2807,-8.48869 -12.2662,-15.13422 -2.9802,-6.76272 -4.4732,-14.90475 -4.4732,-24.54066 0,-9.06357 1.3757,-17.08212 4.2362,-23.85107 2.7551,-6.87624 6.7739,-12.15628 11.8147,-15.8276 5.16,-3.77353 10.8893,-5.49694 17.4273,-5.49694 l 0.3496,0 c 6.0836,0 11.6939,1.83687 16.8579,5.39343 5.1564,3.55289 9.2795,8.70945 12.3841,15.47839 3.0916,6.76279 4.5793,14.90102 4.5793,24.30379 0,10.08863 -1.4877,18.4638 -4.5793,25.11306 M 1412.9185,439.838 c -2.9778,-3.44185 -6.9937,-5.1565 -12.377,-5.1565 -5.391,0 -9.5223,1.8319 -12.384,5.62042 -2.8724,3.66386 -4.3637,9.17206 -4.3637,16.39745 l 0,52.27884 c -6.6453,-7.33767 -13.5282,-12.60894 -20.5278,-16.1655 -4.3494,-2.18235 -9.5064,-3.78359 -15.2416,-4.58665 -3.3244,-0.45917 -6.7662,-0.68965 -10.5533,-0.68965 -17.544,0 -31.7553,6.19661 -42.6505,18.57608 -10.7731,12.38444 -16.1683,29.58127 -16.1683,51.71888 0,10.43156 1.3858,20.17477 4.1332,29.12482 2.7432,8.94123 6.6417,16.73043 11.9213,23.37969 5.2802,6.65578 11.5754,11.69746 18.8031,15.37874 7.2265,3.54625 15.0236,5.37981 23.5109,5.37981 3.8956,0 7.5607,-0.34424 11.0036,-1.03021 2.2911,-0.34364 4.4733,-0.92019 6.6548,-1.60996 5.3857,-1.83314 10.4253,-4.4694 15.0141,-7.78298 4.7014,-3.44932 9.4092,-7.91724 14.1005,-13.30735 l 0,3.4396 c 0,6.53592 1.6098,11.46414 4.7073,15.01098 3.2077,3.44636 7.2218,5.27992 12.0404,5.27992 4.926,0 8.9454,-1.71607 12.0393,-5.04571 3.091,-3.44298 4.7037,-8.48484 4.7037,-15.24519 l 0,-155.94104 c 0,-6.5358 -1.4978,-11.58512 -4.366,-15.02449" />
          <path
             inkscape:connector-curvature="0"
             id="path8137"
             style="fill:#ffffff;fill-opacity:1;fill-rule:evenodd;stroke:none"
             d="m 1185.1963,520.79274 c 5.6257,-6.07562 12.8522,-9.06108 21.6784,-9.06108 l 0.1126,0 c 9.1746,0 16.6192,2.98546 22.2347,8.94762 5.628,5.95961 8.9601,15.01448 9.747,27.1707 l -64.0943,0 c 1.1524,-11.9293 4.5941,-20.98037 10.3193,-27.05724 m 82.5619,64.78048 c -2.1809,-1.94039 -5.1563,-2.98043 -8.8363,-2.98043 -3.3297,0 -5.8466,0.80684 -7.6833,2.29457 -4.4632,4.12896 -8.0145,7.44864 -10.7743,9.85904 -2.7438,2.29333 -5.846,4.58428 -9.1722,6.76758 -3.2113,2.0689 -6.6441,3.66522 -10.0823,4.5908 -3.5614,1.02879 -7.345,1.48625 -11.5801,1.48625 -0.9231,0 -1.8385,0 -2.6401,-0.11198 -5.2737,-0.34542 -10.2032,-1.84174 -14.6705,-4.58523 -5.2796,-3.10408 -9.4151,-7.68546 -12.6211,-13.64661 -3.0927,-6.19536 -4.7037,-13.29977 -4.821,-21.32828 l 69.1535,0 c 9.2818,0 16.5036,-1.37551 21.5468,-3.89706 5.1629,-2.75718 7.6792,-8.48614 7.6792,-17.319 0,-9.62098 -2.5163,-19.02997 -7.4422,-28.31922 -4.9449,-9.16833 -12.2763,-16.74293 -22.2513,-22.5866 -9.8601,-5.84615 -21.6701,-8.71312 -35.546,-8.71312 l -1.0274,0 c -10.2032,0.11317 -19.6124,1.83066 -27.9812,5.04304 -8.7095,3.4431 -16.0486,8.36522 -22.1316,14.68026 -5.8473,6.41358 -10.4325,14.10288 -13.5276,23.04802 -3.0981,8.93631 -4.6978,18.6845 -4.6978,29.11736 0,22.24485 6.3076,39.67488 18.915,52.63445 11.9297,12.27074 28.4327,18.6858 49.4232,19.37403 1.147,0.11375 2.4019,0.11375 3.6639,0.11375 9.8666,0 18.6935,-1.2582 26.3738,-3.90239 7.6833,-2.63477 13.9933,-5.84106 19.0389,-9.74297 5.0379,-4.00916 8.8215,-8.138 11.3443,-12.37947 2.5228,-4.24633 3.7836,-8.02987 3.7836,-11.12743 0,-3.55532 -1.1335,-6.41731 -3.4359,-8.36895" />
          <path
             inkscape:connector-curvature="0"
             id="path8139"
             style="fill:#ffffff;fill-opacity:1;fill-rule:evenodd;stroke:none"
             d="m 1043.5887,520.79274 c 5.6268,-6.07562 12.8521,-9.06108 21.6689,-9.06108 l 0.1244,0 c 9.1621,0 16.6197,2.98546 22.2353,8.94762 5.7477,5.95961 8.9459,15.01448 9.8666,27.1707 l -64.2145,0 c 1.2572,-11.9293 4.7037,-20.98037 10.3193,-27.05724 m 73.8453,61.80005 c -3.4328,0 -5.9657,0.80684 -7.7977,2.29457 -4.3535,4.12896 -8.0234,7.44864 -10.7772,9.85904 -2.7444,2.29333 -5.7287,4.58428 -9.055,6.76758 -3.3291,2.0689 -6.6541,3.66522 -10.2019,4.5908 -3.4453,1.02879 -7.3439,1.48625 -11.5813,1.48625 -0.9189,0 -1.8367,0 -2.6389,-0.11198 -5.2749,-0.34542 -10.2132,-1.84174 -14.6741,-4.58523 -5.1587,-3.10408 -9.4086,-7.68546 -12.4978,-13.64661 -3.2148,-6.19536 -4.827,-13.29977 -4.9407,-21.32828 l 69.2601,0 c 9.1717,0 16.4023,-1.37551 21.5551,-3.89706 5.0444,-2.75718 7.5672,-8.48614 7.5672,-17.319 0,-9.62098 -2.4054,-19.02997 -7.3313,-28.31922 -4.9348,-9.16833 -12.3883,-16.74293 -22.249,-22.5866 -9.8625,-5.84615 -21.7797,-8.71312 -35.5419,-8.71312 l -1.1476,0 c -10.2132,0.11317 -19.4921,1.83066 -27.9789,5.04304 -8.7154,3.4431 -16.0545,8.36522 -22.019,14.68026 -5.961,6.41358 -10.551,14.10288 -13.6449,23.04802 -3.09928,8.93631 -4.70551,18.6845 -4.70551,29.11736 0,22.24485 6.42901,39.67488 19.03531,52.63445 11.9291,12.27074 28.3231,18.6858 49.313,19.37403 1.2608,0.11375 2.4061,0.11375 3.6639,0.11375 9.9804,0 18.6911,-1.2582 26.3738,-3.90239 7.6798,-2.63477 13.9957,-5.84106 19.0389,-9.74297 5.1564,-4.00916 8.8244,-8.138 11.3442,-12.37947 2.5282,-4.24633 3.7836,-8.02987 3.7836,-11.12743 0,-3.55532 -1.147,-6.41731 -3.3196,-8.36895 -2.2959,-1.94038 -5.2702,-2.98043 -8.8328,-2.98043" />
          <path
             inkscape:connector-curvature="0"
             id="path8141"
             style="fill:#ffffff;fill-opacity:1;fill-rule:evenodd;stroke:none"
             d="m 646.97217,607.59103 0,-84.39523 c 2.40892,0.23047 4.69934,0.35075 7.113,0.35075 11.46266,0 22.23602,-3.10391 31.40772,-8.59593 l 0,92.6407 c 0,7.91137 -1.82728,13.75996 -5.38378,17.65595 -3.55223,3.89706 -8.25584,5.84745 -13.98989,5.84745 -5.61509,0 -10.083,-1.95039 -13.76333,-5.96239 -3.54673,-3.89469 -5.38372,-9.74162 -5.38372,-17.54101" />
          <path
             inkscape:connector-curvature="0"
             id="path8143"
             style="fill:#ffffff;fill-opacity:1;fill-rule:evenodd;stroke:none"
             d="m 944.51952,584.08549 c -3.09395,6.64927 -7.22178,11.57624 -12.38468,14.78637 -5.03907,3.21215 -10.77668,4.81476 -16.85615,4.81476 l -0.10665,0 c -6.19323,0 -11.8172,-1.71619 -16.97127,-5.03931 -5.27376,-3.43913 -9.28428,-8.48869 -12.26968,-15.13422 -2.97924,-6.76272 -4.4707,-14.90475 -4.4707,-24.54066 0,-9.06357 1.37177,-17.08212 4.12653,-23.85107 2.86696,-6.87624 6.76396,-12.15628 11.92177,-15.8276 5.04932,-3.77353 10.89541,-5.49694 17.31912,-5.49694 l 0.45029,0 c 6.07947,0 11.69976,1.83687 16.74891,5.39343 5.27014,3.55289 9.39797,8.70945 12.49192,15.47839 2.98137,6.76279 4.59056,14.90102 4.59056,24.30379 0,10.08863 -1.60919,18.4638 -4.59056,25.11306 M 980.06497,439.838 c -2.97545,-3.44185 -7.10328,-5.1565 -12.26737,-5.1565 -5.38745,0 -9.52654,1.8319 -12.3835,5.61544 -2.98552,3.66884 -4.34942,9.17704 -4.34942,16.40243 l 0,52.27884 c -6.65951,-7.33767 -13.53291,-12.60894 -20.53014,-16.1655 -4.47325,-2.18235 -9.51884,-3.78359 -15.25644,-4.58665 -3.31969,-0.45917 -6.75787,-0.68965 -10.54763,-0.68965 -17.54101,0 -31.8746,6.19661 -42.65282,18.57608 -10.77206,12.38444 -16.16176,29.58127 -16.16176,51.71888 0,10.43156 1.3742,20.17477 4.00548,29.12482 2.75724,8.94123 6.76776,16.73043 12.04276,23.37969 5.2763,6.65578 11.58015,11.69746 18.80305,15.37874 7.2254,3.54625 15.01946,5.37981 23.51063,5.37981 3.77851,0 7.44835,-0.34424 11.00029,-1.03021 2.29587,-0.34364 4.47324,-0.92019 6.65062,-1.60996 5.39338,-1.83314 10.43778,-4.4694 15.0242,-7.78298 4.69898,-3.44932 9.28954,-7.91724 14.11176,-13.30735 l 0,3.4396 c 0,6.53592 1.59615,11.46414 4.69366,15.01098 3.09513,3.44636 7.22178,5.27992 12.03926,5.27992 4.70136,0 8.828,-1.71607 11.92314,-5.04571 3.0975,-3.44298 4.59411,-8.48484 4.59411,-15.24519 l 0,-155.94104 c 0,-6.5358 -1.38937,-11.58512 -4.24988,-15.02449" />
          <path
             inkscape:connector-curvature="0"
             id="path8145"
             style="fill:#ffffff;fill-opacity:1;fill-rule:evenodd;stroke:none"
             d="m 742.03352,506.80208 0,4.35469 c 6.30006,-8.25543 13.07279,-14.21137 20.40294,-18.10712 7.44864,-3.78982 15.94479,-5.73891 25.57448,-5.73891 9.28179,0 17.65074,2.05882 24.98965,6.07811 7.34514,4.01425 12.72862,9.74315 16.40492,17.19552 2.40684,4.36969 3.89208,9.05487 4.58043,14.10413 0.68461,4.93088 1.03507,11.35317 1.03507,19.14598 l 0,65.70842 c 0,7.10666 -1.72342,12.49044 -4.92585,16.05423 -3.21867,3.66374 -7.4586,5.4973 -12.62138,5.4973 -5.27132,0 -9.5125,-1.83356 -12.83591,-5.6171 -3.32964,-3.67482 -4.93581,-9.05806 -4.93581,-15.93443 l 0,-58.82222 c 0,-11.70232 -1.60249,-20.63869 -4.81363,-26.83523 -3.21612,-6.18168 -9.75192,-9.28931 -19.37788,-9.28931 -6.30509,0 -12.04027,1.95039 -17.20305,5.6242 -5.16154,3.7823 -9.05735,8.94135 -11.46165,15.59061 -1.71968,5.27002 -2.52653,15.01946 -2.52653,29.58501 l 0,44.14694 c 0,7.21627 -1.7147,12.49044 -5.0393,16.17172 -3.33089,3.54625 -7.56708,5.37981 -12.84712,5.37981 -5.15905,0 -9.29049,-1.83356 -12.61018,-5.6171 -3.33088,-3.67482 -4.9358,-9.05806 -4.9358,-15.93443 l 0,-102.16842 c 0,-6.76522 1.49768,-11.80458 4.47189,-15.01573 2.86827,-3.32963 6.88625,-5.04801 12.04904,-5.04801 3.08393,0 5.84739,0.68959 8.36397,2.17607 2.52273,1.4927 4.58161,3.67008 6.07811,6.65548 1.4927,2.97421 2.18359,6.53083 2.18359,10.65979" />
          <path
             inkscape:connector-curvature="0"
             id="path8147"
             style="fill:#ffffff;fill-opacity:1;fill-rule:evenodd;stroke:none"
             d="m 647.20359,405.32342 c 23.84734,-8.59593 51.02355,-8.13326 71.44023,9.51623 3.77856,3.55662 8.13326,8.02975 9.84796,13.29983 2.07387,6.65424 -7.21793,-0.6797 -8.47743,-1.6 -6.65554,-4.35967 -13.30978,-8.02104 -20.75214,-10.54751 -40.13281,-12.37822 -78.08742,9.97013 -101.7121,44.71792 -9.86147,15.35865 -16.27599,31.53043 -21.55111,49.30836 -0.57589,1.94661 -1.03856,4.46816 -2.06883,6.18784 -1.03472,1.9504 -0.45325,-5.28128 -0.45325,-5.50198 0.79843,-7.34015 2.29048,-14.45458 4.12795,-21.5565 10.8912,-37.84671 34.96902,-69.3721 69.59855,-83.82419" />
          <path
             inkscape:connector-curvature="0"
             id="path8149"
             style="fill:#ffffff;fill-opacity:1;fill-rule:evenodd;stroke:none"
             d="m 678.27159,499.23624 c -14.32981,7.33892 -31.87472,1.60996 -39.09247,-12.72862 -7.34455,-14.33359 -1.61482,-31.88082 12.72376,-39.10248 14.3343,-7.3302 31.88117,-1.6 39.10283,12.73235 7.33489,14.32613 1.60072,31.87211 -12.73412,39.09875" />
        </g>
      </g>
      <g
         id="g4468">
        <path
           style="color:#000000;font-style:normal;font-variant:normal;font-weight:normal;font-stretch:normal;font-size:medium;line-height:normal;font-family:sans-serif;text-indent:0;text-align:start;text-decoration:none;text-decoration-line:none;text-decoration-style:solid;text-decoration-color:#000000;letter-spacing:normal;word-spacing:normal;text-transform:none;direction:ltr;block-progression:tb;writing-mode:lr-tb;baseline-shift:baseline;text-anchor:start;white-space:normal;clip-rule:nonzero;display:inline;overflow:visible;visibility:visible;opacity:0.5;isolation:auto;mix-blend-mode:normal;color-interpolation:sRGB;color-interpolation-filters:linearRGB;solid-color:#000000;solid-opacity:1;fill:#000000;fill-opacity:1;fill-rule:nonzero;stroke:none;stroke-width:60;stroke-linecap:butt;stroke-linejoin:miter;stroke-miterlimit:4;stroke-dasharray:none;stroke-dashoffset:0;stroke-opacity:1;color-rendering:auto;image-rendering:auto;shape-rendering:auto;text-rendering:auto;enable-background:accumulate"
           d="m 600,135.43813 0,30 0,112.9707 1140,0 0,-142.9707 -1140,0 z"
           id="path4422"
           inkscape:connector-curvature="0" />
        <text
           xml:space="preserve"
           style="font-style:normal;font-variant:normal;font-weight:normal;font-stretch:condensed;font-size:118.49668884px;line-height:125%;font-family:Norwester;-inkscape-font-specification:'Norwester, Condensed';text-align:center;letter-spacing:0px;word-spacing:0px;writing-mode:lr-tb;text-anchor:middle;opacity:0.89899998;fill:#ffffff;fill-opacity:1;stroke:none;stroke-width:1px;stroke-linecap:butt;stroke-linejoin:miter;stroke-opacity:1"
           x="1170.0006"
           y="248.408"
           id="text4176"
           sodipodi:linespacing="125%"><tspan
             y="248.408"
             x="1170.0006"
             id="tspan4180"
             sodipodi:role="line">for</tspan></text>
      </g>
      <g
         id="g4473">
        <path
           inkscape:connector-curvature="0"
           style="color:#000000;font-style:normal;font-variant:normal;font-weight:normal;font-stretch:normal;font-size:medium;line-height:normal;font-family:sans-serif;text-indent:0;text-align:start;text-decoration:none;text-decoration-line:none;text-decoration-style:solid;text-decoration-color:#000000;letter-spacing:normal;word-spacing:normal;text-transform:none;direction:ltr;block-progression:tb;writing-mode:lr-tb;baseline-shift:baseline;text-anchor:start;white-space:normal;clip-rule:nonzero;display:inline;overflow:visible;visibility:visible;opacity:0.5;isolation:auto;mix-blend-mode:normal;color-interpolation:sRGB;color-interpolation-filters:linearRGB;solid-color:#000000;solid-opacity:1;fill:#000000;fill-opacity:1;fill-rule:nonzero;stroke:none;stroke-width:60;stroke-linecap:butt;stroke-linejoin:miter;stroke-miterlimit:4;stroke-dasharray:none;stroke-dashoffset:0;stroke-opacity:1;color-rendering:auto;image-rendering:auto;shape-rendering:auto;text-rendering:auto;enable-background:accumulate"
           d="m 600,-207.63834 0,30 0,263.07617 1140,0 0,-293.07617 -1140,0 z"
           id="path4414" />
        <text
           sodipodi:linespacing="125%"
           id="text4516"
           y="55.436695"
           x="1169.8583"
           style="font-style:normal;font-variant:normal;font-weight:normal;font-stretch:condensed;font-size:291.41503906px;line-height:125%;font-family:Norwester;-inkscape-font-specification:'Norwester, Condensed';text-align:center;letter-spacing:0px;word-spacing:0px;writing-mode:lr-tb;text-anchor:middle;opacity:0.89899998;fill:#ffffff;fill-opacity:1;stroke:none;stroke-width:1px;stroke-linecap:butt;stroke-linejoin:miter;stroke-opacity:1"
           xml:space="preserve"><tspan
             y="55.436695"
             x="1169.8583"
             id="tspan4172"
             sodipodi:role="line">Ad Block</tspan></text>
      </g>
    </g>
  </g>
</svg>
