<?xml version="1.0" encoding="UTF-8" standalone="no"?>
<!-- Created with Inkscape (http://www.inkscape.org/) -->

<svg
   xmlns:dc="http://purl.org/dc/elements/1.1/"
   xmlns:cc="http://creativecommons.org/ns#"
   xmlns:rdf="http://www.w3.org/1999/02/22-rdf-syntax-ns#"
   xmlns:svg="http://www.w3.org/2000/svg"
   xmlns="http://www.w3.org/2000/svg"
   xmlns:sodipodi="http://sodipodi.sourceforge.net/DTD/sodipodi-0.dtd"
   xmlns:inkscape="http://www.inkscape.org/namespaces/inkscape"
   width="2560"
   height="1600"
   viewBox="0 0 2560 1600"
   id="svg4276"
   version="1.1"
   inkscape:version="0.91 r13725"
   sodipodi:docname="screenshot.svg"
   inkscape:export-filename="/home/manu/Code/indeed-ad-block/app/images/screenshot.png"
   inkscape:export-xdpi="45"
   inkscape:export-ydpi="45">
  <defs
     id="defs4278">
    <clipPath
       id="clipPath4869"
       clipPathUnits="userSpaceOnUse">
      <path
         inkscape:connector-curvature="0"
         id="path4871"
         d="m 155.379,744.209 9.419,0 0,-9.418 -9.419,0 0,9.418 z" />
    </clipPath>
    <clipPath
       id="clipPath4885"
       clipPathUnits="userSpaceOnUse">
      <path
         inkscape:connector-curvature="0"
         id="path4887"
         d="m 170.791,744.209 9.418,0 0,-9.418 -9.418,0 0,9.418 z" />
    </clipPath>
    <clipPath
       id="clipPath4901"
       clipPathUnits="userSpaceOnUse">
      <path
         inkscape:connector-curvature="0"
         id="path4903"
         d="m 186.202,744.209 9.419,0 0,-9.418 -9.419,0 0,9.418 z" />
    </clipPath>
  </defs>
  <sodipodi:namedview
     id="base"
     pagecolor="#ffffff"
     bordercolor="#666666"
     borderopacity="1.0"
     inkscape:pageopacity="0.0"
     inkscape:pageshadow="2"
     inkscape:zoom="0.35"
     inkscape:cx="1276.7297"
     inkscape:cy="771.31682"
     inkscape:document-units="px"
     inkscape:current-layer="layer1"
     showgrid="false"
     units="px"
     inkscape:window-width="1664"
     inkscape:window-height="904"
     inkscape:window-x="177"
     inkscape:window-y="96"
     inkscape:window-maximized="0"
     inkscape:snap-bbox="true"
     inkscape:bbox-nodes="false"
     inkscape:snap-page="false"
     showguides="true"
     inkscape:guide-bbox="true"
     inkscape:snap-bbox-edge-midpoints="true"
     inkscape:snap-smooth-nodes="false"
     inkscape:bbox-paths="false"
     inkscape:snap-intersection-paths="false"
     inkscape:object-nodes="false"
     inkscape:snap-grids="false"
     inkscape:snap-to-guides="true"
     borderlayer="true"
     inkscape:snap-bbox-midpoints="false"
     inkscape:snap-midpoints="true"
     inkscape:snap-others="false" />
  <metadata
     id="metadata4281">
    <rdf:RDF>
      <cc:Work
         rdf:about="">
        <dc:format>image/svg+xml</dc:format>
        <dc:type
           rdf:resource="http://purl.org/dc/dcmitype/StillImage" />
        <dc:title />
        <dc:creator>
          <cc:Agent>
            <dc:title>Manu Phatak &lt;bionikspoon@gmail.com&gt;</dc:title>
          </cc:Agent>
        </dc:creator>
        <dc:subject>
          <rdf:Bag>
            <rdf:li>Manu Phatak</rdf:li>
          </rdf:Bag>
        </dc:subject>
        <cc:license
           rdf:resource="http://creativecommons.org/licenses/by/3.0/" />
      </cc:Work>
      <cc:License
         rdf:about="http://creativecommons.org/licenses/by/3.0/">
        <cc:permits
           rdf:resource="http://creativecommons.org/ns#Reproduction" />
        <cc:permits
           rdf:resource="http://creativecommons.org/ns#Distribution" />
        <cc:requires
           rdf:resource="http://creativecommons.org/ns#Notice" />
        <cc:requires
           rdf:resource="http://creativecommons.org/ns#Attribution" />
        <cc:permits
           rdf:resource="http://creativecommons.org/ns#DerivativeWorks" />
      </cc:License>
    </rdf:RDF>
  </metadata>
  <g
     inkscape:label="Layer 1"
     inkscape:groupmode="layer"
     id="layer1"
     transform="translate(0,547.63784)">
    <rect
       style="opacity:0.43600003;fill:#130408;fill-opacity:1;stroke:none;stroke-width:2.5;stroke-linejoin:round;stroke-miterlimit:4;stroke-dasharray:none;stroke-opacity:1"
       id="rect4322"
       width="119.82195"
       height="21.509212"
       x="35.030804"
       y="-114.46482" />
    <path
       style="opacity:1;fill:#cccccc;fill-opacity:1;stroke:none;stroke-width:0.1;stroke-linejoin:miter;stroke-miterlimit:4;stroke-dasharray:none;stroke-opacity:1"
       d="M 15.980469 0 C 7.1275661 0 0 7.1275661 0 15.980469 L 0 104.54492 L 0 184.01953 L 0 200 L 15.980469 200 L 2544.0195 200 L 2560 200 L 2560 184.01953 L 2560 104.54492 L 2560 15.980469 C 2560 7.1275661 2552.8724 0 2544.0195 0 L 15.980469 0 z "
       id="rect5267"
       transform="translate(0,-547.63784)" />
    <g
       id="g4865"
       transform="matrix(4.545455,0,0,-4.545455,-668.17973,2870.5457)">
      <g
         id="g4867" />
      <g
         id="g4873">
        <g
           clip-path="url(#clipPath4869)"
           id="g4875"
           style="opacity:0.71000701">
          <g
             transform="translate(164.7979,739.5)"
             id="g4877">
            <path
               d="m 0,0 c 0,-2.601 -2.108,-4.709 -4.709,-4.709 -2.601,0 -4.709,2.108 -4.709,4.709 0,2.601 2.108,4.709 4.709,4.709 C -2.108,4.709 0,2.601 0,0"
               style="fill:#e74c3c;fill-opacity:1;fill-rule:nonzero;stroke:none"
               id="path4879"
               inkscape:connector-curvature="0" />
          </g>
        </g>
      </g>
    </g>
    <g
       id="g4881"
       transform="matrix(4.545455,0,0,-4.545455,-668.17973,2870.5457)">
      <g
         id="g4883" />
      <g
         id="g4889">
        <g
           clip-path="url(#clipPath4885)"
           id="g4891"
           style="opacity:0.71000701">
          <g
             transform="translate(180.209,739.5)"
             id="g4893">
            <path
               d="m 0,0 c 0,-2.601 -2.108,-4.709 -4.709,-4.709 -2.601,0 -4.709,2.108 -4.709,4.709 0,2.601 2.108,4.709 4.709,4.709 C -2.108,4.709 0,2.601 0,0"
               style="fill:#f1c40f;fill-opacity:1;fill-rule:nonzero;stroke:none"
               id="path4895"
               inkscape:connector-curvature="0" />
          </g>
        </g>
      </g>
    </g>
    <g
       id="g4897"
       transform="matrix(4.545455,0,0,-4.545455,-668.17973,2870.5457)">
      <g
         id="g4899" />
      <g
         id="g4905">
        <g
           clip-path="url(#clipPath4901)"
           id="g4907"
           style="opacity:0.71000701">
          <g
             transform="translate(195.6206,739.5)"
             id="g4909">
            <path
               d="m 0,0 c 0,-2.601 -2.108,-4.709 -4.709,-4.709 -2.601,0 -4.709,2.108 -4.709,4.709 0,2.601 2.108,4.709 4.709,4.709 C -2.108,4.709 0,2.601 0,0"
               style="fill:#2ecc71;fill-opacity:1;fill-rule:nonzero;stroke:none"
               id="path4911"
               inkscape:connector-curvature="0" />
          </g>
        </g>
      </g>
    </g>
    <g
       id="g4913"
       transform="matrix(4.545455,0,0,-4.5453192,759.09304,-506.53139)"
       style="fill:#e6e6e6;fill-opacity:1;stroke:none;stroke-width:0.01100016;stroke-linejoin:round;stroke-miterlimit:4;stroke-dasharray:none;stroke-opacity:1" />
    <g
       id="g4917"
       transform="matrix(3.196005,0,0,-3.6739789,2560,1518.4973)">
      <path
         d="m 0,0 c 0,-3.351 -2.508,-6.067 -5.603,-6.067 l -789.794,0 c -3.095,0 -5.603,2.716 -5.603,6.067 l 0,507.933 801,0 L 0,0 Z"
         style="fill:#f2f2f2;fill-opacity:1;fill-rule:nonzero;stroke:none"
         id="path4919"
         inkscape:connector-curvature="0" />
    </g>
    <path
       id="path4921"
       style="fill:#e6e6e6;fill-opacity:1;fill-rule:nonzero;stroke:none"
       d="m 2560,-347.63783 -2559.99799471,0 0,-95.45454 2559.99799471,0 0,95.45454 z M 759.09304,-506.53139 c -1.8,-5.40438 -6.10455,-9.28609 -13.63636,-9.28609 l -413.63641,0 c -7.53182,0 -11.83636,4.07261 -13.63636,9.28609 l -18.18182,56.48468 c -1.56364,4.53623 -9.09091,6.95434 -9.09091,6.95434 l 495.45459,0 c 0,0 -7.52727,-1.99085 -9.09091,-6.95434 l -18.18182,-56.48468 z" />
    <rect
       style="opacity:1;fill:#ffffff;fill-opacity:1;stroke:none;stroke-width:0.05;stroke-linejoin:round;stroke-miterlimit:4;stroke-dasharray:none;stroke-opacity:1"
       id="rect5312"
       width="2536"
       height="71.453133"
       x="12"
       y="-431.0918"
       rx="5"
       ry="5" />
    <text
       xml:space="preserve"
       style="font-style:normal;font-variant:normal;font-weight:normal;font-stretch:normal;font-size:49.4244194px;line-height:125%;font-family:Ubuntu;-inkscape-font-specification:Ubuntu;letter-spacing:0px;word-spacing:0px;fill:#66a00f;fill-opacity:1;stroke:none;stroke-width:1px;stroke-linecap:butt;stroke-linejoin:miter;stroke-opacity:1"
       x="28.046047"
       y="-380.49023"
       id="text5044"
       sodipodi:linespacing="125%"><tspan
         sodipodi:role="line"
         id="tspan5046"
         x="28.046047"
         y="-380.49023"
         style="font-size:50px">https<tspan
   style="font-size:50px;fill:#a29ea7;fill-opacity:1"
   id="tspan5048">://</tspan><tspan
   style="font-size:50px;fill:#3d3d3d;fill-opacity:1"
   id="tspan5128">www.indeed.com</tspan><tspan
   style="font-size:50px;fill:#a29ea7;fill-opacity:1"
   id="tspan5130">/q?rap+superstar&amp;l=straight+outta+compton</tspan></tspan></text>
    <g
       transform="matrix(3.196005,0,0,-3.6739789,2560,1518.4973)"
       id="g4168"
       style="fill:#ffffff">
      <path
         inkscape:connector-curvature="0"
         id="path4170"
         style="fill:#ffffff;fill-opacity:1;fill-rule:nonzero;stroke:none"
         d="m 0,0 c 0,-3.351 -2.508,-6.067 -5.603,-6.067 l -789.794,0 c -3.095,0 -5.603,2.716 -5.603,6.067 l 0,507.933 801,0 L 0,0 Z" />
    </g>
    <path
       inkscape:connector-curvature="0"
       id="path4197"
       style="fill:#918f90;fill-opacity:1;fill-rule:nonzero;stroke:none"
       d="m 362.47281,-309.42195 1.47741,0 c 0.70839,0 1.19162,-0.10671 1.44921,-0.3187 0.26042,-0.21154 0.38828,-0.48746 0.38828,-0.83155 0,-0.22234 -0.064,-0.42353 -0.1871,-0.59792 -0.12597,-0.17628 -0.29519,-0.30789 -0.51424,-0.39156 -0.22046,-0.0907 -0.62894,-0.13209 -1.22828,-0.13209 l -1.38528,0 0,2.27182 z m -1.22123,4.25313 0,-7.55157 2.5957,0 c 0.88607,0 1.52959,0.0672 1.92773,0.20824 0.39955,0.14008 0.71215,0.38263 0.95282,0.73142 0.23503,0.34879 0.35114,0.7159 0.35114,1.10183 0,0.55561 -0.20212,1.0346 -0.59181,1.44402 -0.39486,0.40943 -0.92039,0.6407 -1.57002,0.68912 0.267,0.10999 0.47947,0.24396 0.64306,0.39674 0.30084,0.29708 0.67078,0.79911 1.11545,1.50467 l 0.9171,1.47553 -1.50045,0 -0.66796,-1.19067 c -0.52693,-0.93166 -0.94717,-1.51548 -1.26212,-1.75381 -0.22187,-0.17627 -0.54668,-0.26746 -0.97444,-0.26746 l -0.71497,0 0,3.21194 -1.22123,0 z m 3.07469,-9.7557 c -0.98994,0 -1.95311,0.25759 -2.88712,0.7601 -0.93401,0.50907 -1.67061,1.23345 -2.19614,2.17356 -0.53164,0.9439 -0.79206,1.92304 -0.79206,2.9412 0,1.01816 0.26042,1.98648 0.77513,2.91768 0.51943,0.93119 1.24614,1.65415 2.18016,2.17216 0.9312,0.52131 1.90517,0.77984 2.92003,0.77984 1.0144,0 1.98462,-0.25853 2.91957,-0.77984 0.92931,-0.51801 1.65557,-1.24097 2.1717,-2.17216 0.51472,-0.9312 0.77702,-1.89952 0.77702,-2.91768 0,-1.01816 -0.26606,-1.9973 -0.78925,-2.9412 -0.52177,-0.94011 -1.25648,-1.66449 -2.19661,-2.17356 -0.94247,-0.50251 -1.89952,-0.7601 -2.88243,-0.7601 m 0,-1.16106 c 1.17799,0 2.33199,0.30225 3.45545,0.91004 1.12485,0.60498 2.00294,1.47366 2.63141,2.60086 0.62471,1.13051 0.94154,2.3052 0.94154,3.52502 0,1.21417 -0.31118,2.37993 -0.9312,3.4982 -0.61907,1.11782 -1.48399,1.9832 -2.5971,2.60463 -1.11639,0.61908 -2.28639,0.92555 -3.5001,0.92555 -1.21981,0 -2.38369,-0.30647 -3.50244,-0.92555 -1.11406,-0.62143 -1.97944,-1.48681 -2.60415,-2.60463 -0.62095,-1.11827 -0.93496,-2.28403 -0.93496,-3.4982 0,-1.21982 0.32059,-2.39451 0.95094,-3.52502 0.62989,-1.1272 1.50985,-1.99588 2.63142,-2.60086 1.12674,-0.60779 2.27699,-0.91004 3.45919,-0.91004" />
    <path
       inkscape:connector-curvature="0"
       id="path4199"
       style="fill:#2164f3;fill-opacity:1;fill-rule:evenodd;stroke:none"
       d="m 338.07228,-255.34489 c -1.17045,2.50638 -2.72449,4.36355 -4.62402,5.57359 -1.94888,1.21079 -4.06652,1.81487 -6.39851,1.81487 l -0.0428,0 c -2.3334,0 -4.45244,-0.6469 -6.39804,-1.89953 -1.94558,-1.29634 -3.49821,-3.19973 -4.62355,-5.70469 -1.12344,-2.54915 -1.6861,-5.61821 -1.6861,-9.25039 0,-3.41642 0.51847,-6.43892 1.5968,-8.99043 1.03836,-2.59193 2.55338,-4.58219 4.45338,-5.96605 1.94513,-1.42241 4.1046,-2.07204 6.56915,-2.07204 l 0.13113,0 c 2.29298,0 4.40779,0.69241 6.35432,2.03303 1.94372,1.3392 3.49775,3.28293 4.66821,5.83443 1.16529,2.54915 1.72608,5.61679 1.72608,9.16106 0,3.80282 -0.56079,6.95977 -1.72608,9.46615 m 13.43865,-54.37274 c -1.12251,-1.29737 -2.63612,-1.94371 -4.66538,-1.94371 -2.03208,0 -3.5894,0.69053 -4.66821,2.11857 -1.08255,1.38106 -1.64474,3.45733 -1.64474,6.18087 l 0,19.70602 c -2.50498,-2.76586 -5.09926,-4.75282 -7.73772,-6.09344 -1.63959,-0.82262 -3.5833,-1.42618 -5.74513,-1.72889 -1.25318,-0.17298 -2.55056,-0.25995 -3.97814,-0.25995 -6.61285,0 -11.96971,2.33575 -16.07665,7.00207 -4.06087,4.6682 -6.09437,11.15038 -6.09437,19.49495 0,3.93208 0.52224,7.60469 1.55779,10.97834 1.03414,3.3703 2.50355,6.30637 4.49381,8.81274 1.99025,2.50883 4.36313,4.40925 7.08762,5.79688 2.72402,1.33672 5.66286,2.02785 8.86211,2.02785 1.46848,0 2.85,-0.12978 4.14783,-0.38831 0.86352,-0.12965 1.68613,-0.34686 2.50827,-0.60686 2.0302,-0.69099 3.92973,-1.6847 5.65957,-2.93372 1.77214,-1.30019 3.54663,-2.98433 5.31501,-5.01609 l 0,1.29653 c 0,2.46365 0.60685,4.32129 1.77448,5.65825 1.20901,1.29907 2.72214,1.9902 4.53847,1.9902 1.85674,0 3.37176,-0.64685 4.53799,-1.90192 1.16529,-1.2978 1.77308,-3.19827 1.77308,-5.74653 l 0,-58.78052 c 0,-2.4636 -0.56454,-4.36689 -1.64569,-5.66333" />
    <path
       inkscape:connector-curvature="0"
       id="path4201"
       style="fill:#2164f3;fill-opacity:1;fill-rule:evenodd;stroke:none"
       d="m 265.67402,-279.2025 c 2.12046,-2.29016 4.84448,-3.41548 8.17158,-3.41548 l 0.0433,0 c 3.45825,0 6.26453,1.12532 8.38123,3.3727 2.12139,2.24644 3.3774,5.65957 3.67401,10.24174 l -24.15986,0 c 0.43434,-4.49662 1.73172,-7.90834 3.88978,-10.19896 m 31.12104,24.41839 c -0.82215,-0.73142 -1.94372,-1.12345 -3.33087,-1.12345 -1.25508,0 -2.20367,0.30414 -2.89607,0.86492 -1.68235,1.55638 -3.0211,2.80769 -4.06135,3.71627 -1.03414,0.86445 -2.20365,1.728 -3.45731,2.551 -1.21042,0.77982 -2.50451,1.38156 -3.80047,1.73045 -1.3425,0.38779 -2.76868,0.56021 -4.36501,0.56021 -0.34784,0 -0.69288,0 -0.99512,-0.0422 -1.98791,-0.13016 -3.84607,-0.69424 -5.52984,-1.72838 -1.99025,-1.17003 -3.54898,-2.89695 -4.75751,-5.14395 -1.16576,-2.33528 -1.77308,-5.01323 -1.81727,-8.0395 l 26.06692,0 c 3.49868,0 6.22082,-0.51848 8.12175,-1.46895 1.94607,-1.03931 2.89466,-3.19878 2.89466,-6.52824 0,-3.62654 -0.94859,-7.17318 -2.80534,-10.67467 -1.8638,-3.45591 -4.62731,-6.31108 -8.38735,-8.5138 -3.71679,-2.20365 -8.1683,-3.28433 -13.39869,-3.28433 l -0.38733,0 c -3.84607,0.0428 -7.3927,0.69005 -10.5473,1.90093 -3.28292,1.29785 -6.04925,3.1532 -8.34222,5.53359 -2.20412,2.41754 -3.93254,5.31595 -5.09924,8.68772 -1.16764,3.36848 -1.77074,7.04296 -1.77074,10.97551 0,8.385 2.37759,14.95508 7.12993,19.84007 4.49663,4.62534 10.71745,7.04344 18.62957,7.30286 0.43245,0.0428 0.90534,0.0428 1.38104,0.0428 3.71914,0 7.04626,-0.47425 9.94138,-1.47097 2.89606,-0.99315 5.27458,-2.20173 7.17646,-3.67251 1.89906,-1.51122 3.32523,-3.06755 4.27617,-4.66633 0.95093,-1.60061 1.42617,-3.02678 1.42617,-4.19438 0,-1.34014 -0.42728,-2.41895 -1.29502,-3.15459" />
    <path
       inkscape:connector-curvature="0"
       id="path4203"
       style="fill:#2164f3;fill-opacity:1;fill-rule:evenodd;stroke:none"
       d="m 212.29641,-279.2025 c 2.12093,-2.29016 4.84447,-3.41548 8.16783,-3.41548 l 0.047,0 c 3.45355,0 6.26454,1.12532 8.38123,3.3727 2.16653,2.24644 3.37224,5.65957 3.71915,10.24174 l -24.20499,0 c 0.47383,-4.49662 1.77309,-7.90834 3.88978,-10.19896 m 27.83529,23.29494 c -1.29409,0 -2.24878,0.30414 -2.93931,0.86492 -1.641,1.55638 -3.02439,2.80769 -4.0623,3.71627 -1.03461,0.86445 -2.15947,1.728 -3.41312,2.551 -1.25507,0.77982 -2.50826,1.38156 -3.8456,1.73045 -1.29878,0.38779 -2.7682,0.56021 -4.36547,0.56021 -0.34644,0 -0.69241,0 -0.99466,-0.0422 -1.98837,-0.13016 -3.84981,-0.69424 -5.53124,-1.72838 -1.94466,-1.17003 -3.54663,-2.89695 -4.71098,-5.14395 -1.21182,-2.33528 -1.81961,-5.01323 -1.86239,-8.0395 l 26.10686,0 c 3.45732,0 6.18275,-0.51848 8.12506,-1.46895 1.90141,-1.03931 2.85234,-3.19878 2.85234,-6.52824 0,-3.62654 -0.90675,-7.17318 -2.7635,-10.67467 -1.86004,-3.45591 -4.66961,-6.31108 -8.38641,-8.5138 -3.71773,-2.20365 -8.20966,-3.28433 -13.39728,-3.28433 l -0.43246,0 c -3.84981,0.0428 -7.34756,0.69005 -10.54635,1.90093 -3.28528,1.29785 -6.0516,3.1532 -8.29991,5.53359 -2.24691,2.41754 -3.97721,5.31595 -5.14344,8.68772 -1.1681,3.36848 -1.77355,7.04296 -1.77355,10.97551 0,8.385 2.42318,14.95508 7.17505,19.84007 4.49663,4.62534 10.67609,7.04344 18.5882,7.30286 0.47524,0.0428 0.90675,0.0428 1.38104,0.0428 3.76192,0 7.04532,-0.47425 9.94139,-1.47097 2.89464,-0.99315 5.27552,-2.20173 7.17645,-3.67251 1.94372,-1.51122 3.32617,-3.06755 4.27617,-4.66633 0.95283,-1.60061 1.42617,-3.02678 1.42617,-4.19438 0,-1.34014 -0.43244,-2.41895 -1.2513,-3.15459 -0.86539,-0.73142 -1.98649,-1.12345 -3.32946,-1.12345" />
    <path
       inkscape:connector-curvature="0"
       id="path4205"
       style="fill:#2164f3;fill-opacity:1;fill-rule:evenodd;stroke:none"
       d="m 62.795483,-246.48471 0,-31.81198 c 0.908022,0.087 1.771389,0.13209 2.681197,0.13209 4.320731,0 8.381658,-1.16999 11.838835,-3.24015 l 0,34.92004 c 0,2.98213 -0.688784,5.18669 -2.029358,6.65525 -1.338977,1.46896 -3.111963,2.20413 -5.273363,2.20413 -2.116556,0 -3.8007,-0.73517 -5.187952,-2.24746 -1.336907,-1.46806 -2.029359,-3.67199 -2.029359,-6.61192" />
    <path
       inkscape:connector-curvature="0"
       id="path4207"
       style="fill:#2164f3;fill-opacity:1;fill-rule:evenodd;stroke:none"
       d="m 174.95314,-255.34489 c -1.16622,2.50638 -2.72214,4.36355 -4.6682,5.57359 -1.89953,1.21079 -4.06229,1.81487 -6.35385,1.81487 l -0.0409,0 c -2.33433,0 -4.45431,-0.6469 -6.39709,-1.89953 -1.9879,-1.29634 -3.49963,-3.19973 -4.62496,-5.70469 -1.12297,-2.54915 -1.68518,-5.61821 -1.68518,-9.25039 0,-3.41642 0.51707,-6.43892 1.55545,-8.99043 1.08067,-2.59193 2.54963,-4.58219 4.49381,-5.96605 1.90328,-1.42241 4.10694,-2.07204 6.52824,-2.07204 l 0.17063,0 c 2.29156,0 4.41014,0.69241 6.31343,2.03303 1.98648,1.3392 3.5424,3.28293 4.70862,5.83443 1.12392,2.54915 1.73031,5.61679 1.73031,9.16106 0,3.80282 -0.60639,6.95977 -1.73031,9.46615 m 13.39869,-54.37274 c -1.12156,-1.29737 -2.67747,-1.94371 -4.62401,-1.94371 -2.03067,0 -3.59082,0.69053 -4.66773,2.11669 -1.12533,1.38294 -1.63958,3.45921 -1.63958,6.18275 l 0,19.70602 c -2.51014,-2.76586 -5.10113,-4.75282 -7.73867,-6.09344 -1.68611,-0.82262 -3.58798,-1.42618 -5.75075,-1.72889 -1.25131,-0.17298 -2.54727,-0.25995 -3.9758,-0.25995 -6.61191,0 -12.01482,2.33575 -16.07759,7.00207 -4.0604,4.6682 -6.09202,11.15038 -6.09202,19.49495 0,3.93208 0.51801,7.60469 1.50984,10.97834 1.03932,3.3703 2.55104,6.30637 4.53941,8.81274 1.98885,2.50883 4.36501,4.40925 7.08762,5.79688 2.72356,1.33672 5.66144,2.02785 8.86211,2.02785 1.42429,0 2.8077,-0.12978 4.14643,-0.38831 0.86538,-0.12965 1.68612,-0.34686 2.50685,-0.60686 2.03302,-0.69099 3.93443,-1.6847 5.66333,-2.93372 1.77119,-1.30019 3.5015,-2.98433 5.31924,-5.01609 l 0,1.29653 c 0,2.46365 0.60168,4.32129 1.76933,5.65825 1.16669,1.29907 2.72213,1.9902 4.53798,1.9902 1.77214,0 3.32759,-0.64685 4.49428,-1.90192 1.16764,-1.2978 1.73172,-3.19827 1.73172,-5.74653 l 0,-58.78052 c 0,-2.4636 -0.52365,-4.36689 -1.60199,-5.66333" />
    <path
       inkscape:connector-curvature="0"
       id="path4209"
       style="fill:#2164f3;fill-opacity:1;fill-rule:evenodd;stroke:none"
       d="m 98.627969,-284.47615 0,1.64147 c 2.374761,-3.11182 4.927671,-5.35685 7.690711,-6.82533 2.80769,-1.42853 6.01023,-2.16324 9.64006,-2.16324 3.49869,0 6.65328,0.77608 9.41961,2.2911 2.76867,1.51314 4.79794,3.67261 6.18369,6.4817 0.90722,1.64711 1.46706,3.41314 1.72654,5.31642 0.25806,1.85863 0.39015,4.27947 0.39015,7.21689 l 0,24.76817 c 0,2.6788 -0.64963,4.70816 -1.85675,6.05151 -1.21323,1.381 -2.81145,2.07213 -4.75752,2.07213 -1.98695,0 -3.58563,-0.69113 -4.83836,-2.1173 -1.25506,-1.38519 -1.86051,-3.41436 -1.86051,-6.00634 l 0,-22.17248 c 0,-4.41107 -0.60403,-7.77955 -1.81445,-10.1153 -1.21229,-2.33011 -3.67589,-3.5015 -7.30431,-3.5015 -2.37665,0 -4.53846,0.73518 -6.48454,2.11998 -1.94558,1.42571 -3.41407,3.37037 -4.32035,5.87675 -0.648212,1.98648 -0.952347,5.66144 -0.952347,11.15178 l 0,16.64077 c 0,2.72012 -0.646336,4.70816 -1.89953,6.09579 -1.255541,1.33672 -2.852342,2.02785 -4.842591,2.02785 -1.944654,0 -3.501974,-0.69113 -4.753284,-2.1173 -1.255544,-1.38519 -1.860514,-3.41436 -1.860514,-6.00634 l 0,-38.51142 c 0,-2.55009 0.564546,-4.44962 1.685647,-5.66003 1.08115,-1.25508 2.595692,-1.90283 4.541754,-1.90283 1.162472,0 2.204132,0.25995 3.152721,0.82027 0.950934,0.56267 1.727009,1.3834 2.291085,2.50873 0.562666,1.1211 0.823088,2.46172 0.823088,4.0181" />
    <path
       inkscape:connector-curvature="0"
       id="path4211"
       style="fill:#2164f3;fill-opacity:1;fill-rule:evenodd;stroke:none"
       d="m 62.882727,-322.72757 c 8.989028,-3.24015 19.232843,-3.06576 26.928725,3.58704 1.424295,1.34062 3.065755,3.02675 3.712095,5.01324 0.78171,2.50825 -2.720729,-0.25619 -3.195492,-0.60309 -2.508734,-1.64335 -5.016995,-3.02345 -7.822332,-3.97581 -15.127683,-4.66585 -29.434305,3.75817 -38.339426,16.85602 -3.71717,5.78931 -6.135083,11.88509 -8.123485,18.58632 -0.217038,0.73377 -0.391479,1.68424 -0.77983,2.33246 -0.390007,0.73517 -0.170767,-1.99073 -0.170767,-2.07392 0.300952,-2.7668 0.863376,-5.44851 1.555988,-8.12553 4.105338,-14.26596 13.181232,-26.14917 26.234524,-31.59673" />
    <path
       inkscape:connector-curvature="0"
       id="path4213"
       style="fill:#2164f3;fill-opacity:1;fill-rule:evenodd;stroke:none"
       d="m 74.593517,-287.32802 c -5.401501,2.76632 -12.014874,0.60685 -14.735555,-4.79794 -2.76844,-5.40291 -0.608686,-12.01719 4.796106,-14.73932 5.403194,-2.76303 12.017319,-0.60309 14.739458,4.79936 2.76482,5.40008 0.603373,12.01388 -4.800009,14.7379" />
    <path
       inkscape:connector-curvature="0"
       id="path4215"
       style="fill:#100f0d;fill-opacity:1;fill-rule:nonzero;stroke:none"
       d="m 110.43127,-217.8977 c 0,1.90086 0.41694,3.3257 1.24566,4.27246 0.82826,0.94525 1.87367,1.4186 3.13203,1.4186 1.2499,0 2.28734,-0.47537 3.11935,-1.42523 0.82732,-0.95094 1.24049,-2.40061 1.24049,-4.34955 0,-1.83803 -0.41458,-3.22656 -1.24943,-4.17326 -0.83295,-0.9453 -1.87132,-1.41866 -3.11041,-1.41866 -1.25836,0 -2.30377,0.46969 -3.13203,1.40982 -0.82872,0.94341 -1.24566,2.3639 -1.24566,4.26582 m -2.58536,0 c 0,-2.75076 0.76433,-4.78581 2.29533,-6.11045 1.27481,-1.09802 2.83072,-1.64851 4.66772,-1.64851 2.04196,0 3.7121,0.66946 5.00665,2.00492 1.29409,1.33672 1.94184,3.18651 1.94184,5.5458 0,1.9102 -0.28486,3.41403 -0.85974,4.50693 -0.57349,1.09713 -1.40832,1.94804 -2.50357,2.55344 -1.09431,0.6035 -2.2892,0.90999 -3.58518,0.90999 -2.07814,0 -3.75815,-0.66983 -5.04002,-2.00106 -1.28186,-1.33362 -1.92303,-3.25467 -1.92303,-5.76106" />
    <path
       inkscape:connector-curvature="0"
       id="path4217"
       style="fill:#100f0d;fill-opacity:1;fill-rule:nonzero;stroke:none"
       d="m 124.42083,-210.47214 0,-14.84979 2.26477,0 0,2.11346 c 1.09102,-1.63441 2.66855,-2.44819 4.72461,-2.44819 0.89923,0 1.72183,0.16231 2.46783,0.48234 0.74928,0.32062 1.31194,0.74402 1.68565,1.26644 0.37369,0.52074 0.63364,1.1408 0.78548,1.85675 0.0921,0.46804 0.13819,1.28276 0.13819,2.44743 l 0,9.13156 -2.51719,0 0,-9.0313 c 0,-1.02568 -0.0978,-1.79338 -0.29144,-2.30293 -0.19602,-0.50865 -0.54292,-0.91037 -1.04306,-1.21557 -0.49875,-0.30405 -1.08444,-0.45555 -1.75382,-0.45555 -1.07363,0 -1.99776,0.34188 -2.77573,1.02347 -0.77795,0.67867 -1.1681,1.96895 -1.1681,3.87233 l 0,8.10955 -2.51719,0" />
    <path
       inkscape:connector-curvature="0"
       id="path4219"
       style="fill:#100f0d;fill-opacity:1;fill-rule:nonzero;stroke:none"
       d="m 141.96031,-219.32204 8.29099,0 c -0.11376,-1.25136 -0.4287,-2.18485 -0.95094,-2.81135 -0.79771,-0.97026 -1.84077,-1.45499 -3.11512,-1.45499 -1.15729,0 -2.13127,0.38687 -2.91674,1.1634 -0.7883,0.77227 -1.2231,1.80514 -1.30819,3.10294 m 8.26419,4.06606 2.60086,0.32063 c -0.40942,1.52202 -1.17092,2.70231 -2.27839,3.53906 -1.10935,0.84043 -2.52848,1.25888 -4.25127,1.25888 -2.17074,0 -3.894,-0.668 -5.16457,-2.00675 -1.27482,-1.33734 -1.91082,-3.21336 -1.91082,-5.62756 0,-2.4974 0.64446,-4.43641 1.92821,-5.81666 1.2875,-1.37917 2.95575,-2.06828 5.00852,-2.06828 1.98273,0 3.60821,0.67515 4.86517,2.02602 1.25882,1.35327 1.88729,3.2543 1.88729,5.70558 0,0.15 -0.008,0.3724 -0.0146,0.67168 l -11.07376,0 c 0.0931,1.63037 0.55608,2.87876 1.38575,3.74415 0.82778,0.86873 1.86191,1.30259 3.10288,1.30259 0.92181,0 1.70868,-0.24344 2.36208,-0.72583 0.65339,-0.4866 1.16998,-1.2607 1.55262,-2.32351" />
    <path
       inkscape:connector-curvature="0"
       id="path4221"
       style="fill:#100f0d;fill-opacity:1;fill-rule:nonzero;stroke:none"
       d="m 162.36296,-214.90767 2.4871,-0.39109 c 0.14244,0.99888 0.52836,1.7642 1.16764,2.29433 0.63506,0.53306 1.52958,0.79779 2.6742,0.79779 1.16058,0 2.01515,-0.23502 2.57407,-0.70711 0.56078,-0.46951 0.84047,-1.02271 0.84047,-1.65698 0,-0.56737 -0.24773,-1.01481 -0.7427,-1.34184 -0.34315,-0.22441 -1.20102,-0.50645 -2.57031,-0.85147 -1.84407,-0.4662 -3.12828,-0.87052 -3.83855,-1.21079 -0.71402,-0.3384 -1.25317,-0.80935 -1.61983,-1.41348 -0.36994,-0.5975 -0.55608,-1.26348 -0.55608,-1.99115 0,-0.65955 0.15183,-1.2758 0.45596,-1.83804 0.30272,-0.56314 0.71402,-1.03268 1.23533,-1.40502 0.39203,-0.2881 0.92602,-0.53216 1.60431,-0.73523 0.67502,-0.19869 1.39798,-0.29891 2.17029,-0.29891 1.16764,0 2.19144,0.16744 3.06952,0.50349 0.88277,0.33473 1.531,0.78918 1.95124,1.36407 0.42023,0.5716 0.7098,1.33842 0.86633,2.29636 l -2.45939,0.33656 c -0.1114,-0.76145 -0.43528,-1.35952 -0.97067,-1.78863 -0.53776,-0.42785 -1.29408,-0.64357 -2.27182,-0.64357 -1.1573,0 -1.98179,0.19278 -2.47629,0.57545 -0.49357,0.37972 -0.7427,0.82957 -0.7427,1.34058 0,0.32721 0.1034,0.62011 0.30789,0.87991 0.2073,0.27212 0.52928,0.49596 0.96457,0.67078 0.25336,0.0949 0.99418,0.30972 2.22575,0.6445 1.77918,0.47519 3.02298,0.86722 3.72666,1.16999 0.70321,0.30042 1.2546,0.74035 1.65698,1.31764 0.39955,0.58189 0.59792,1.29488 0.59792,2.15514 0,0.83733 -0.2435,1.62887 -0.73142,2.36833 -0.48934,0.74256 -1.19632,1.31321 -2.11811,1.7218 -0.92367,0.40561 -1.96769,0.60685 -3.13203,0.60685 -1.92915,0 -3.39997,-0.40101 -4.41296,-1.20379 -1.0097,-0.8015 -1.65604,-1.98898 -1.93337,-3.56647" />
    <path
       inkscape:connector-curvature="0"
       id="path4223"
       style="fill:#100f0d;fill-opacity:1;fill-rule:nonzero;stroke:none"
       d="m 179.30029,-219.32204 8.29098,0 c -0.11187,-1.25136 -0.42822,-2.18485 -0.95281,-2.81135 -0.80052,-0.97026 -1.83842,-1.45499 -3.11888,-1.45499 -1.15447,0 -2.12516,0.38687 -2.91439,1.1634 -0.78454,0.77227 -1.22076,1.80514 -1.3049,3.10294 m 8.26232,4.06606 2.60179,0.32063 c -0.41177,1.52202 -1.17187,2.70231 -2.28075,3.53906 -1.10794,0.84043 -2.52471,1.25888 -4.25125,1.25888 -2.17029,0 -3.89353,-0.668 -5.16318,-2.00675 -1.2734,-1.33734 -1.91034,-3.21336 -1.91034,-5.62756 0,-2.4974 0.64445,-4.43641 1.92961,-5.81666 1.28704,-1.37917 2.95388,-2.06828 5.00429,-2.06828 1.98744,0 3.60916,0.67515 4.86751,2.02602 1.25884,1.35327 1.88591,3.2543 1.88591,5.70558 0,0.15 -0.004,0.3724 -0.0108,0.67168 l -11.07376,0 c 0.0893,1.63037 0.55374,2.87876 1.38339,3.74415 0.82779,0.86873 1.86428,1.30259 3.10477,1.30259 0.92039,0 1.70916,-0.24344 2.36114,-0.72583 0.65338,-0.4866 1.16764,-1.2607 1.55168,-2.32351" />
    <path
       inkscape:connector-curvature="0"
       id="path4225"
       style="fill:#100f0d;fill-opacity:1;fill-rule:nonzero;stroke:none"
       d="m 202.51579,-217.92506 c -0.9152,0.3724 -2.28403,0.69151 -4.1107,0.94911 -1.03462,0.15131 -1.76415,0.3173 -2.1952,0.50442 -0.4287,0.1884 -0.7601,0.4587 -0.99136,0.81877 -0.23315,0.35917 -0.35067,0.75873 -0.35067,1.19203 0,0.67318 0.25383,1.23448 0.7615,1.67959 0.50955,0.44858 1.25178,0.67129 2.2328,0.67129 0.96646,0 1.83044,-0.21209 2.58442,-0.63604 0.75351,-0.424 1.30912,-1.00222 1.66543,-1.74106 0.26841,-0.56592 0.40378,-1.40597 0.40378,-2.51523 l 0,-0.92288 z m 0.21012,5.62239 c -0.9326,0.7907 -1.82855,1.3496 -2.69205,1.6792 -0.86163,0.32243 -1.78718,0.48606 -2.77479,0.48606 -1.62971,0 -2.88478,-0.39866 -3.76238,-1.19627 -0.8762,-0.79821 -1.31384,-1.81637 -1.31384,-3.0532 0,-0.72658 0.16546,-1.39224 0.49874,-1.99247 0.32905,-0.60172 0.76574,-1.08076 1.29785,-1.44746 0.5354,-0.36524 1.14084,-0.63919 1.81021,-0.82501 0.49356,-0.13236 1.24144,-0.25614 2.23798,-0.37826 2.03162,-0.24015 3.52829,-0.53084 4.48816,-0.86684 0.0104,-0.3456 0.0141,-0.56465 0.0141,-0.65569 0,-1.02662 -0.23644,-1.74973 -0.71544,-2.17038 -0.63976,-0.56592 -1.5968,-0.85035 -2.86457,-0.85035 -1.18362,0 -2.0584,0.20824 -2.6206,0.61917 -0.56455,0.41681 -0.98102,1.15021 -1.25178,2.20544 l -2.46031,-0.33567 c 0.22469,-1.05434 0.59133,-1.9032 1.10371,-2.55136 0.51331,-0.64818 1.25365,-1.1471 2.22575,-1.49541 0.96645,-0.34922 2.08943,-0.52549 3.36988,-0.52549 1.26588,0 2.29674,0.14943 3.08504,0.44859 0.79628,0.29745 1.37821,0.67533 1.74863,1.12391 0.37512,0.45206 0.63741,1.02328 0.78313,1.71424 0.0856,0.42879 0.12879,1.20326 0.12879,2.31966 l 0,3.35546 c 0,2.33983 0.0526,3.8187 0.16123,4.44065 0.1053,0.61714 0.31682,1.21426 0.63412,1.78201 l -2.62813,0 c -0.26276,-0.52225 -0.42869,-1.13238 -0.50343,-1.83053" />
    <path
       inkscape:connector-curvature="0"
       id="path4227"
       style="fill:#100f0d;fill-opacity:1;fill-rule:nonzero;stroke:none"
       d="m 208.64543,-210.47214 0,-14.84979 2.26994,0 0,2.25574 c 0.57488,-1.05764 1.10888,-1.75225 1.60009,-2.08849 0.48792,-0.33454 1.02756,-0.50198 1.61326,-0.50198 0.84799,0 1.71056,0.27081 2.58817,0.81048 l -0.86492,2.33524 c -0.62142,-0.36279 -1.23579,-0.54659 -1.84594,-0.54659 -0.55186,0 -1.04683,0.16818 -1.48447,0.49685 -0.43621,0.32942 -0.74833,0.79046 -0.93495,1.3786 -0.27968,0.89073 -0.42023,1.87217 -0.42023,2.93512 l 0,7.77482 -2.52095,0" />
    <path
       inkscape:connector-curvature="0"
       id="path4229"
       style="fill:#100f0d;fill-opacity:1;fill-rule:nonzero;stroke:none"
       d="m 227.61625,-215.91257 2.47113,0.32369 c -0.267,1.70548 -0.95752,3.0391 -2.07251,4.00546 -1.11264,0.96123 -2.48288,1.44601 -4.10554,1.44601 -2.03303,0 -3.66509,-0.66434 -4.90088,-1.99448 -1.23157,-1.3246 -1.85158,-3.23075 -1.85158,-5.70704 0,-1.60297 0.26182,-3.01081 0.79723,-4.2122 0.52928,-1.20251 1.33968,-2.10316 2.42553,-2.70104 1.08584,-0.60558 2.26758,-0.90449 3.5424,-0.90449 1.61325,0 2.936,0.40576 3.95558,1.22306 1.02803,0.81748 1.68659,1.97427 1.97285,3.47335 l -2.44573,0.37934 c -0.23175,-0.99832 -0.64305,-1.7486 -1.23956,-2.25208 -0.59087,-0.5033 -1.3049,-0.75539 -2.14302,-0.75539 -1.26965,0 -2.29674,0.4546 -3.09114,1.36464 -0.79252,0.9076 -1.18739,2.34665 -1.18739,4.31373 0,1.99411 0.38122,3.44289 1.14743,4.3472 0.76339,0.90633 1.75992,1.35617 2.99008,1.35617 0.98665,0 1.81397,-0.30371 2.47629,-0.91144 0.66091,-0.60173 1.07739,-1.53617 1.25883,-2.79449" />
    <path
       inkscape:connector-curvature="0"
       id="path4231"
       style="fill:#100f0d;fill-opacity:1;fill-rule:nonzero;stroke:none"
       d="m 231.95729,-210.47214 0,-20.49844 2.51484,0 0,7.35592 c 1.1714,-1.36224 2.65492,-2.042 4.44868,-2.042 1.09901,0 2.05512,0.21571 2.86317,0.64963 0.81179,0.43241 1.39045,1.03287 1.74111,1.79856 0.34926,0.76145 0.52318,1.87419 0.52318,3.32753 l 0,9.4088 -2.5153,0 0,-9.4088 c 0,-1.26076 -0.27218,-2.17405 -0.81934,-2.74897 -0.54291,-0.57287 -1.31335,-0.86027 -2.31036,-0.86027 -0.74787,0 -1.44733,0.19281 -2.10635,0.58245 -0.65809,0.38597 -1.12534,0.9091 -1.40408,1.57345 -0.28204,0.65935 -0.42071,1.57231 -0.42071,2.73901 l 0,8.12313 -2.51484,0" />
    <path
       inkscape:connector-curvature="0"
       id="path4233"
       style="fill:#100f0d;fill-opacity:1;fill-rule:nonzero;stroke:none"
       d="m 248.30705,-210.4736 2.86647,0 0,-2.86867 -2.86647,0 0,2.86867 z" />
    <path
       inkscape:connector-curvature="0"
       id="path4235"
       style="fill:#100f0d;fill-opacity:1;fill-rule:nonzero;stroke:none"
       d="m 272.41238,-217.92506 c -0.91098,0.3724 -2.28592,0.69151 -4.11071,0.94911 -1.03413,0.15131 -1.76462,0.3173 -2.19519,0.50442 -0.42729,0.1884 -0.75963,0.4587 -0.98996,0.81877 -0.23785,0.35917 -0.35396,0.75873 -0.35396,1.19203 0,0.67318 0.25619,1.23448 0.76339,1.67959 0.50766,0.44858 1.2499,0.67129 2.22904,0.67129 0.97022,0 1.83184,-0.21209 2.58723,-0.63604 0.75586,-0.424 1.31006,-1.00222 1.66449,-1.74106 0.2717,-0.56592 0.40567,-1.40597 0.40567,-2.51523 l 0,-0.92288 z m 0.21011,5.62239 c -0.9326,0.7907 -1.83042,1.3496 -2.6897,1.6792 -0.86397,0.32243 -1.78953,0.48606 -2.7776,0.48606 -1.633,0 -2.88196,-0.39866 -3.76145,-1.19627 -0.87432,-0.79821 -1.31383,-1.81637 -1.31383,-3.0532 0,-0.72658 0.16735,-1.39224 0.49451,-1.99247 0.33092,-0.60172 0.76714,-1.08076 1.30301,-1.44746 0.53447,-0.36524 1.13849,-0.63919 1.80881,-0.82501 0.49497,-0.13236 1.24284,-0.25614 2.23986,-0.37826 2.02972,-0.24015 3.52641,-0.53084 4.48628,-0.86684 0.0104,-0.3456 0.0141,-0.56465 0.0141,-0.65569 0,-1.02662 -0.2388,-1.74973 -0.71403,-2.17038 -0.64352,-0.56592 -1.59728,-0.85035 -2.86269,-0.85035 -1.18691,0 -2.0617,0.20824 -2.6239,0.61917 -0.56266,0.41681 -0.9829,1.15021 -1.25131,2.20544 l -2.46454,-0.33567 c 0.22799,-1.05434 0.59651,-1.9032 1.10747,-2.55136 0.5166,-0.64818 1.25367,-1.1471 2.22434,-1.49541 0.97162,-0.34922 2.0932,-0.52549 3.36895,-0.52549 1.26635,0 2.29673,0.14943 3.08737,0.44859 0.7963,0.29745 1.37823,0.67533 1.74864,1.12391 0.3737,0.45206 0.636,1.02328 0.78501,1.71424 0.0836,0.42879 0.12456,1.20326 0.12456,2.31966 l 0,3.35546 c 0,2.33983 0.0536,3.8187 0.16171,4.44065 0.10718,0.61714 0.32105,1.21426 0.636,1.78201 l -2.62766,0 c -0.25994,-0.52225 -0.43105,-1.13238 -0.50391,-1.83053" />
    <path
       inkscape:connector-curvature="0"
       id="path4237"
       style="fill:#100f0d;fill-opacity:1;fill-rule:nonzero;stroke:none"
       d="m 278.5171,-210.47214 2.51539,0 0,-20.49844 -2.51539,0 0,20.49844 z" />
    <path
       inkscape:connector-curvature="0"
       id="path4239"
       style="fill:#100f0d;fill-opacity:1;fill-rule:nonzero;stroke:none"
       d="m 284.59126,-210.47214 2.51612,0 0,-20.49844 -2.51612,0 0,20.49844 z" />
    <path
       inkscape:connector-curvature="0"
       id="path4241"
       style="fill:#100f0d;fill-opacity:1;fill-rule:nonzero;stroke:none"
       d="m 298.37587,-230.97058 2.51767,0 0,2.92281 -2.51767,0 0,-2.92281 z m -3.18609,26.25946 0.47711,-2.1397 c 0.50204,0.12981 0.89736,0.19371 1.18316,0.19371 0.51706,0 0.90159,-0.17058 1.14742,-0.50899 0.25619,-0.34043 0.3784,-1.19132 0.3784,-2.55306 l 0,-15.60277 2.51767,0 0,15.65918 c 0,1.82864 -0.23456,3.09818 -0.71215,3.81797 -0.60685,0.93021 -1.61279,1.39697 -3.02251,1.39697 -0.68018,0 -1.33545,-0.087 -1.9691,-0.26331" />
    <path
       inkscape:connector-curvature="0"
       id="path4243"
       style="fill:#100f0d;fill-opacity:1;fill-rule:nonzero;stroke:none"
       d="m 306.115,-217.8977 c 0,1.90086 0.41694,3.3257 1.24286,4.27246 0.83153,0.94525 1.87649,1.4186 3.13531,1.4186 1.24614,0 2.28781,-0.47537 3.11606,-1.42523 0.82731,-0.95094 1.24519,-2.40061 1.24519,-4.34955 0,-1.83803 -0.41788,-3.22656 -1.25131,-4.17326 -0.83341,-0.9453 -1.87131,-1.41866 -3.10994,-1.41866 -1.25882,0 -2.30378,0.46969 -3.13531,1.40982 -0.82592,0.94341 -1.24286,2.3639 -1.24286,4.26582 m -2.58676,0 c 0,-2.75076 0.76809,-4.78581 2.29344,-6.11045 1.27623,-1.09802 2.83448,-1.64851 4.67149,-1.64851 2.04196,0 3.71022,0.66946 5.00431,2.00492 1.29831,1.33672 1.94418,3.18651 1.94418,5.5458 0,1.9102 -0.28674,3.41403 -0.86163,4.50693 -0.57113,1.09713 -1.40595,1.94804 -2.49885,2.55344 -1.09901,0.6035 -2.29392,0.90999 -3.58801,0.90999 -2.08144,0 -3.76145,-0.66983 -5.04002,-2.00106 -1.28139,-1.33362 -1.92491,-3.25467 -1.92491,-5.76106" />
    <path
       inkscape:connector-curvature="0"
       id="path4245"
       style="fill:#100f0d;fill-opacity:1;fill-rule:nonzero;stroke:none"
       d="m 322.39801,-218.0082 c 0,1.7805 0.23879,3.06768 0.72625,3.85598 0.79253,1.29723 1.86662,1.94558 3.21571,1.94558 1.09853,0 2.05276,-0.47664 2.85187,-1.43458 0.80287,-0.95428 1.20196,-2.37528 1.20196,-4.26879 0,-1.94084 -0.3831,-3.37031 -1.15073,-4.293 -0.77043,-0.92377 -1.7021,-1.38537 -2.79124,-1.38537 -1.09853,0 -2.04901,0.4772 -2.85187,1.4337 -0.80286,0.95606 -1.20195,2.33523 -1.20195,4.14648 m 0.0268,7.53606 -2.33386,0 0,-20.49844 2.51578,0 0,7.31315 c 1.06046,-1.33123 2.41941,-1.99923 4.06934,-1.99923 0.91522,0 1.77543,0.18379 2.59428,0.55049 0.81462,0.36999 1.48399,0.88851 2.01328,1.55596 0.52695,0.66359 0.93779,1.46838 1.23909,2.40851 0.29426,0.94732 0.44657,1.94747 0.44657,3.01926 0,2.54587 -0.63177,4.51319 -1.89013,5.90204 -1.25742,1.3887 -2.76727,2.08299 -4.52719,2.08299 -1.75239,0 -3.12639,-0.72954 -4.12716,-2.19515 l 0,1.86042" />
    <path
       inkscape:connector-curvature="0"
       id="path4247"
       style="fill:#100f0d;fill-opacity:1;fill-rule:nonzero;stroke:none"
       d="m 334.73718,-214.90767 2.48899,-0.39109 c 0.13914,0.99888 0.52694,1.7642 1.16576,2.29433 0.63834,0.53306 1.53335,0.79779 2.67982,0.79779 1.15355,0 2.01376,-0.23502 2.57266,-0.70711 0.55891,-0.46951 0.83813,-1.02271 0.83813,-1.65698 0,-0.56737 -0.24725,-1.01481 -0.74271,-1.34184 -0.34408,-0.22441 -1.20054,-0.50645 -2.5717,-0.85147 -1.84454,-0.4662 -3.12452,-0.87052 -3.83667,-1.21079 -0.71544,-0.3384 -1.25554,-0.80935 -1.62218,-1.41348 -0.36807,-0.5975 -0.55375,-1.26348 -0.55375,-1.99115 0,-0.65955 0.15325,-1.2758 0.45174,-1.83804 0.30507,-0.56314 0.71967,-1.03268 1.23955,-1.40502 0.39203,-0.2881 0.92744,-0.53216 1.60104,-0.73523 0.67454,-0.19869 1.40267,-0.29891 2.17311,-0.29891 1.1667,0 2.18814,0.16744 3.07139,0.50349 0.88137,0.33473 1.52959,0.78918 1.94606,1.36407 0.42166,0.5716 0.71216,1.33842 0.87245,2.29636 l -2.46408,0.33656 c -0.11234,-0.76145 -0.43622,-1.35952 -0.9688,-1.78863 -0.5354,-0.42785 -1.29408,-0.64357 -2.27323,-0.64357 -1.15917,0 -1.98179,0.19278 -2.47301,0.57545 -0.49497,0.37972 -0.74411,0.82957 -0.74411,1.34058 0,0.32721 0.10153,0.62011 0.31025,0.87991 0.20448,0.27212 0.52694,0.49596 0.96081,0.67078 0.25618,0.0949 0.99559,0.30972 2.22575,0.6445 1.78202,0.47519 3.02109,0.86722 3.72572,1.16999 0.70181,0.30042 1.25696,0.74035 1.65792,1.31764 0.39861,0.58189 0.60168,1.29488 0.60168,2.15514 0,0.83733 -0.24773,1.62887 -0.73518,2.36833 -0.49028,0.74256 -1.19866,1.31321 -2.12046,1.7218 -0.92038,0.40561 -1.96581,0.60685 -3.12968,0.60685 -1.93055,0 -3.39856,-0.40101 -4.40825,-1.20379 -1.01675,-0.8015 -1.65934,-1.98898 -1.93902,-3.56647" />
    <path
       inkscape:connector-curvature="0"
       id="path4249"
       style="fill:#100f0d;fill-opacity:1;fill-rule:nonzero;stroke:none"
       d="m 350.48996,-210.4736 2.86206,0 0,-2.86867 -2.86206,0 0,2.86867 z" />
    <rect
       style="opacity:1;fill:#2c59db;fill-opacity:1;stroke:#2c59db;stroke-width:2.5;stroke-linejoin:round;stroke-miterlimit:4;stroke-dasharray:none;stroke-opacity:1"
       id="rect4284"
       width="182.63652"
       height="63.301739"
       x="1720.9915"
       y="-290.18561" />
    <rect
       style="opacity:1;fill:#ffffff;fill-opacity:1;stroke:#ababab;stroke-width:2.5;stroke-linejoin:round;stroke-miterlimit:4;stroke-dasharray:none;stroke-opacity:1"
       id="rect4280"
       width="578.54846"
       height="63.301739"
       x="589.28906"
       y="-290.18561" />
    <rect
       style="opacity:1;fill:#ff6600;fill-opacity:1;stroke:none;stroke-width:2.5;stroke-linejoin:round;stroke-miterlimit:4;stroke-dasharray:none;stroke-opacity:1"
       id="rect4286"
       width="68.086205"
       height="21.897974"
       x="595.72961"
       y="-324.78073" />
    <rect
       y="-218.34303"
       x="595.72961"
       height="21.897974"
       width="339.69482"
       id="rect4290"
       style="opacity:1;fill:#bcbace;fill-opacity:1;stroke:none;stroke-width:2.5;stroke-linejoin:round;stroke-miterlimit:4;stroke-dasharray:none;stroke-opacity:1" />
    <rect
       y="-290.18561"
       x="1176.3021"
       height="63.301739"
       width="534.38446"
       id="rect4282"
       style="opacity:1;fill:#ffffff;fill-opacity:1;stroke:#ababab;stroke-width:2.5;stroke-linejoin:round;stroke-miterlimit:4;stroke-dasharray:none;stroke-opacity:1" />
    <rect
       y="-324.78073"
       x="1181.4548"
       height="21.897974"
       width="84.095665"
       id="rect4288"
       style="opacity:1;fill:#ff6600;fill-opacity:1;stroke:none;stroke-width:2.5;stroke-linejoin:round;stroke-miterlimit:4;stroke-dasharray:none;stroke-opacity:1" />
    <rect
       style="opacity:1;fill:#bcbace;fill-opacity:1;stroke:none;stroke-width:2.5;stroke-linejoin:round;stroke-miterlimit:4;stroke-dasharray:none;stroke-opacity:1"
       id="rect4294"
       width="180.70442"
       height="21.897974"
       x="1181.4548"
       y="-218.34303" />
    <rect
       style="opacity:1;fill:#b71c1f;fill-opacity:1;stroke:none;stroke-width:2.5;stroke-linejoin:round;stroke-miterlimit:4;stroke-dasharray:none;stroke-opacity:1"
       id="rect4304"
       width="1316.9153"
       height="236.29695"
       x="588.00085"
       y="-164.13248" />
    <rect
       y="122.93356"
       x="588.00085"
       height="277.51669"
       width="1316.9153"
       id="rect4306"
       style="opacity:1;fill:#b71c1f;fill-opacity:1;stroke:none;stroke-width:2.5;stroke-linejoin:round;stroke-miterlimit:4;stroke-dasharray:none;stroke-opacity:1" />
    <rect
       style="opacity:1;fill:#b71c1f;fill-opacity:1;stroke:none;stroke-width:2.5;stroke-linejoin:round;stroke-miterlimit:4;stroke-dasharray:none;stroke-opacity:1"
       id="rect4308"
       width="1316.9153"
       height="277.51669"
       x="588.00085"
       y="451.21936" />
    <rect
       y="790.57086"
       x="588.00085"
       height="218.93216"
       width="1316.9153"
       id="rect4310"
       style="opacity:1;fill:#388e3c;fill-opacity:1;stroke:none;stroke-width:2.5;stroke-linejoin:round;stroke-miterlimit:4;stroke-dasharray:none;stroke-opacity:1" />
    <rect
       style="opacity:1;fill:#f7f7f6;fill-opacity:1;stroke:#bcbcbc;stroke-width:2.5;stroke-linejoin:round;stroke-miterlimit:4;stroke-dasharray:none;stroke-opacity:1"
       id="rect4328"
       width="238.83615"
       height="48.067974"
       x="43.661476"
       y="-79.273621" />
    <rect
       style="opacity:0.5;fill:#130408;fill-opacity:1;stroke:none;stroke-width:2.5;stroke-linejoin:round;stroke-miterlimit:4;stroke-dasharray:none;stroke-opacity:1"
       id="rect4332"
       width="187.48407"
       height="30.914804"
       x="33.989849"
       y="-117.1042" />
    <rect
       y="-4.0264683"
       x="33.989849"
       height="30.914804"
       width="197.62724"
       id="rect4330"
       style="opacity:0.5;fill:#130408;fill-opacity:1;stroke:none;stroke-width:2.5;stroke-linejoin:round;stroke-miterlimit:4;stroke-dasharray:none;stroke-opacity:1" />
    <rect
       style="opacity:0.5;fill:#676767;fill-opacity:1;stroke:none;stroke-width:2.5;stroke-linejoin:round;stroke-miterlimit:4;stroke-dasharray:none;stroke-opacity:1"
       id="rect4334"
       width="197.62724"
       height="30.914804"
       x="33.989849"
       y="31.615568" />
    <rect
       y="67.257561"
       x="33.989849"
       height="30.914804"
       width="197.62724"
       id="rect4338"
       style="opacity:0.5;fill:#676767;fill-opacity:1;stroke:none;stroke-width:2.5;stroke-linejoin:round;stroke-miterlimit:4;stroke-dasharray:none;stroke-opacity:1" />
    <rect
       style="opacity:0.5;fill:#676767;fill-opacity:1;stroke:none;stroke-width:2.5;stroke-linejoin:round;stroke-miterlimit:4;stroke-dasharray:none;stroke-opacity:1"
       id="rect4340"
       width="197.62724"
       height="30.914804"
       x="33.989849"
       y="174.18364" />
    <rect
       y="138.5416"
       x="33.989849"
       height="30.914804"
       width="197.62724"
       id="rect4342"
       style="opacity:0.5;fill:#676767;fill-opacity:1;stroke:none;stroke-width:2.5;stroke-linejoin:round;stroke-miterlimit:4;stroke-dasharray:none;stroke-opacity:1" />
    <rect
       y="102.89959"
       x="33.989849"
       height="30.914804"
       width="197.62724"
       id="rect4344"
       style="opacity:0.5;fill:#676767;fill-opacity:1;stroke:none;stroke-width:2.5;stroke-linejoin:round;stroke-miterlimit:4;stroke-dasharray:none;stroke-opacity:1" />
    <rect
       style="opacity:0.5;fill:#130408;fill-opacity:1;stroke:none;stroke-width:2.5;stroke-linejoin:round;stroke-miterlimit:4;stroke-dasharray:none;stroke-opacity:1"
       id="rect4346"
       width="197.62724"
       height="30.914804"
       x="33.989849"
       y="231.31023" />
    <rect
       y="267.86487"
       x="33.989849"
       height="30.914804"
       width="197.62724"
       id="rect4348"
       style="opacity:0.5;fill:#676767;fill-opacity:1;stroke:none;stroke-width:2.5;stroke-linejoin:round;stroke-miterlimit:4;stroke-dasharray:none;stroke-opacity:1" />
    <rect
       style="opacity:0.5;fill:#676767;fill-opacity:1;stroke:none;stroke-width:2.5;stroke-linejoin:round;stroke-miterlimit:4;stroke-dasharray:none;stroke-opacity:1"
       id="rect4350"
       width="197.62724"
       height="30.914804"
       x="33.989849"
       y="304.41956" />
    <rect
       y="414.08347"
       x="33.989849"
       height="30.914804"
       width="197.62724"
       id="rect4352"
       style="opacity:0.5;fill:#676767;fill-opacity:1;stroke:none;stroke-width:2.5;stroke-linejoin:round;stroke-miterlimit:4;stroke-dasharray:none;stroke-opacity:1" />
    <rect
       style="opacity:0.5;fill:#676767;fill-opacity:1;stroke:none;stroke-width:2.5;stroke-linejoin:round;stroke-miterlimit:4;stroke-dasharray:none;stroke-opacity:1"
       id="rect4354"
       width="197.62724"
       height="30.914804"
       x="33.989849"
       y="377.52884" />
    <rect
       style="opacity:0.5;fill:#676767;fill-opacity:1;stroke:none;stroke-width:2.5;stroke-linejoin:round;stroke-miterlimit:4;stroke-dasharray:none;stroke-opacity:1"
       id="rect4356"
       width="197.62724"
       height="30.914804"
       x="33.989849"
       y="340.97421" />
    <rect
       style="opacity:0.5;fill:#676767;fill-opacity:1;stroke:none;stroke-width:2.5;stroke-linejoin:round;stroke-miterlimit:4;stroke-dasharray:none;stroke-opacity:1"
       id="rect4358"
       width="197.62724"
       height="30.914804"
       x="33.989849"
       y="450.63809" />
    <rect
       y="507.76468"
       x="33.989849"
       height="30.914804"
       width="197.62724"
       id="rect4360"
       style="opacity:0.5;fill:#130408;fill-opacity:1;stroke:none;stroke-width:2.5;stroke-linejoin:round;stroke-miterlimit:4;stroke-dasharray:none;stroke-opacity:1" />
    <rect
       style="opacity:0.5;fill:#676767;fill-opacity:1;stroke:none;stroke-width:2.5;stroke-linejoin:round;stroke-miterlimit:4;stroke-dasharray:none;stroke-opacity:1"
       id="rect4362"
       width="197.62724"
       height="30.914804"
       x="33.989849"
       y="544.31927" />
    <rect
       y="580.87396"
       x="33.989849"
       height="30.914804"
       width="197.62724"
       id="rect4364"
       style="opacity:0.5;fill:#676767;fill-opacity:1;stroke:none;stroke-width:2.5;stroke-linejoin:round;stroke-miterlimit:4;stroke-dasharray:none;stroke-opacity:1" />
    <rect
       style="opacity:0.5;fill:#676767;fill-opacity:1;stroke:none;stroke-width:2.5;stroke-linejoin:round;stroke-miterlimit:4;stroke-dasharray:none;stroke-opacity:1"
       id="rect4366"
       width="197.62724"
       height="30.914804"
       x="33.989849"
       y="690.53796" />
    <rect
       y="653.98328"
       x="33.989849"
       height="30.914804"
       width="197.62724"
       id="rect4368"
       style="opacity:0.5;fill:#676767;fill-opacity:1;stroke:none;stroke-width:2.5;stroke-linejoin:round;stroke-miterlimit:4;stroke-dasharray:none;stroke-opacity:1" />
    <rect
       y="617.42871"
       x="33.989849"
       height="30.914804"
       width="197.62724"
       id="rect4370"
       style="opacity:0.5;fill:#676767;fill-opacity:1;stroke:none;stroke-width:2.5;stroke-linejoin:round;stroke-miterlimit:4;stroke-dasharray:none;stroke-opacity:1" />
    <rect
       y="727.09253"
       x="33.989849"
       height="30.914804"
       width="197.62724"
       id="rect4372"
       style="opacity:0.5;fill:#ff7d20;fill-opacity:1;stroke:none;stroke-width:2.5;stroke-linejoin:round;stroke-miterlimit:4;stroke-dasharray:none;stroke-opacity:1" />
    <rect
       style="opacity:0.5;fill:#130408;fill-opacity:1;stroke:none;stroke-width:2.5;stroke-linejoin:round;stroke-miterlimit:4;stroke-dasharray:none;stroke-opacity:1"
       id="rect4374"
       width="197.62724"
       height="30.914804"
       x="33.989849"
       y="784.21912" />
    <rect
       y="820.77374"
       x="33.989849"
       height="30.914804"
       width="197.62724"
       id="rect4376"
       style="opacity:0.5;fill:#676767;fill-opacity:1;stroke:none;stroke-width:2.5;stroke-linejoin:round;stroke-miterlimit:4;stroke-dasharray:none;stroke-opacity:1" />
    <rect
       style="opacity:0.5;fill:#676767;fill-opacity:1;stroke:none;stroke-width:2.5;stroke-linejoin:round;stroke-miterlimit:4;stroke-dasharray:none;stroke-opacity:1"
       id="rect4378"
       width="197.62724"
       height="30.914804"
       x="33.989849"
       y="857.32849" />
    <rect
       y="966.99249"
       x="33.989849"
       height="30.914804"
       width="197.62724"
       id="rect4380"
       style="opacity:0.5;fill:#676767;fill-opacity:1;stroke:none;stroke-width:2.5;stroke-linejoin:round;stroke-miterlimit:4;stroke-dasharray:none;stroke-opacity:1" />
    <rect
       style="opacity:0.5;fill:#676767;fill-opacity:1;stroke:none;stroke-width:2.5;stroke-linejoin:round;stroke-miterlimit:4;stroke-dasharray:none;stroke-opacity:1"
       id="rect4382"
       width="197.62724"
       height="30.914804"
       x="33.989849"
       y="930.43774" />
    <rect
       style="opacity:0.5;fill:#676767;fill-opacity:1;stroke:none;stroke-width:2.5;stroke-linejoin:round;stroke-miterlimit:4;stroke-dasharray:none;stroke-opacity:1"
       id="rect4384"
       width="197.62724"
       height="30.914804"
       x="33.989849"
       y="893.88324" />
    <rect
       style="opacity:0.5;fill:#ff7d20;fill-opacity:1;stroke:none;stroke-width:2.5;stroke-linejoin:round;stroke-miterlimit:4;stroke-dasharray:none;stroke-opacity:1"
       id="rect4386"
       width="197.62724"
       height="30.914804"
       x="33.989849"
       y="1003.5469" />
    <text
       xml:space="preserve"
       style="font-style:normal;font-variant:normal;font-weight:normal;font-stretch:normal;font-size:60px;line-height:125%;font-family:Ubuntu;-inkscape-font-specification:'Ubuntu, Normal';text-align:start;letter-spacing:0px;word-spacing:0px;writing-mode:lr-tb;text-anchor:start;fill:#ffffff;fill-opacity:1;stroke:none;stroke-width:1px;stroke-linecap:butt;stroke-linejoin:miter;stroke-opacity:1"
       x="608.84088"
       y="-28.344002"
       id="text4629"
       sodipodi:linespacing="125%"><tspan
         sodipodi:role="line"
         id="tspan4631"
         x="608.84088"
         y="-28.344002">Busboy  - Red Lobster</tspan></text>
    <text
       sodipodi:linespacing="125%"
       id="text4633"
       y="284.52191"
       x="608.84088"
       style="font-style:normal;font-variant:normal;font-weight:normal;font-stretch:normal;font-size:60px;line-height:125%;font-family:Ubuntu;-inkscape-font-specification:'Ubuntu, Normal';text-align:start;letter-spacing:0px;word-spacing:0px;writing-mode:lr-tb;text-anchor:start;fill:#ffffff;fill-opacity:1;stroke:none;stroke-width:1px;stroke-linecap:butt;stroke-linejoin:miter;stroke-opacity:1"
       xml:space="preserve"><tspan
         sodipodi:role="line"
         id="tspan4637"
         x="608.84088"
         y="284.52191">Mail Clerk  - USPS</tspan></text>
    <text
       xml:space="preserve"
       style="font-style:normal;font-variant:normal;font-weight:normal;font-stretch:normal;font-size:60px;line-height:125%;font-family:Ubuntu;-inkscape-font-specification:'Ubuntu, Normal';text-align:start;letter-spacing:0px;word-spacing:0px;writing-mode:lr-tb;text-anchor:start;fill:#ffffff;fill-opacity:1;stroke:none;stroke-width:1px;stroke-linecap:butt;stroke-linejoin:miter;stroke-opacity:1"
       x="609.98083"
       y="612.80768"
       id="text4639"
       sodipodi:linespacing="125%"><tspan
         sodipodi:role="line"
         id="tspan4643"
         x="609.98083"
         y="612.80768">Barista - Starbucks</tspan></text>
    <text
       sodipodi:linespacing="125%"
       id="text4645"
       y="884.61694"
       x="608.84088"
       style="font-style:normal;font-variant:normal;font-weight:normal;font-stretch:normal;font-size:60px;line-height:125%;font-family:Ubuntu;-inkscape-font-specification:'Ubuntu, Normal';text-align:start;letter-spacing:0px;word-spacing:0px;writing-mode:lr-tb;text-anchor:start;fill:#ffffff;fill-opacity:1;stroke:none;stroke-width:1px;stroke-linecap:butt;stroke-linejoin:miter;stroke-opacity:1"
       xml:space="preserve"><tspan
         sodipodi:role="line"
         id="tspan4665"
         x="608.84088"
         y="884.61694">Jr Gangsta Rap Artist </tspan><tspan
         sodipodi:role="line"
         id="tspan4667"
         x="608.84088"
         y="959.61694">NWA</tspan></text>
    <text
       xml:space="preserve"
       style="font-style:normal;font-variant:normal;font-weight:500;font-stretch:normal;font-size:180px;line-height:125%;font-family:Ubuntu;-inkscape-font-specification:'Ubuntu Medium';text-align:center;letter-spacing:0px;word-spacing:0px;text-anchor:middle;opacity:0.98999999;fill:#ffffff;fill-opacity:1;stroke:none;stroke-width:1px;stroke-linecap:butt;stroke-linejoin:miter;stroke-opacity:1"
       x="1580.2379"
       y="16.296"
       id="text4767"
       sodipodi:linespacing="125%"><tspan
         sodipodi:role="line"
         id="tspan4769"
         x="1580.2379"
         y="16.296">AD</tspan></text>
    <text
       sodipodi:linespacing="125%"
       id="text4777"
       y="323.97192"
       x="1580.2379"
       style="font-style:normal;font-variant:normal;font-weight:500;font-stretch:normal;font-size:180px;line-height:125%;font-family:Ubuntu;-inkscape-font-specification:'Ubuntu Medium';text-align:center;letter-spacing:0px;word-spacing:0px;text-anchor:middle;opacity:0.98999999;fill:#ffffff;fill-opacity:1;stroke:none;stroke-width:1px;stroke-linecap:butt;stroke-linejoin:miter;stroke-opacity:1"
       xml:space="preserve"><tspan
         y="323.97192"
         x="1580.2379"
         id="tspan4779"
         sodipodi:role="line">AD</tspan></text>
    <text
       sodipodi:linespacing="125%"
       id="text4781"
       y="652.25769"
       x="1580.2379"
       style="font-style:normal;font-variant:normal;font-weight:500;font-stretch:normal;font-size:180px;line-height:125%;font-family:Ubuntu;-inkscape-font-specification:'Ubuntu Medium';text-align:center;letter-spacing:0px;word-spacing:0px;text-anchor:middle;opacity:0.98999999;fill:#ffffff;fill-opacity:1;stroke:none;stroke-width:1px;stroke-linecap:butt;stroke-linejoin:miter;stroke-opacity:1"
       xml:space="preserve"><tspan
         y="652.25769"
         x="1580.2379"
         id="tspan4783"
         sodipodi:role="line">AD</tspan></text>
    <text
       sodipodi:linespacing="125%"
       id="text4785"
       y="960.06696"
       x="1575.9896"
       style="font-style:normal;font-variant:normal;font-weight:500;font-stretch:normal;font-size:180px;line-height:125%;font-family:Ubuntu;-inkscape-font-specification:'Ubuntu Medium';text-align:center;letter-spacing:0px;word-spacing:0px;text-anchor:middle;opacity:0.98999999;fill:#ffffff;fill-opacity:1;stroke:none;stroke-width:1px;stroke-linecap:butt;stroke-linejoin:miter;stroke-opacity:1"
       xml:space="preserve"><tspan
         y="960.06696"
         x="1575.9896"
         id="tspan4787"
         sodipodi:role="line">$$$</tspan></text>
    <text
       xml:space="preserve"
       style="font-style:normal;font-variant:normal;font-weight:normal;font-stretch:normal;font-size:45px;line-height:125%;font-family:Ubuntu;-inkscape-font-specification:Ubuntu;letter-spacing:0px;word-spacing:0px;fill:#66a00f;fill-opacity:1;stroke:none;stroke-width:1px;stroke-linecap:butt;stroke-linejoin:miter;stroke-opacity:1"
       x="598.43909"
       y="-247.37474"
       id="text5044-5"
       sodipodi:linespacing="125%"><tspan
         sodipodi:role="line"
         id="tspan5046-2"
         x="598.43909"
         y="-247.37474"
         style="font-size:45px"><tspan
           style="font-size:45px;fill:#a29ea7;fill-opacity:1"
           id="tspan5130-8">rap superstar</tspan></tspan></text>
    <text
       sodipodi:linespacing="125%"
       id="text4816"
       y="-245.30473"
       x="1187.2521"
       style="font-style:normal;font-variant:normal;font-weight:normal;font-stretch:normal;font-size:45px;line-height:125%;font-family:Ubuntu;-inkscape-font-specification:Ubuntu;letter-spacing:0px;word-spacing:0px;fill:#66a00f;fill-opacity:1;stroke:none;stroke-width:1px;stroke-linecap:butt;stroke-linejoin:miter;stroke-opacity:1"
       xml:space="preserve"><tspan
         style="font-size:45px"
         y="-245.30473"
         x="1187.2521"
         id="tspan4818"
         sodipodi:role="line"><tspan
           id="tspan4820"
           style="font-size:45px;fill:#a29ea7;fill-opacity:1">straight outta compton</tspan></tspan></text>
  </g>
</svg>
